<svg width="151" height="40" viewBox="0 0 151 40" fill="none" xmlns="http://www.w3.org/2000/svg">
<rect width="151" height="40" fill="white"/>
<path fill-rule="evenodd" clip-rule="evenodd" d="M18.9037 5.65096C20.1107 4.13484 20.9154 2.0674 20.6472 -3.05176e-05C18.9037 0.137798 16.8919 1.24043 15.5507 2.61872C14.4777 3.85918 13.5389 6.06445 13.8071 7.99405C15.8189 8.26971 17.6966 7.16708 18.9037 5.65096ZM23.1978 18.7445C23.1978 14.334 26.6849 12.1287 26.9531 11.9909C24.9413 8.95864 21.7225 8.54515 20.6495 8.54515C19.0067 8.37632 17.4142 9.03466 16.1185 9.5703C15.2986 9.90927 14.5975 10.1991 14.0777 10.1991C13.5091 10.1991 12.7959 9.90186 11.9994 9.56989C10.9171 9.1188 9.68089 8.60358 8.4447 8.68298C5.6282 8.68298 2.94582 10.4748 1.47052 13.0935C-1.61422 18.4688 0.665803 26.4629 3.61642 30.8734C5.09173 33.0787 6.83527 35.4218 8.98117 35.284C9.94917 35.2218 10.6443 34.9353 11.3619 34.6394C12.2351 34.2794 13.1418 33.9057 14.6142 33.9057C15.9237 33.9057 16.7728 34.2697 17.5983 34.6236C18.3791 34.9583 19.1388 35.284 20.2472 35.284C22.4367 35.284 23.8842 33.2502 25.3021 31.2579L25.4778 31.0113C27.2213 28.5304 27.8919 26.1873 27.8919 26.0494C27.8703 26.0049 27.7366 25.9208 27.5271 25.789C26.4399 25.105 23.3102 23.1359 23.1978 18.7445ZM56.5199 34.5803H59.5525L53.8829 16.559H50.4548L44.7852 34.5803H47.6859L49.2681 29.2958H54.9377L56.5199 34.5803ZM53.0918 22.3854L54.5422 27.1279H49.7955L51.3777 22.3854C51.7733 20.8949 52.037 19.8109 52.1688 18.9979C52.6962 20.7594 52.9599 21.8434 53.0918 22.3854ZM74.186 27.9402C74.186 30.1081 73.6586 31.8696 72.4719 33.2246C71.4171 34.3086 70.0986 34.9861 68.6482 34.9861C66.9342 34.9861 65.7475 34.3086 65.0882 33.0891V39.9996H62.3194V25.9077C62.3194 24.5527 62.3194 23.0622 62.1875 21.5717H64.6927L64.8245 23.6042C65.7475 22.1137 67.1979 21.3007 69.0438 21.3007C70.4941 21.3007 71.8127 21.8427 72.7356 23.0622C73.6586 24.2817 74.186 25.9077 74.186 27.9402ZM71.2853 28.0757C71.2853 26.8562 71.0216 25.7722 70.4941 24.9592C69.8349 24.1462 69.0438 23.7397 67.989 23.7397C67.3297 23.7397 66.6704 24.0107 66.143 24.4172C65.6156 24.9592 65.2201 25.5012 65.0882 26.3142C64.9564 26.7207 64.9564 26.9917 64.9564 27.1272V29.2951C64.9564 30.2436 65.2201 31.0566 65.7475 31.7341C66.2749 32.4116 67.066 32.6826 67.989 32.6826C69.0438 32.6826 69.8349 32.2761 70.4941 31.4631C71.0216 30.5146 71.2853 29.4306 71.2853 28.0757ZM86.9758 33.225C88.1625 31.8701 88.6899 30.1086 88.6899 27.9406C88.6899 25.9081 88.1625 24.2821 87.2395 23.0626C86.3166 21.8431 84.9981 21.3011 83.5477 21.3011C81.7018 21.3011 80.2514 22.1141 79.3284 23.6046L79.1966 21.5721H76.6914C76.8233 23.0626 76.8233 24.5531 76.8233 25.9081V40H79.5921V33.0895C80.2514 34.309 81.4381 34.9865 83.1521 34.9865C84.6025 34.9865 85.921 34.309 86.9758 33.225ZM84.9981 24.9596C85.5255 25.7726 85.7892 26.8566 85.7892 28.0761C85.7892 29.4311 85.5255 30.5151 84.9981 31.4636C84.3388 32.2766 83.5477 32.6831 82.4929 32.6831C81.5699 32.6831 80.7788 32.4121 80.2514 31.7346C79.724 31.0571 79.4603 30.2441 79.4603 29.2956V27.1276C79.4603 26.9921 79.4603 26.7211 79.5921 26.3146C79.724 25.5016 80.1195 24.9596 80.6469 24.4176C81.1744 24.0111 81.8336 23.7401 82.4929 23.7401C83.5477 23.7401 84.3388 24.1466 84.9981 24.9596ZM104.905 29.5664C104.905 31.0569 104.378 32.4119 103.323 33.3604C102.136 34.4444 100.554 34.9864 98.5761 34.9864C96.7302 34.9864 95.148 34.5799 94.0932 33.9024L94.7525 31.4634C95.9391 32.2764 97.3895 32.6829 98.8399 32.6829C99.8947 32.6829 100.686 32.4119 101.345 32.0054C101.872 31.4634 102.268 30.9214 102.268 29.9729C102.268 29.2954 102.004 28.6179 101.477 28.0759C100.949 27.5339 100.158 27.1274 99.1035 26.7209C96.071 25.5014 94.4887 23.8755 94.4887 21.572C94.4887 20.0815 95.0162 18.862 96.071 17.9135C97.1258 16.965 98.5761 16.5585 100.422 16.5585C102.004 16.5585 103.323 16.8295 104.378 17.3715L103.587 19.5395C102.532 18.9975 101.477 18.7265 100.29 18.7265C99.2354 18.7265 98.5761 18.9975 97.9169 19.5395C97.3895 19.946 97.2576 20.488 97.2576 21.1655C97.2576 21.843 97.5213 22.5205 98.0487 22.927C98.5761 23.3335 99.3672 23.8755 100.554 24.282C102.004 24.9595 103.191 25.6369 103.85 26.4499C104.641 27.2629 104.905 28.3469 104.905 29.5664ZM111.235 23.7394H114.268C114.268 23.7394 114.268 21.5714 114.136 21.5714H111.103V18.3195L108.334 19.1325V21.5714H106.488V23.7394H108.334V30.2434C108.334 31.8694 108.598 33.0888 109.257 33.7663C109.916 34.4438 110.839 34.8503 111.894 34.8503C112.817 34.8503 113.608 34.8503 114.136 34.5793L114.004 32.4114C113.74 32.5468 113.345 32.5468 112.817 32.5468C111.762 32.5468 111.235 31.7339 111.235 30.1079V23.7394ZM128.245 27.9402C128.245 29.9726 127.717 31.5986 126.531 32.8181C125.344 34.1731 123.762 34.8506 121.916 34.8506C120.07 34.8506 118.619 34.1731 117.433 32.9536C116.246 31.7341 115.719 30.1081 115.719 28.2112C115.719 26.1787 116.246 24.5527 117.433 23.1977C118.619 21.9782 120.07 21.3007 122.048 21.3007C123.894 21.3007 125.344 21.9782 126.531 23.1977C127.717 24.4172 128.245 26.0432 128.245 27.9402ZM125.344 28.0757C125.344 26.8562 125.08 25.9077 124.553 24.9592C124.025 23.8752 123.102 23.4687 122.048 23.4687C120.861 23.4687 120.07 24.0107 119.411 24.9592C118.883 25.7722 118.619 26.8562 118.619 28.0757C118.619 29.2951 118.883 30.2436 119.411 31.1921C120.07 32.2761 120.861 32.6826 121.916 32.6826C122.971 32.6826 123.894 32.1406 124.421 31.0566C125.08 30.2436 125.344 29.2951 125.344 28.0757ZM136.978 24.0891C137.108 24.1192 137.227 24.1466 137.346 24.1466C137.346 24.1466 137.346 21.4366 137.477 21.3011H136.818C136.159 21.3011 135.5 21.5721 134.84 21.9786C134.181 22.5206 133.654 23.1981 133.39 24.0111H133.258L133.126 21.5721H130.621C130.753 22.7916 130.753 24.1466 130.753 25.6371V34.58H133.522V27.8051C133.522 26.7211 133.654 25.9081 134.181 25.2306C134.708 24.4176 135.368 24.0111 136.423 24.0111C136.64 24.0111 136.818 24.0522 136.978 24.0891ZM150.003 27.5332V27.5334C150.003 28.0753 150.003 28.4817 149.871 28.8882H141.433C141.433 30.1076 141.828 31.1916 142.62 31.8691C143.279 32.4111 144.202 32.8176 145.388 32.8176C146.575 32.8176 147.762 32.5466 148.817 32.1401L149.212 34.1726C148.026 34.7146 146.575 34.9856 144.993 34.9856C143.015 34.9856 141.433 34.4436 140.378 33.2241C139.323 32.0046 138.664 30.5141 138.664 28.4817C138.664 26.5847 139.191 24.8232 140.246 23.6037C141.301 22.2487 142.751 21.5712 144.729 21.5712C146.575 21.5712 147.894 22.2487 148.817 23.6037C149.608 24.4167 150.003 25.9072 150.003 27.5332ZM147.234 26.7202C147.234 25.9072 147.103 25.0942 146.707 24.5522C146.18 23.7392 145.52 23.3327 144.466 23.3327C143.543 23.3327 142.751 23.7392 142.224 24.5522C141.697 25.2297 141.433 25.9072 141.433 26.8557L147.234 26.7202ZM50.4587 9.10662C51.3816 8.29362 51.909 7.07414 51.909 5.44815C51.909 4.09316 51.5135 3.00917 50.5905 2.19618C49.7994 1.51868 48.6128 1.24768 47.1624 1.24768C46.3713 1.24768 45.5802 1.24768 44.7891 1.38318V10.0551C45.3165 10.1906 45.9757 10.1906 46.7668 10.1906C48.3491 10.1906 49.5357 9.78411 50.4587 9.10662ZM49.6676 3.00917C50.195 3.68666 50.4587 4.36416 50.4587 5.44815C50.4587 6.66764 50.3268 7.34513 49.6676 8.02263C49.0083 8.70012 48.2172 8.97112 47.1624 8.97112H46.2394V2.33167C46.5031 2.19618 46.8987 2.19618 47.2942 2.19618C48.3491 2.19618 49.1402 2.46717 49.6676 3.00917ZM59.6863 6.8027C59.6863 7.75119 59.4226 8.56418 58.8952 9.24168C58.3677 9.91917 57.5766 10.1902 56.6537 10.1902C55.7307 10.1902 55.0715 9.91917 54.4122 9.24168C53.8848 8.56418 53.6211 7.88669 53.6211 6.9382C53.6211 5.98971 53.8848 5.17671 54.4122 4.49922C54.9396 3.82172 55.7307 3.55073 56.6537 3.55073C57.5766 3.55073 58.2359 3.82172 58.8952 4.49922C59.4226 5.17671 59.6863 5.85421 59.6863 6.8027ZM58.2359 6.9382C58.2359 6.3962 58.104 5.85421 57.8403 5.44771C57.5766 4.90571 57.1811 4.63472 56.6537 4.63472C56.1263 4.63472 55.7307 4.90571 55.3352 5.44771C55.0715 5.85421 54.9396 6.3962 54.9396 6.9382C54.9396 7.48019 55.0715 8.02219 55.3352 8.42869C55.5989 8.97068 55.9944 9.24168 56.6537 9.24168C57.1811 9.24168 57.5766 8.97068 57.8403 8.42869C58.104 8.02219 58.2359 7.48019 58.2359 6.9382ZM68.1278 10.0542L70.1056 3.68571H68.6552L67.8641 6.66668C67.7322 7.47967 67.6004 8.15717 67.4685 8.83466C67.4501 8.73976 67.4316 8.64219 67.4128 8.54271L67.4127 8.54263C67.2971 7.93199 67.1679 7.24924 66.9411 6.66668L66.15 3.68571H64.9634L64.0404 6.66668C63.8389 7.28776 63.7144 7.82976 63.6081 8.29268L63.608 8.29299L63.6079 8.29375C63.5751 8.4364 63.544 8.57154 63.513 8.69916L63.1174 6.66668L62.4582 3.68571H61.0078L62.8537 10.0542H64.1722L64.9634 7.34418C65.2271 6.66668 65.3589 5.98919 65.4908 5.31169C65.6226 5.98919 65.7545 6.66668 66.0182 7.34418L66.8093 10.0542H68.1278ZM76.9635 10.0546H75.9087V6.39617C75.9087 5.31218 75.5131 4.77019 74.722 4.77019C74.3265 4.77019 73.9309 4.90569 73.6672 5.17668C73.4035 5.44768 73.2716 5.85418 73.2716 6.26067V10.0546H71.9531V5.44768V3.6862H73.0079V4.63469C73.1398 4.36369 73.4035 4.09269 73.6672 3.8217C74.0628 3.5507 74.4583 3.4152 74.8539 3.4152C75.3813 3.4152 75.9087 3.5507 76.3042 3.95719C76.8316 4.36369 76.9635 5.17668 76.9635 6.12518V10.0546ZM79.7266 10.0549H81.0451V0.84098H79.7266V10.0549ZM89.2253 6.8027C89.2253 7.75119 88.9616 8.56418 88.4342 9.24168C87.9068 9.91917 87.1157 10.1902 86.1927 10.1902C85.2698 10.1902 84.6105 9.91917 83.9513 9.24168C83.4239 8.56418 83.1602 7.88669 83.1602 6.9382C83.1602 5.98971 83.4239 5.17671 83.9513 4.49922C84.4787 3.82172 85.2698 3.55073 86.1927 3.55073C87.1157 3.55073 87.775 3.82172 88.4342 4.49922C88.9616 5.17671 89.2253 5.85421 89.2253 6.8027ZM87.775 6.9382C87.775 6.3962 87.6431 5.85421 87.3794 5.44771C87.1157 4.90571 86.7201 4.63472 86.1927 4.63472C85.6653 4.63472 85.2698 4.90571 84.8742 5.44771C84.6105 5.85421 84.4787 6.3962 84.4787 6.9382C84.4787 7.48019 84.6105 8.02219 84.8742 8.42869C85.1379 8.97068 85.5335 9.24168 86.1927 9.24168C86.7201 9.24168 87.1157 8.97068 87.3794 8.42869C87.6431 8.02219 87.775 7.48019 87.775 6.9382ZM94.6313 10.0547H95.818C95.818 9.78367 95.818 9.24168 95.6861 8.42869V6.1252C95.6861 4.36372 94.895 3.55073 93.3128 3.55073C92.5217 3.55073 91.7306 3.68622 91.2032 4.09272L91.335 5.04121C91.7306 4.77022 92.258 4.63472 92.9173 4.63472C93.8402 4.63472 94.2358 5.04121 94.2358 5.85421V5.98971C93.181 5.85421 92.258 6.1252 91.5987 6.5317C90.9395 6.9382 90.6758 7.48019 90.6758 8.29319C90.6758 8.83518 90.9395 9.24168 91.2032 9.64818C91.5987 10.0547 92.1261 10.1902 92.6536 10.1902C93.4447 10.1902 94.1039 9.91917 94.4995 9.37718L94.6313 10.0547ZM94.3676 6.9382V7.88669V8.15769C94.2358 8.56418 94.1039 8.83518 93.8402 8.97068C93.5765 9.10618 93.3128 9.24168 93.0491 9.24168C92.7854 9.24168 92.5217 9.10618 92.3898 8.97068C92.258 8.69968 92.1261 8.42869 92.1261 8.15769C92.1261 7.34469 92.7854 6.9382 94.3676 6.9382ZM103.726 10.0549H102.54V8.97091C102.144 9.78391 101.485 10.1904 100.562 10.1904C99.7708 10.1904 99.2434 9.91941 98.716 9.24191C98.1886 8.56442 97.9249 7.88692 97.9249 6.93843C97.9249 5.85444 98.1886 5.04145 98.716 4.36395C99.2434 3.82196 99.9026 3.41546 100.694 3.41546C101.485 3.41546 102.144 3.68646 102.408 4.22845V0.84098H103.726V8.42892C103.638 8.79025 103.668 9.15158 103.697 9.51291C103.712 9.69357 103.726 9.87424 103.726 10.0549ZM102.276 7.34493V6.26094V5.85444C102.144 5.44794 102.012 5.17694 101.749 5.04145C101.485 4.77045 101.221 4.63495 100.826 4.63495C100.298 4.63495 99.9026 4.90595 99.6389 5.31244C99.3752 5.71894 99.2434 6.26094 99.2434 6.93843C99.2434 7.61592 99.3752 8.02242 99.6389 8.42892C99.9026 8.83541 100.298 9.10641 100.826 9.10641C101.221 9.10641 101.617 8.97091 101.88 8.56442C102.144 8.29342 102.276 7.88692 102.276 7.34493ZM114.665 9.24189C115.192 8.5644 115.456 7.7514 115.456 6.80291C115.456 5.85442 115.192 5.17693 114.665 4.49943C114.005 3.82194 113.346 3.55094 112.423 3.55094C111.5 3.55094 110.709 3.82194 110.182 4.49943C109.654 5.17693 109.391 5.98992 109.391 6.93841C109.391 7.8869 109.654 8.5644 110.182 9.24189C110.841 9.91939 111.5 10.1904 112.423 10.1904C113.346 10.1904 114.137 9.91939 114.665 9.24189ZM113.742 5.44792C114.005 5.85442 114.137 6.39642 114.137 6.93841C114.137 7.48041 114.005 8.0224 113.742 8.4289C113.478 8.97089 113.082 9.24189 112.555 9.24189C111.896 9.24189 111.5 8.97089 111.237 8.4289C110.973 8.0224 110.841 7.48041 110.841 6.93841C110.841 6.39642 110.973 5.85442 111.237 5.44792C111.632 4.90593 112.028 4.63493 112.555 4.63493C113.082 4.63493 113.478 4.90593 113.742 5.44792ZM122.844 10.0546H121.658V6.39617C121.658 5.31218 121.262 4.77019 120.339 4.77019C119.944 4.77019 119.548 4.90569 119.284 5.17668C119.021 5.44768 118.889 5.85418 118.889 6.26067V10.0546H117.57V5.44768V3.6862H118.757V4.63469C118.889 4.36369 119.153 4.09269 119.416 3.8217C119.812 3.5507 120.207 3.4152 120.735 3.4152C121.262 3.4152 121.79 3.5507 122.185 3.95719C122.713 4.36369 122.844 5.17668 122.844 6.12518V10.0546ZM130.616 4.76995H132.199V3.82146H130.616V2.19547L129.298 2.60197V3.68596H128.375V4.76995H129.298V8.02192C129.298 8.83492 129.43 9.37691 129.694 9.78341C130.089 10.1899 130.485 10.3254 131.012 10.3254C131.408 10.3254 131.803 10.3254 132.067 10.1899V9.10592H131.408C130.88 9.10592 130.616 8.69942 130.616 7.88643V4.76995ZM139.588 10.0549H138.269V6.39643C138.269 5.31244 137.874 4.63495 137.083 4.63495C136.423 4.63495 136.028 4.90595 135.764 5.58344V6.12544V9.9194H134.446V0.84098H135.764V4.63495C136.16 3.95745 136.819 3.55096 137.61 3.55096C138.137 3.55096 138.665 3.68646 139.06 4.09295C139.588 4.63495 139.72 5.31244 139.72 6.26094C139.588 6.26094 139.588 10.0549 139.588 10.0549ZM147.105 7.34455V6.66706C147.105 5.85406 146.973 5.17657 146.578 4.77007C146.182 4.09258 145.523 3.68608 144.6 3.68608C143.809 3.68608 143.018 4.09258 142.49 4.77007C141.963 5.44757 141.699 6.26056 141.699 7.20905C141.699 8.15755 141.963 8.97054 142.49 9.51254C143.018 10.0545 143.809 10.3255 144.732 10.3255C145.523 10.3255 146.314 10.19 146.841 9.91903L146.578 8.97054C146.05 9.10604 145.523 9.24154 144.864 9.24154C144.336 9.24154 143.941 9.10604 143.545 8.83504C143.15 8.42854 142.886 8.02205 142.886 7.34455H147.105ZM145.523 5.17657C145.655 5.44757 145.787 5.85407 145.787 6.26056H143.018C143.018 5.85407 143.15 5.44757 143.413 5.17657C143.677 4.77007 144.073 4.63457 144.468 4.63457C144.864 4.63457 145.259 4.77007 145.523 5.17657Z" fill="#2F2F2F"/>
</svg>
