<svg width="28" height="36" viewBox="0 0 28 36" fill="none" xmlns="http://www.w3.org/2000/svg">
<path d="M23.1978 18.7446C23.1978 14.3341 26.6849 12.1288 26.9531 11.991C24.9413 8.95875 21.7225 8.54526 20.6495 8.54526C17.9671 8.26961 15.4189 10.1992 14.0777 10.1992C12.7365 10.1992 10.5906 8.54526 8.4447 8.68309C5.6282 8.68309 2.94582 10.4749 1.47052 13.0936C-1.61422 18.469 0.665803 26.463 3.61642 30.8736C5.09173 33.0788 6.83527 35.4219 8.98117 35.2841C11.1271 35.1463 11.9318 33.9058 14.6142 33.9058C17.1624 33.9058 17.9671 35.2841 20.2472 35.2841C22.5272 35.2841 24.0025 33.0788 25.4778 31.0114C27.2213 28.5305 27.8919 26.1874 27.8919 26.0495C27.7578 25.7739 23.3319 23.9821 23.1978 18.7446Z" fill="#372AA4"/>
<path d="M18.9036 5.65099C20.1106 4.13487 20.9153 2.06743 20.6471 0C18.9036 0.137829 16.8918 1.24046 15.5506 2.61875C14.4776 3.85921 13.5388 6.06448 13.807 7.99408C15.8188 8.26974 17.6965 7.16711 18.9036 5.65099Z" fill="#372AA4"/>
</svg>
