<svg width="151" height="40" viewBox="0 0 151 40" fill="none" xmlns="http://www.w3.org/2000/svg">
<path d="M23.1978 18.7446C23.1978 14.3341 26.6849 12.1288 26.9531 11.991C24.9413 8.95875 21.7225 8.54526 20.6495 8.54526C17.9671 8.26961 15.4189 10.1992 14.0777 10.1992C12.7365 10.1992 10.5906 8.54526 8.4447 8.68309C5.6282 8.68309 2.94582 10.4749 1.47052 13.0936C-1.61422 18.469 0.665803 26.463 3.61642 30.8736C5.09173 33.0788 6.83527 35.4219 8.98117 35.2841C11.1271 35.1463 11.9318 33.9058 14.6142 33.9058C17.1624 33.9058 17.9671 35.2841 20.2472 35.2841C22.5272 35.2841 24.0025 33.0788 25.4778 31.0114C27.2213 28.5305 27.8919 26.1874 27.8919 26.0495C27.7578 25.7739 23.3319 23.9821 23.1978 18.7446Z" fill="#372AA4"/>
<path d="M18.9036 5.65099C20.1106 4.13487 20.9153 2.06743 20.6471 0C18.9036 0.137829 16.8918 1.24046 15.5506 2.61875C14.4776 3.85921 13.5388 6.06448 13.807 7.99408C15.8188 8.26974 17.6965 7.16711 18.9036 5.65099Z" fill="#372AA4"/>
<path d="M59.5525 34.5804H56.5199L54.9377 29.296H49.2681L47.6859 34.5804H44.7852L50.4548 16.5591H53.8829L59.5525 34.5804ZM54.5422 27.128L53.0918 22.3855C52.9599 21.8435 52.6962 20.7595 52.1688 18.9981C52.037 19.8111 51.7733 20.895 51.3777 22.3855L49.7955 27.128H54.5422Z" fill="#2F2F2F"/>
<path d="M74.186 27.9402C74.186 30.1082 73.6586 31.8697 72.4719 33.2247C71.4171 34.3087 70.0986 34.9862 68.6482 34.9862C66.9342 34.9862 65.7475 34.3087 65.0882 33.0892V39.9996H62.3194V25.9077C62.3194 24.5528 62.3194 23.0623 62.1875 21.5718H64.6927L64.8245 23.6043C65.7475 22.1138 67.1979 21.3008 69.0438 21.3008C70.4941 21.3008 71.8127 21.8428 72.7356 23.0623C73.6586 24.2818 74.186 25.9077 74.186 27.9402ZM71.2853 28.0757C71.2853 26.8562 71.0216 25.7722 70.4941 24.9592C69.8349 24.1463 69.0438 23.7398 67.989 23.7398C67.3297 23.7398 66.6705 24.0108 66.143 24.4173C65.6156 24.9593 65.2201 25.5012 65.0882 26.3142C64.9564 26.7207 64.9564 26.9917 64.9564 27.1272V29.2952C64.9564 30.2437 65.2201 31.0567 65.7475 31.7342C66.2749 32.4117 67.066 32.6827 67.989 32.6827C69.0438 32.6827 69.8349 32.2762 70.4941 31.4632C71.0216 30.5147 71.2853 29.4307 71.2853 28.0757Z" fill="#2F2F2F"/>
<path d="M88.6899 27.9407C88.6899 30.1087 88.1625 31.8702 86.9758 33.2252C85.921 34.3092 84.6025 34.9867 83.1521 34.9867C81.4381 34.9867 80.2514 34.3092 79.5921 33.0897V40.0001H76.8233V25.9082C76.8233 24.5532 76.8233 23.0628 76.6914 21.5723H79.1966L79.3284 23.6047C80.2514 22.1143 81.7018 21.3013 83.5477 21.3013C84.9981 21.3013 86.3166 21.8433 87.2395 23.0628C88.1625 24.2822 88.6899 25.9082 88.6899 27.9407ZM85.7892 28.0762C85.7892 26.8567 85.5255 25.7727 84.9981 24.9597C84.3388 24.1467 83.5477 23.7402 82.4929 23.7402C81.8336 23.7402 81.1744 24.0112 80.647 24.4177C80.1195 24.9597 79.724 25.5017 79.5921 26.3147C79.4603 26.7212 79.4603 26.9922 79.4603 27.1277V29.2957C79.4603 30.2442 79.724 31.0572 80.2514 31.7347C80.7788 32.4122 81.5699 32.6832 82.4929 32.6832C83.5477 32.6832 84.3388 32.2767 84.9981 31.4637C85.5255 30.5152 85.7892 29.4312 85.7892 28.0762Z" fill="#2F2F2F"/>
<path d="M104.905 29.5665C104.905 31.057 104.378 32.412 103.323 33.3605C102.136 34.4444 100.554 34.9864 98.5762 34.9864C96.7303 34.9864 95.1481 34.5799 94.0933 33.9025L94.7525 31.4635C95.9392 32.2765 97.3895 32.683 98.8399 32.683C99.8947 32.683 100.686 32.412 101.345 32.0055C101.873 31.4635 102.268 30.9215 102.268 29.973C102.268 29.2955 102.004 28.618 101.477 28.076C100.95 27.534 100.158 27.1275 99.1036 26.721C96.071 25.5015 94.4888 23.8755 94.4888 21.5721C94.4888 20.0816 95.0162 18.8621 96.071 17.9136C97.1258 16.9651 98.5762 16.5586 100.422 16.5586C102.004 16.5586 103.323 16.8296 104.378 17.3716L103.587 19.5396C102.532 18.9976 101.477 18.7266 100.29 18.7266C99.2355 18.7266 98.5762 18.9976 97.9169 19.5396C97.3895 19.9461 97.2577 20.4881 97.2577 21.1656C97.2577 21.8431 97.5214 22.5205 98.0488 22.927C98.5762 23.3335 99.3673 23.8755 100.554 24.282C102.004 24.9595 103.191 25.637 103.85 26.45C104.641 27.263 104.905 28.347 104.905 29.5665Z" fill="#2F2F2F"/>
<path d="M114.268 23.7395H111.235V30.108C111.235 31.734 111.762 32.547 112.817 32.547C113.345 32.547 113.74 32.547 114.004 32.4115L114.136 34.5794C113.608 34.8504 112.817 34.8504 111.894 34.8504C110.839 34.8504 109.916 34.4439 109.257 33.7664C108.598 33.089 108.334 31.8695 108.334 30.2435V23.7395H106.488V21.5716H108.334V19.1326L111.103 18.3196V21.5716H114.136C114.268 21.5716 114.268 23.7395 114.268 23.7395Z" fill="#2F2F2F"/>
<path d="M128.245 27.9402C128.245 29.9727 127.717 31.5987 126.531 32.8182C125.344 34.1732 123.762 34.8507 121.916 34.8507C120.07 34.8507 118.619 34.1732 117.433 32.9537C116.246 31.7342 115.719 30.1082 115.719 28.2112C115.719 26.1787 116.246 24.5528 117.433 23.1978C118.619 21.9783 120.07 21.3008 122.048 21.3008C123.894 21.3008 125.344 21.9783 126.531 23.1978C127.717 24.4173 128.245 26.0432 128.245 27.9402ZM125.344 28.0757C125.344 26.8562 125.08 25.9077 124.553 24.9592C124.025 23.8753 123.102 23.4688 122.048 23.4688C120.861 23.4688 120.07 24.0108 119.411 24.9592C118.883 25.7722 118.619 26.8562 118.619 28.0757C118.619 29.2952 118.883 30.2437 119.411 31.1922C120.07 32.2762 120.861 32.6827 121.916 32.6827C122.971 32.6827 123.894 32.1407 124.421 31.0567C125.08 30.2437 125.344 29.2952 125.344 28.0757Z" fill="#2F2F2F"/>
<path d="M137.346 24.1467C137.082 24.1467 136.818 24.0112 136.423 24.0112C135.368 24.0112 134.708 24.4177 134.181 25.2307C133.654 25.9082 133.522 26.7212 133.522 27.8052V34.5802H130.753V25.6372C130.753 24.1467 130.753 22.7918 130.621 21.5723H133.126L133.258 24.0112H133.39C133.654 23.1983 134.181 22.5208 134.84 21.9788C135.5 21.5723 136.159 21.3013 136.818 21.3013C137.082 21.3013 137.346 21.3013 137.477 21.3013C137.346 21.4368 137.346 24.1467 137.346 24.1467Z" fill="#2F2F2F"/>
<path d="M150.003 27.5332C150.003 28.0752 150.003 28.4817 149.871 28.8882H141.433C141.433 30.1077 141.828 31.1917 142.62 31.8692C143.279 32.4112 144.202 32.8177 145.388 32.8177C146.575 32.8177 147.762 32.5467 148.817 32.1402L149.212 34.1727C148.026 34.7147 146.575 34.9857 144.993 34.9857C143.015 34.9857 141.433 34.4437 140.378 33.2242C139.323 32.0047 138.664 30.5142 138.664 28.4817C138.664 26.5847 139.191 24.8233 140.246 23.6038C141.301 22.2488 142.751 21.5713 144.729 21.5713C146.575 21.5713 147.894 22.2488 148.817 23.6038C149.608 24.4168 150.003 25.9073 150.003 27.5332ZM147.234 26.7202C147.234 25.9073 147.103 25.0943 146.707 24.5523C146.18 23.7393 145.52 23.3328 144.466 23.3328C143.543 23.3328 142.751 23.7393 142.224 24.5523C141.697 25.2298 141.433 25.9073 141.433 26.8557L147.234 26.7202Z" fill="#2F2F2F"/>
<path d="M51.909 5.44827C51.909 7.07425 51.3816 8.29374 50.4587 9.10674C49.5357 9.78423 48.3491 10.1907 46.7668 10.1907C45.9757 10.1907 45.3165 10.1907 44.7891 10.0552V1.3833C45.5802 1.2478 46.3713 1.2478 47.1624 1.2478C48.6128 1.2478 49.7994 1.5188 50.5905 2.19629C51.5135 3.00929 51.909 4.09328 51.909 5.44827ZM50.4587 5.44827C50.4587 4.36428 50.195 3.68678 49.6676 3.00929C49.1402 2.46729 48.3491 2.19629 47.2942 2.19629C46.8987 2.19629 46.5031 2.19629 46.2394 2.33179V8.97124C46.3713 8.97124 46.7668 8.97124 47.1624 8.97124C48.2172 8.97124 49.0083 8.70024 49.6676 8.02275C50.3268 7.34525 50.4587 6.66776 50.4587 5.44827Z" fill="#2F2F2F"/>
<path d="M59.6863 6.80275C59.6863 7.75125 59.4226 8.56424 58.8952 9.24173C58.3677 9.91923 57.5766 10.1902 56.6537 10.1902C55.7307 10.1902 55.0715 9.91923 54.4122 9.24173C53.8848 8.56424 53.6211 7.88674 53.6211 6.93825C53.6211 5.98976 53.8848 5.17677 54.4122 4.49927C54.9396 3.82178 55.7307 3.55078 56.6537 3.55078C57.5766 3.55078 58.2359 3.82178 58.8952 4.49927C59.4226 5.17677 59.6863 5.85426 59.6863 6.80275ZM58.2359 6.93825C58.2359 6.39626 58.104 5.85426 57.8403 5.44776C57.5766 4.90577 57.1811 4.63477 56.6537 4.63477C56.1263 4.63477 55.7307 4.90577 55.3352 5.44776C55.0715 5.85426 54.9396 6.39626 54.9396 6.93825C54.9396 7.48025 55.0715 8.02224 55.3352 8.42874C55.5989 8.97074 55.9944 9.24173 56.6537 9.24173C57.1811 9.24173 57.5766 8.97074 57.8403 8.42874C58.104 8.02224 58.2359 7.48025 58.2359 6.93825Z" fill="#2F2F2F"/>
<path d="M70.1056 3.68579L68.1278 10.0542H66.8093L66.0182 7.34426C65.7545 6.66677 65.6226 5.98927 65.4908 5.31178C65.3589 5.98927 65.2271 6.66677 64.9634 7.34426L64.1722 10.0542H62.8537L61.0078 3.68579H62.4582L63.1174 6.66677C63.2493 7.34426 63.3811 8.02175 63.513 8.69925C63.6448 8.15725 63.7767 7.47976 64.0404 6.66677L64.9634 3.68579H66.15L66.9411 6.66677C67.2048 7.34426 67.3367 8.15725 67.4685 8.83475C67.6004 8.15725 67.7322 7.47976 67.8641 6.66677L68.6552 3.68579H70.1056Z" fill="#2F2F2F"/>
<path d="M77.2272 10.0547H75.9087V6.39626C75.9087 5.31227 75.5131 4.77027 74.722 4.77027C74.3265 4.77027 73.9309 4.90577 73.6672 5.17677C73.4035 5.44777 73.2716 5.85426 73.2716 6.26076V10.0547H71.9531V5.44777C71.9531 4.90577 71.9531 4.22828 71.9531 3.68628H73.0079V4.63477C73.1398 4.36377 73.4035 4.09278 73.6672 3.82178C74.0628 3.55078 74.4583 3.41528 74.8539 3.41528C75.3813 3.41528 75.9087 3.55078 76.3042 3.95728C76.8316 4.36377 76.9635 5.17677 76.9635 6.12526V10.0547H77.2272Z" fill="#2F2F2F"/>
<path d="M81.0451 10.055H79.7266V0.841064H81.0451V10.055Z" fill="#2F2F2F"/>
<path d="M89.2253 6.80275C89.2253 7.75125 88.9616 8.56424 88.4342 9.24173C87.9068 9.91923 87.1157 10.1902 86.1927 10.1902C85.2698 10.1902 84.6105 9.91923 83.9513 9.24173C83.4239 8.56424 83.1602 7.88674 83.1602 6.93825C83.1602 5.98976 83.4239 5.17677 83.9513 4.49927C84.4787 3.82178 85.2698 3.55078 86.1927 3.55078C87.1157 3.55078 87.775 3.82178 88.4342 4.49927C88.9616 5.17677 89.2253 5.85426 89.2253 6.80275ZM87.775 6.93825C87.775 6.39626 87.6431 5.85426 87.3794 5.44776C87.1157 4.90577 86.7201 4.63477 86.1927 4.63477C85.6653 4.63477 85.2698 4.90577 84.8742 5.44776C84.6105 5.85426 84.4787 6.39626 84.4787 6.93825C84.4787 7.48025 84.6105 8.02224 84.8742 8.42874C85.1379 8.97074 85.5335 9.24173 86.1927 9.24173C86.7201 9.24173 87.1157 8.97074 87.3794 8.42874C87.6431 8.02224 87.775 7.48025 87.775 6.93825Z" fill="#2F2F2F"/>
<path d="M95.818 10.0547H94.6313L94.4995 9.37723C94.1039 9.91923 93.4447 10.1902 92.6536 10.1902C92.1261 10.1902 91.5987 10.0547 91.2032 9.64823C90.9395 9.24173 90.6758 8.83524 90.6758 8.29324C90.6758 7.48025 90.9395 6.93825 91.5987 6.53176C92.258 6.12526 93.181 5.85426 94.2358 5.98976V5.85426C94.2358 5.04127 93.8402 4.63477 92.9173 4.63477C92.258 4.63477 91.7306 4.77027 91.335 5.04127L91.2032 4.09278C91.7306 3.68628 92.5217 3.55078 93.3128 3.55078C94.895 3.55078 95.6861 4.36377 95.6861 6.12526V8.42874C95.818 9.24173 95.818 9.78373 95.818 10.0547ZM94.3676 7.88674V6.93825C92.7854 6.93825 92.1261 7.34475 92.1261 8.15774C92.1261 8.42874 92.258 8.69974 92.3898 8.97074C92.5217 9.10624 92.7854 9.24173 93.0491 9.24173C93.3128 9.24173 93.5765 9.10624 93.8402 8.97074C94.1039 8.83524 94.2358 8.56424 94.3676 8.15774C94.3676 8.02224 94.3676 8.02224 94.3676 7.88674Z" fill="#2F2F2F"/>
<path d="M103.726 10.055H102.54V8.971C102.144 9.78399 101.485 10.1905 100.562 10.1905C99.7707 10.1905 99.2433 9.91949 98.7159 9.242C98.1885 8.5645 97.9248 7.88701 97.9248 6.93852C97.9248 5.85452 98.1885 5.04153 98.7159 4.36404C99.2433 3.82204 99.9026 3.41554 100.694 3.41554C101.485 3.41554 102.144 3.68654 102.408 4.22854V0.841064H103.726V8.429C103.594 8.971 103.726 9.51299 103.726 10.055ZM102.276 7.34501V6.26102C102.276 6.12552 102.276 5.99002 102.276 5.85452C102.144 5.44803 102.012 5.17703 101.748 5.04153C101.485 4.77053 101.221 4.63503 100.826 4.63503C100.298 4.63503 99.9026 4.90603 99.6389 5.31253C99.3752 5.71902 99.2433 6.26102 99.2433 6.93852C99.2433 7.61601 99.3752 8.02251 99.6389 8.429C99.9026 8.8355 100.298 9.1065 100.826 9.1065C101.221 9.1065 101.617 8.971 101.88 8.5645C102.144 8.2935 102.276 7.88701 102.276 7.34501Z" fill="#2F2F2F"/>
<path d="M115.456 6.803C115.456 7.75149 115.192 8.56448 114.665 9.24198C114.137 9.91947 113.346 10.1905 112.423 10.1905C111.5 10.1905 110.841 9.91947 110.182 9.24198C109.654 8.56448 109.391 7.88699 109.391 6.9385C109.391 5.99001 109.654 5.17701 110.182 4.49952C110.709 3.82202 111.5 3.55103 112.423 3.55103C113.346 3.55103 114.005 3.82202 114.665 4.49952C115.192 5.17701 115.456 5.85451 115.456 6.803ZM114.137 6.9385C114.137 6.3965 114.005 5.85451 113.742 5.44801C113.478 4.90601 113.082 4.63502 112.555 4.63502C112.028 4.63502 111.632 4.90601 111.237 5.44801C110.973 5.85451 110.841 6.3965 110.841 6.9385C110.841 7.48049 110.973 8.02249 111.237 8.42898C111.5 8.97098 111.896 9.24198 112.555 9.24198C113.082 9.24198 113.478 8.97098 113.742 8.42898C114.005 8.02249 114.137 7.48049 114.137 6.9385Z" fill="#2F2F2F"/>
<path d="M122.976 10.0547H121.658V6.39626C121.658 5.31227 121.262 4.77027 120.339 4.77027C119.944 4.77027 119.548 4.90577 119.284 5.17677C119.021 5.44777 118.889 5.85426 118.889 6.26076V10.0547H117.57V5.44777C117.57 4.90577 117.57 4.22828 117.57 3.68628H118.757V4.63477C118.889 4.36377 119.153 4.09278 119.416 3.82178C119.812 3.55078 120.207 3.41528 120.735 3.41528C121.262 3.41528 121.79 3.55078 122.185 3.95728C122.713 4.36377 122.844 5.17677 122.844 6.12526V10.0547H122.976Z" fill="#2F2F2F"/>
<path d="M132.199 4.77004H130.616V7.88651C130.616 8.6995 130.88 9.106 131.408 9.106C131.671 9.106 131.803 9.106 132.067 9.106V10.19C131.803 10.3255 131.408 10.3255 131.012 10.3255C130.485 10.3255 130.089 10.19 129.694 9.78349C129.43 9.377 129.298 8.835 129.298 8.02201V4.77004H128.375V3.68604H129.298V2.60205L130.616 2.19556V3.82154H132.199V4.77004Z" fill="#2F2F2F"/>
<path d="M139.588 10.055H138.269V6.39652C138.269 5.31253 137.874 4.63503 137.083 4.63503C136.424 4.63503 136.028 4.90603 135.764 5.58353C135.764 5.71902 135.764 5.85452 135.764 6.12552V9.91949H134.446V0.841064H135.764V4.63503C136.16 3.95754 136.819 3.55104 137.61 3.55104C138.138 3.55104 138.665 3.68654 139.061 4.09304C139.588 4.63503 139.72 5.31253 139.72 6.26102C139.588 6.26102 139.588 10.055 139.588 10.055Z" fill="#2F2F2F"/>
<path d="M147.105 6.66725C147.105 6.93825 147.105 7.07375 147.105 7.34475H142.886C142.886 8.02224 143.15 8.42874 143.545 8.83524C143.941 9.10623 144.336 9.24173 144.864 9.24173C145.523 9.24173 146.05 9.10624 146.578 8.97074L146.841 9.91923C146.314 10.1902 145.523 10.3257 144.732 10.3257C143.809 10.3257 143.018 10.0547 142.49 9.51273C141.963 8.97074 141.699 8.15774 141.699 7.20925C141.699 6.26076 141.963 5.44776 142.49 4.77027C143.018 4.09278 143.809 3.68628 144.6 3.68628C145.523 3.68628 146.182 4.09278 146.578 4.77027C146.973 5.17677 147.105 5.85426 147.105 6.66725ZM145.787 6.26076C145.787 5.85426 145.655 5.44777 145.523 5.17677C145.259 4.77027 144.864 4.63477 144.468 4.63477C144.073 4.63477 143.677 4.77027 143.413 5.17677C143.15 5.44777 143.018 5.85426 143.018 6.26076C142.886 6.26076 145.787 6.26076 145.787 6.26076Z" fill="#2F2F2F"/>
</svg>
