<svg width="280" height="80" viewBox="0 0 280 80" fill="none" xmlns="http://www.w3.org/2000/svg">
<rect width="280" height="80" rx="10" fill="#EF9B11"/>
<path d="M107.204 26.4164C107.204 27.487 106.808 28.4238 106.282 29.0929C105.491 29.8959 104.569 30.2974 103.384 30.2974C102.198 30.2974 101.276 29.8959 100.486 29.0929C99.6957 28.29 99.3006 27.3532 99.3006 26.1487C99.3006 24.9442 99.6957 24.0074 100.486 23.2045C101.276 22.4015 102.198 22 103.384 22C103.911 22 104.438 22.1338 104.964 22.4015C105.491 22.6691 105.886 22.9368 106.15 23.3383L105.491 24.0074C104.964 23.3383 104.306 23.0706 103.252 23.0706C102.462 23.0706 101.671 23.3383 101.145 24.0074C100.486 24.5428 100.223 25.3457 100.223 26.2825C100.223 27.2193 100.486 28.0223 101.145 28.5576C101.803 29.0929 102.462 29.4944 103.252 29.4944C104.174 29.4944 104.833 29.2268 105.491 28.5576C105.886 28.1561 106.15 27.6208 106.15 26.9517H103.252V26.0149H107.072C107.204 26.0149 107.204 26.2825 107.204 26.4164Z" fill="#2F2F2F"/>
<path d="M113.391 23.0692H109.835V25.612H113.128V26.5488H109.835V29.0915H113.391V30.0283H108.781V22.1324H113.391V23.0692Z" fill="#2F2F2F"/>
<path d="M117.606 30.0283H116.553V23.0692H114.445V22.1324H119.845V23.0692H117.606V30.0283Z" fill="#2F2F2F"/>
<path d="M123.804 30.0283V22.1324H124.858V30.0283H123.804Z" fill="#2F2F2F"/>
<path d="M129.336 30.0288H128.282V23.0697H126.043V22.1329H131.575V23.0697H129.336V30.0288Z" fill="#2F2F2F"/>
<path d="M141.848 29.0934C141.058 29.8964 140.136 30.2979 138.95 30.2979C137.765 30.2979 136.843 29.8964 136.052 29.0934C135.262 28.2904 134.867 27.3536 134.867 26.1492C134.867 24.9447 135.262 24.0079 136.052 23.2049C136.843 22.4019 137.765 22.0005 138.95 22.0005C140.136 22.0005 141.058 22.4019 141.848 23.2049C142.638 24.0079 143.033 24.9447 143.033 26.1492C143.033 27.2198 142.638 28.2904 141.848 29.0934ZM136.711 28.4242C137.238 28.9596 138.028 29.361 138.818 29.361C139.609 29.361 140.399 29.0934 140.926 28.4242C141.453 27.8889 141.848 27.086 141.848 26.1492C141.848 25.2124 141.585 24.4094 140.926 23.8741C140.399 23.3387 139.609 22.9373 138.818 22.9373C138.028 22.9373 137.238 23.2049 136.711 23.8741C136.184 24.4094 135.789 25.2124 135.789 26.1492C135.921 27.086 136.184 27.7551 136.711 28.4242Z" fill="#2F2F2F"/>
<path d="M144.484 30.0283V22.1324H145.67L149.489 28.2885V26.8164V22.1324H150.543V30.0283H149.489L145.406 23.6045V25.0766V30.0283H144.484Z" fill="#2F2F2F"/>
<path d="M134.868 41.6729C131.707 41.6729 129.204 44.0818 129.204 47.2937C129.204 50.5056 131.707 52.9145 134.868 52.9145C138.029 52.9145 140.532 50.5056 140.532 47.2937C140.532 44.0818 138.029 41.6729 134.868 41.6729ZM134.868 50.7732C133.156 50.7732 131.707 49.3011 131.707 47.2937C131.707 45.2863 133.156 43.8141 134.868 43.8141C136.58 43.8141 138.029 45.1524 138.029 47.2937C138.029 49.3011 136.58 50.7732 134.868 50.7732ZM122.618 41.6729C119.457 41.6729 116.955 44.0818 116.955 47.2937C116.955 50.5056 119.457 52.9145 122.618 52.9145C125.78 52.9145 128.282 50.5056 128.282 47.2937C128.151 44.0818 125.648 41.6729 122.618 41.6729ZM122.618 50.7732C120.906 50.7732 119.457 49.3011 119.457 47.2937C119.457 45.2863 120.906 43.8141 122.618 43.8141C124.331 43.8141 125.78 45.1524 125.78 47.2937C125.78 49.3011 124.331 50.7732 122.618 50.7732ZM107.998 43.4127V45.8216H113.662C113.53 47.1599 113.003 48.0967 112.345 48.7658C111.554 49.5688 110.237 50.5056 107.998 50.5056C104.442 50.5056 101.807 47.6952 101.807 44.0818C101.807 40.4684 104.573 37.658 107.998 37.658C109.842 37.658 111.291 38.461 112.345 39.3978L114.057 37.658C112.608 36.3197 110.764 35.2491 108.13 35.2491C103.256 35.2491 99.3047 39.1301 99.3047 43.948C99.3047 48.7658 103.388 52.6468 108.13 52.6468C110.764 52.6468 112.74 51.8439 114.189 50.2379C115.769 48.632 116.296 46.4907 116.296 44.6171C116.296 44.0818 116.296 43.5465 116.164 43.145C115.901 43.4127 107.998 43.4127 107.998 43.4127ZM167.797 45.2863C167.27 44.0818 165.953 41.6729 162.924 41.6729C160.026 41.6729 157.655 43.948 157.655 47.2937C157.655 50.5056 160.026 52.9145 163.187 52.9145C165.821 52.9145 167.27 51.3086 167.929 50.3718L165.953 49.0335C165.295 49.9703 164.504 50.6394 163.187 50.6394C162.002 50.6394 161.08 50.1041 160.421 48.8996L167.929 45.8216C168.061 45.9554 167.797 45.2863 167.797 45.2863ZM160.158 47.1599C160.158 45.0186 161.87 43.8141 163.055 43.8141C163.977 43.8141 164.899 44.3495 165.163 45.0186L160.158 47.1599ZM153.967 52.6468H156.47V36.0521H153.967V52.6468ZM150.015 42.8773C149.357 42.2082 148.303 41.6729 146.986 41.6729C144.22 41.6729 141.586 44.2156 141.586 47.2937C141.586 50.5056 144.22 52.9145 146.986 52.9145C148.303 52.9145 149.357 52.3792 149.884 51.5762H150.015V52.3792C150.015 54.5205 148.83 55.7249 146.986 55.7249C145.537 55.7249 144.483 54.6543 144.22 53.7175L142.112 54.6543C142.771 56.1264 144.352 58 147.118 58C150.015 58 152.518 56.2602 152.518 52.1115V41.9405H150.147L150.015 42.8773ZM147.118 50.7732C145.405 50.7732 143.956 49.3011 143.956 47.4275C143.956 45.4201 145.405 43.948 147.118 43.948C148.83 43.948 150.147 45.4201 150.147 47.4275C150.147 49.3011 148.83 50.7732 147.118 50.7732ZM179.256 36.0521H173.329V52.6468H175.832V46.3569H179.256C182.022 46.3569 184.657 44.3495 184.657 41.2714C184.789 38.0595 182.022 36.0521 179.256 36.0521ZM179.388 44.0818H175.832V38.3272H179.388C181.232 38.3272 182.286 39.7993 182.286 41.1376C182.286 42.4758 181.232 44.0818 179.388 44.0818ZM194.667 41.6729C192.823 41.6729 190.979 42.4759 190.321 44.2156L192.56 45.1524C193.087 44.2156 193.877 43.948 194.799 43.948C196.116 43.948 197.433 44.7509 197.433 46.0892V46.2231C197.038 45.9554 195.984 45.5539 194.799 45.5539C192.428 45.5539 190.057 46.8922 190.057 49.3011C190.057 51.5762 192.033 52.9145 194.14 52.9145C195.853 52.9145 196.775 52.1115 197.302 51.3086H197.433V52.6468H199.804V46.2231C199.672 43.2788 197.433 41.6729 194.667 41.6729ZM194.272 50.7732C193.482 50.7732 192.296 50.3718 192.296 49.435C192.296 48.0967 193.745 47.6952 194.931 47.6952C195.984 47.6952 196.511 47.9628 197.17 48.2305C197.038 49.7026 195.721 50.7732 194.272 50.7732ZM208.234 42.0744L205.468 49.3011H205.336L202.439 42.0744H199.804L204.151 52.1115L201.648 57.7323H204.283L211 42.0744H208.234ZM186.106 52.6468H188.608V36.0521H186.106V52.6468Z" fill="#2F2F2F"/>
<path d="M58.6541 23.1393C58.2617 23.5381 58 24.2027 58 25.0003V54.1112C58 54.9088 58.2617 55.5734 58.6541 55.9722L58.785 56.1051L75.0077 39.7551V39.3564L58.6541 23.1393Z" fill="url(#paint0_linear_1_36)"/>
<path d="M80.3718 45.2048L75.0078 39.7548V39.3561L80.3718 33.9061L80.5026 34.039L86.9132 37.7609C88.7448 38.8244 88.7448 40.5524 86.9132 41.6158L80.3718 45.2048C80.5026 45.2048 80.3718 45.2048 80.3718 45.2048Z" fill="url(#paint1_linear_1_36)"/>
<path d="M80.5046 45.204L75.0098 39.621L58.6562 55.971C59.3104 56.6356 60.2262 56.6356 61.4036 56.1039L80.5046 45.204Z" fill="url(#paint2_linear_1_36)"/>
<path d="M80.5046 34.039L61.4036 23.1391C60.2262 22.4744 59.3104 22.6073 58.6562 23.272L75.0098 39.622L80.5046 34.039Z" fill="url(#paint3_linear_1_36)"/>
<defs>
<linearGradient id="paint0_linear_1_36" x1="73.5428" y1="54.405" x2="51.4422" y2="32.3962" gradientUnits="userSpaceOnUse">
<stop stop-color="#00A0FF"/>
<stop offset="0.0066" stop-color="#00A1FF"/>
<stop offset="0.2601" stop-color="#00BEFF"/>
<stop offset="0.5122" stop-color="#00D2FF"/>
<stop offset="0.7604" stop-color="#00DFFF"/>
<stop offset="1" stop-color="#00E3FF"/>
</linearGradient>
<linearGradient id="paint1_linear_1_36" x1="89.2885" y1="39.5554" x2="57.5562" y2="39.5554" gradientUnits="userSpaceOnUse">
<stop stop-color="#FFE000"/>
<stop offset="0.4087" stop-color="#FFBD00"/>
<stop offset="0.7754" stop-color="#FFA500"/>
<stop offset="1" stop-color="#FF9C00"/>
</linearGradient>
<linearGradient id="paint2_linear_1_36" x1="66.5553" y1="47.5172" x2="36.5851" y2="17.6717" gradientUnits="userSpaceOnUse">
<stop stop-color="#FF3A44"/>
<stop offset="1" stop-color="#C31162"/>
</linearGradient>
<linearGradient id="paint3_linear_1_36" x1="43.6159" y1="54.7608" x2="56.999" y2="41.4335" gradientUnits="userSpaceOnUse">
<stop stop-color="#32A071"/>
<stop offset="0.0685" stop-color="#2DA771"/>
<stop offset="0.4762" stop-color="#15CF74"/>
<stop offset="0.8009" stop-color="#06E775"/>
<stop offset="1" stop-color="#00F076"/>
</linearGradient>
</defs>
</svg>
