<svg width="427" height="520" viewBox="0 0 427 520" fill="none" xmlns="http://www.w3.org/2000/svg">
<g filter="url(#filter0_d_504_445)">
<path d="M100.188 90C100.188 84.4772 104.666 80 110.188 80H558C563.523 80 568 84.4772 568 90V390C568 395.523 563.523 400 558 400H110.188C104.666 400 100.188 395.523 100.188 390V90Z" fill="white"/>
</g>
<path d="M176.036 113.364V121.968C176.036 123.3 175.658 124.326 174.902 125.046C174.158 125.766 173.15 126.126 171.878 126.126C170.546 126.126 169.478 125.748 168.674 124.992C167.87 124.236 167.468 123.162 167.468 121.77H170.528C170.528 122.298 170.636 122.7 170.852 122.976C171.068 123.24 171.38 123.372 171.788 123.372C172.16 123.372 172.448 123.252 172.652 123.012C172.856 122.772 172.958 122.424 172.958 121.968V113.364H176.036ZM183.094 126.144C182.11 126.144 181.222 125.934 180.43 125.514C179.65 125.094 179.032 124.494 178.576 123.714C178.132 122.934 177.91 122.022 177.91 120.978C177.91 119.946 178.138 119.04 178.594 118.26C179.05 117.468 179.674 116.862 180.466 116.442C181.258 116.022 182.146 115.812 183.13 115.812C184.114 115.812 185.002 116.022 185.794 116.442C186.586 116.862 187.21 117.468 187.666 118.26C188.122 119.04 188.35 119.946 188.35 120.978C188.35 122.01 188.116 122.922 187.648 123.714C187.192 124.494 186.562 125.094 185.758 125.514C184.966 125.934 184.078 126.144 183.094 126.144ZM183.094 123.48C183.682 123.48 184.18 123.264 184.588 122.832C185.008 122.4 185.218 121.782 185.218 120.978C185.218 120.174 185.014 119.556 184.606 119.124C184.21 118.692 183.718 118.476 183.13 118.476C182.53 118.476 182.032 118.692 181.636 119.124C181.24 119.544 181.042 120.162 181.042 120.978C181.042 121.782 181.234 122.4 181.618 122.832C182.014 123.264 182.506 123.48 183.094 123.48ZM196.157 115.848C197.309 115.848 198.233 116.232 198.929 117C199.625 117.756 199.973 118.8 199.973 120.132V126H196.913V120.546C196.913 119.874 196.739 119.352 196.391 118.98C196.043 118.608 195.575 118.422 194.987 118.422C194.399 118.422 193.931 118.608 193.583 118.98C193.235 119.352 193.061 119.874 193.061 120.546V126H189.983V112.68H193.061V117.306C193.373 116.862 193.799 116.508 194.339 116.244C194.879 115.98 195.485 115.848 196.157 115.848ZM208.232 115.848C209.408 115.848 210.344 116.232 211.04 117C211.748 117.756 212.102 118.8 212.102 120.132V126H209.042V120.546C209.042 119.874 208.868 119.352 208.52 118.98C208.172 118.608 207.704 118.422 207.116 118.422C206.528 118.422 206.06 118.608 205.712 118.98C205.364 119.352 205.19 119.874 205.19 120.546V126H202.112V115.956H205.19V117.288C205.502 116.844 205.922 116.496 206.45 116.244C206.978 115.98 207.572 115.848 208.232 115.848ZM222.789 113.364C224.121 113.364 225.285 113.628 226.281 114.156C227.277 114.684 228.045 115.428 228.585 116.388C229.137 117.336 229.413 118.434 229.413 119.682C229.413 120.918 229.137 122.016 228.585 122.976C228.045 123.936 227.271 124.68 226.263 125.208C225.267 125.736 224.109 126 222.789 126H218.055V113.364H222.789ZM222.591 123.336C223.755 123.336 224.661 123.018 225.309 122.382C225.957 121.746 226.281 120.846 226.281 119.682C226.281 118.518 225.957 117.612 225.309 116.964C224.661 116.316 223.755 115.992 222.591 115.992H221.133V123.336H222.591ZM235.705 126.144C234.721 126.144 233.833 125.934 233.041 125.514C232.261 125.094 231.643 124.494 231.187 123.714C230.743 122.934 230.521 122.022 230.521 120.978C230.521 119.946 230.749 119.04 231.205 118.26C231.661 117.468 232.285 116.862 233.077 116.442C233.869 116.022 234.757 115.812 235.741 115.812C236.725 115.812 237.613 116.022 238.405 116.442C239.197 116.862 239.821 117.468 240.277 118.26C240.733 119.04 240.961 119.946 240.961 120.978C240.961 122.01 240.727 122.922 240.259 123.714C239.803 124.494 239.173 125.094 238.369 125.514C237.577 125.934 236.689 126.144 235.705 126.144ZM235.705 123.48C236.293 123.48 236.791 123.264 237.199 122.832C237.619 122.4 237.829 121.782 237.829 120.978C237.829 120.174 237.625 119.556 237.217 119.124C236.821 118.692 236.329 118.476 235.741 118.476C235.141 118.476 234.643 118.692 234.247 119.124C233.851 119.544 233.653 120.162 233.653 120.978C233.653 121.782 233.845 122.4 234.229 122.832C234.625 123.264 235.117 123.48 235.705 123.48ZM252.062 120.816C252.062 121.104 252.044 121.404 252.008 121.716H245.042C245.09 122.34 245.288 122.82 245.636 123.156C245.996 123.48 246.434 123.642 246.95 123.642C247.718 123.642 248.252 123.318 248.552 122.67H251.828C251.66 123.33 251.354 123.924 250.91 124.452C250.478 124.98 249.932 125.394 249.272 125.694C248.612 125.994 247.874 126.144 247.058 126.144C246.074 126.144 245.198 125.934 244.43 125.514C243.662 125.094 243.062 124.494 242.63 123.714C242.198 122.934 241.982 122.022 241.982 120.978C241.982 119.934 242.192 119.022 242.612 118.242C243.044 117.462 243.644 116.862 244.412 116.442C245.18 116.022 246.062 115.812 247.058 115.812C248.03 115.812 248.894 116.016 249.65 116.424C250.406 116.832 250.994 117.414 251.414 118.17C251.846 118.926 252.062 119.808 252.062 120.816ZM248.912 120.006C248.912 119.478 248.732 119.058 248.372 118.746C248.012 118.434 247.562 118.278 247.022 118.278C246.506 118.278 246.068 118.428 245.708 118.728C245.36 119.028 245.144 119.454 245.06 120.006H248.912Z" fill="#12082D"/>
<path d="M170.421 224.344H174.651V226H168.369V213.49H170.421V224.344ZM180.849 226.162C179.913 226.162 179.067 225.952 178.311 225.532C177.555 225.1 176.961 224.5 176.529 223.732C176.097 222.952 175.881 222.052 175.881 221.032C175.881 220.024 176.103 219.13 176.547 218.35C176.991 217.57 177.597 216.97 178.365 216.55C179.133 216.13 179.991 215.92 180.939 215.92C181.887 215.92 182.745 216.13 183.513 216.55C184.281 216.97 184.887 217.57 185.331 218.35C185.775 219.13 185.997 220.024 185.997 221.032C185.997 222.04 185.769 222.934 185.313 223.714C184.857 224.494 184.233 225.1 183.441 225.532C182.661 225.952 181.797 226.162 180.849 226.162ZM180.849 224.38C181.377 224.38 181.869 224.254 182.325 224.002C182.793 223.75 183.171 223.372 183.459 222.868C183.747 222.364 183.891 221.752 183.891 221.032C183.891 220.312 183.753 219.706 183.477 219.214C183.201 218.71 182.835 218.332 182.379 218.08C181.923 217.828 181.431 217.702 180.903 217.702C180.375 217.702 179.883 217.828 179.427 218.08C178.983 218.332 178.629 218.71 178.365 219.214C178.101 219.706 177.969 220.312 177.969 221.032C177.969 222.1 178.239 222.928 178.779 223.516C179.331 224.092 180.021 224.38 180.849 224.38ZM190.257 217.522C190.557 217.018 190.953 216.628 191.445 216.352C191.949 216.064 192.543 215.92 193.227 215.92V218.044H192.705C191.901 218.044 191.289 218.248 190.869 218.656C190.461 219.064 190.257 219.772 190.257 220.78V226H188.205V216.082H190.257V217.522ZM204.383 220.798C204.383 221.17 204.359 221.506 204.311 221.806H196.733C196.793 222.598 197.087 223.234 197.615 223.714C198.143 224.194 198.791 224.434 199.559 224.434C200.663 224.434 201.443 223.972 201.899 223.048H204.113C203.813 223.96 203.267 224.71 202.475 225.298C201.695 225.874 200.723 226.162 199.559 226.162C198.611 226.162 197.759 225.952 197.003 225.532C196.259 225.1 195.671 224.5 195.239 223.732C194.819 222.952 194.609 222.052 194.609 221.032C194.609 220.012 194.813 219.118 195.221 218.35C195.641 217.57 196.223 216.97 196.967 216.55C197.723 216.13 198.587 215.92 199.559 215.92C200.495 215.92 201.329 216.124 202.061 216.532C202.793 216.94 203.363 217.516 203.771 218.26C204.179 218.992 204.383 219.838 204.383 220.798ZM202.241 220.15C202.229 219.394 201.959 218.788 201.431 218.332C200.903 217.876 200.249 217.648 199.469 217.648C198.761 217.648 198.155 217.876 197.651 218.332C197.147 218.776 196.847 219.382 196.751 220.15H202.241ZM218.589 215.92C219.369 215.92 220.065 216.082 220.677 216.406C221.301 216.73 221.787 217.21 222.135 217.846C222.495 218.482 222.675 219.25 222.675 220.15V226H220.641V220.456C220.641 219.568 220.419 218.89 219.975 218.422C219.531 217.942 218.925 217.702 218.157 217.702C217.389 217.702 216.777 217.942 216.321 218.422C215.877 218.89 215.655 219.568 215.655 220.456V226H213.621V220.456C213.621 219.568 213.399 218.89 212.955 218.422C212.511 217.942 211.905 217.702 211.137 217.702C210.369 217.702 209.757 217.942 209.301 218.422C208.857 218.89 208.635 219.568 208.635 220.456V226H206.583V216.082H208.635V217.216C208.971 216.808 209.397 216.49 209.913 216.262C210.429 216.034 210.981 215.92 211.569 215.92C212.361 215.92 213.069 216.088 213.693 216.424C214.317 216.76 214.797 217.246 215.133 217.882C215.433 217.282 215.901 216.808 216.537 216.46C217.173 216.1 217.857 215.92 218.589 215.92ZM231.366 214.768C230.994 214.768 230.682 214.642 230.43 214.39C230.178 214.138 230.052 213.826 230.052 213.454C230.052 213.082 230.178 212.77 230.43 212.518C230.682 212.266 230.994 212.14 231.366 212.14C231.726 212.14 232.032 212.266 232.284 212.518C232.536 212.77 232.662 213.082 232.662 213.454C232.662 213.826 232.536 214.138 232.284 214.39C232.032 214.642 231.726 214.768 231.366 214.768ZM232.374 216.082V226H230.322V216.082H232.374ZM237.3 217.54C237.648 217.084 238.122 216.7 238.722 216.388C239.322 216.076 240 215.92 240.756 215.92C241.62 215.92 242.406 216.136 243.114 216.568C243.834 216.988 244.398 217.582 244.806 218.35C245.214 219.118 245.418 220 245.418 220.996C245.418 221.992 245.214 222.886 244.806 223.678C244.398 224.458 243.834 225.07 243.114 225.514C242.406 225.946 241.62 226.162 240.756 226.162C240 226.162 239.328 226.012 238.74 225.712C238.152 225.4 237.672 225.016 237.3 224.56V230.716H235.248V216.082H237.3V217.54ZM243.33 220.996C243.33 220.312 243.186 219.724 242.898 219.232C242.622 218.728 242.25 218.35 241.782 218.098C241.326 217.834 240.834 217.702 240.306 217.702C239.79 217.702 239.298 217.834 238.83 218.098C238.374 218.362 238.002 218.746 237.714 219.25C237.438 219.754 237.3 220.348 237.3 221.032C237.3 221.716 237.438 222.316 237.714 222.832C238.002 223.336 238.374 223.72 238.83 223.984C239.298 224.248 239.79 224.38 240.306 224.38C240.834 224.38 241.326 224.248 241.782 223.984C242.25 223.708 242.622 223.312 242.898 222.796C243.186 222.28 243.33 221.68 243.33 220.996ZM251.227 226.162C250.447 226.162 249.745 226.024 249.121 225.748C248.509 225.46 248.023 225.076 247.663 224.596C247.303 224.104 247.111 223.558 247.087 222.958H249.211C249.247 223.378 249.445 223.732 249.805 224.02C250.177 224.296 250.639 224.434 251.191 224.434C251.767 224.434 252.211 224.326 252.523 224.11C252.847 223.882 253.009 223.594 253.009 223.246C253.009 222.874 252.829 222.598 252.469 222.418C252.121 222.238 251.563 222.04 250.795 221.824C250.051 221.62 249.445 221.422 248.977 221.23C248.509 221.038 248.101 220.744 247.753 220.348C247.417 219.952 247.249 219.43 247.249 218.782C247.249 218.254 247.405 217.774 247.717 217.342C248.029 216.898 248.473 216.55 249.049 216.298C249.637 216.046 250.309 215.92 251.065 215.92C252.193 215.92 253.099 216.208 253.783 216.784C254.479 217.348 254.851 218.122 254.899 219.106H252.847C252.811 218.662 252.631 218.308 252.307 218.044C251.983 217.78 251.545 217.648 250.993 217.648C250.453 217.648 250.039 217.75 249.751 217.954C249.463 218.158 249.319 218.428 249.319 218.764C249.319 219.028 249.415 219.25 249.607 219.43C249.799 219.61 250.033 219.754 250.309 219.862C250.585 219.958 250.993 220.084 251.533 220.24C252.253 220.432 252.841 220.63 253.297 220.834C253.765 221.026 254.167 221.314 254.503 221.698C254.839 222.082 255.013 222.592 255.025 223.228C255.025 223.792 254.869 224.296 254.557 224.74C254.245 225.184 253.801 225.532 253.225 225.784C252.661 226.036 251.995 226.162 251.227 226.162ZM266.404 216.082V226H264.352V224.83C264.028 225.238 263.602 225.562 263.074 225.802C262.558 226.03 262.006 226.144 261.418 226.144C260.638 226.144 259.936 225.982 259.312 225.658C258.7 225.334 258.214 224.854 257.854 224.218C257.506 223.582 257.332 222.814 257.332 221.914V216.082H259.366V221.608C259.366 222.496 259.588 223.18 260.032 223.66C260.476 224.128 261.082 224.362 261.85 224.362C262.618 224.362 263.224 224.128 263.668 223.66C264.124 223.18 264.352 222.496 264.352 221.608V216.082H266.404ZM281.298 215.92C282.078 215.92 282.774 216.082 283.386 216.406C284.01 216.73 284.496 217.21 284.844 217.846C285.204 218.482 285.384 219.25 285.384 220.15V226H283.35V220.456C283.35 219.568 283.128 218.89 282.684 218.422C282.24 217.942 281.634 217.702 280.866 217.702C280.098 217.702 279.486 217.942 279.03 218.422C278.586 218.89 278.364 219.568 278.364 220.456V226H276.33V220.456C276.33 219.568 276.108 218.89 275.664 218.422C275.22 217.942 274.614 217.702 273.846 217.702C273.078 217.702 272.466 217.942 272.01 218.422C271.566 218.89 271.344 219.568 271.344 220.456V226H269.292V216.082H271.344V217.216C271.68 216.808 272.106 216.49 272.622 216.262C273.138 216.034 273.69 215.92 274.278 215.92C275.07 215.92 275.778 216.088 276.402 216.424C277.026 216.76 277.506 217.246 277.842 217.882C278.142 217.282 278.61 216.808 279.246 216.46C279.882 216.1 280.566 215.92 281.298 215.92ZM292.347 220.996C292.347 220 292.551 219.118 292.959 218.35C293.379 217.582 293.943 216.988 294.651 216.568C295.371 216.136 296.169 215.92 297.045 215.92C297.693 215.92 298.329 216.064 298.953 216.352C299.589 216.628 300.093 217 300.465 217.468V212.68H302.535V226H300.465V224.506C300.129 224.986 299.661 225.382 299.061 225.694C298.473 226.006 297.795 226.162 297.027 226.162C296.163 226.162 295.371 225.946 294.651 225.514C293.943 225.07 293.379 224.458 292.959 223.678C292.551 222.886 292.347 221.992 292.347 220.996ZM300.465 221.032C300.465 220.348 300.321 219.754 300.033 219.25C299.757 218.746 299.391 218.362 298.935 218.098C298.479 217.834 297.987 217.702 297.459 217.702C296.931 217.702 296.439 217.834 295.983 218.098C295.527 218.35 295.155 218.728 294.867 219.232C294.591 219.724 294.453 220.312 294.453 220.996C294.453 221.68 294.591 222.28 294.867 222.796C295.155 223.312 295.527 223.708 295.983 223.984C296.451 224.248 296.943 224.38 297.459 224.38C297.987 224.38 298.479 224.248 298.935 223.984C299.391 223.72 299.757 223.336 300.033 222.832C300.321 222.316 300.465 221.716 300.465 221.032ZM309.712 226.162C308.776 226.162 307.93 225.952 307.174 225.532C306.418 225.1 305.824 224.5 305.392 223.732C304.96 222.952 304.744 222.052 304.744 221.032C304.744 220.024 304.966 219.13 305.41 218.35C305.854 217.57 306.46 216.97 307.228 216.55C307.996 216.13 308.854 215.92 309.802 215.92C310.75 215.92 311.608 216.13 312.376 216.55C313.144 216.97 313.75 217.57 314.194 218.35C314.638 219.13 314.86 220.024 314.86 221.032C314.86 222.04 314.632 222.934 314.176 223.714C313.72 224.494 313.096 225.1 312.304 225.532C311.524 225.952 310.66 226.162 309.712 226.162ZM309.712 224.38C310.24 224.38 310.732 224.254 311.188 224.002C311.656 223.75 312.034 223.372 312.322 222.868C312.61 222.364 312.754 221.752 312.754 221.032C312.754 220.312 312.616 219.706 312.34 219.214C312.064 218.71 311.698 218.332 311.242 218.08C310.786 217.828 310.294 217.702 309.766 217.702C309.238 217.702 308.746 217.828 308.29 218.08C307.846 218.332 307.492 218.71 307.228 219.214C306.964 219.706 306.832 220.312 306.832 221.032C306.832 222.1 307.102 222.928 307.642 223.516C308.194 224.092 308.884 224.38 309.712 224.38ZM319.12 212.68V226H317.068V212.68H319.12ZM326.296 226.162C325.36 226.162 324.514 225.952 323.758 225.532C323.002 225.1 322.408 224.5 321.976 223.732C321.544 222.952 321.328 222.052 321.328 221.032C321.328 220.024 321.55 219.13 321.994 218.35C322.438 217.57 323.044 216.97 323.812 216.55C324.58 216.13 325.438 215.92 326.386 215.92C327.334 215.92 328.192 216.13 328.96 216.55C329.728 216.97 330.334 217.57 330.778 218.35C331.222 219.13 331.444 220.024 331.444 221.032C331.444 222.04 331.216 222.934 330.76 223.714C330.304 224.494 329.68 225.1 328.888 225.532C328.108 225.952 327.244 226.162 326.296 226.162ZM326.296 224.38C326.824 224.38 327.316 224.254 327.772 224.002C328.24 223.75 328.618 223.372 328.906 222.868C329.194 222.364 329.338 221.752 329.338 221.032C329.338 220.312 329.2 219.706 328.924 219.214C328.648 218.71 328.282 218.332 327.826 218.08C327.37 217.828 326.878 217.702 326.35 217.702C325.822 217.702 325.33 217.828 324.874 218.08C324.43 218.332 324.076 218.71 323.812 219.214C323.548 219.706 323.416 220.312 323.416 221.032C323.416 222.1 323.686 222.928 324.226 223.516C324.778 224.092 325.468 224.38 326.296 224.38ZM335.705 217.522C336.005 217.018 336.401 216.628 336.893 216.352C337.397 216.064 337.991 215.92 338.675 215.92V218.044H338.153C337.349 218.044 336.737 218.248 336.317 218.656C335.909 219.064 335.705 219.772 335.705 220.78V226H333.653V216.082H335.705V217.522ZM349.197 226.162C348.417 226.162 347.715 226.024 347.091 225.748C346.479 225.46 345.993 225.076 345.633 224.596C345.273 224.104 345.081 223.558 345.057 222.958H347.181C347.217 223.378 347.415 223.732 347.775 224.02C348.147 224.296 348.609 224.434 349.161 224.434C349.737 224.434 350.181 224.326 350.493 224.11C350.817 223.882 350.979 223.594 350.979 223.246C350.979 222.874 350.799 222.598 350.439 222.418C350.091 222.238 349.533 222.04 348.765 221.824C348.021 221.62 347.415 221.422 346.947 221.23C346.479 221.038 346.071 220.744 345.723 220.348C345.387 219.952 345.219 219.43 345.219 218.782C345.219 218.254 345.375 217.774 345.687 217.342C345.999 216.898 346.443 216.55 347.019 216.298C347.607 216.046 348.279 215.92 349.035 215.92C350.163 215.92 351.069 216.208 351.753 216.784C352.449 217.348 352.821 218.122 352.869 219.106H350.817C350.781 218.662 350.601 218.308 350.277 218.044C349.953 217.78 349.515 217.648 348.963 217.648C348.423 217.648 348.009 217.75 347.721 217.954C347.433 218.158 347.289 218.428 347.289 218.764C347.289 219.028 347.385 219.25 347.577 219.43C347.769 219.61 348.003 219.754 348.279 219.862C348.555 219.958 348.963 220.084 349.503 220.24C350.223 220.432 350.811 220.63 351.267 220.834C351.735 221.026 352.137 221.314 352.473 221.698C352.809 222.082 352.983 222.592 352.995 223.228C352.995 223.792 352.839 224.296 352.527 224.74C352.215 225.184 351.771 225.532 351.195 225.784C350.631 226.036 349.965 226.162 349.197 226.162ZM356.436 214.768C356.064 214.768 355.752 214.642 355.5 214.39C355.248 214.138 355.122 213.826 355.122 213.454C355.122 213.082 355.248 212.77 355.5 212.518C355.752 212.266 356.064 212.14 356.436 212.14C356.796 212.14 357.102 212.266 357.354 212.518C357.606 212.77 357.732 213.082 357.732 213.454C357.732 213.826 357.606 214.138 357.354 214.39C357.102 214.642 356.796 214.768 356.436 214.768ZM357.444 216.082V226H355.392V216.082H357.444ZM362.712 217.756V223.246C362.712 223.618 362.796 223.888 362.964 224.056C363.144 224.212 363.444 224.29 363.864 224.29H365.124V226H363.504C362.58 226 361.872 225.784 361.38 225.352C360.888 224.92 360.642 224.218 360.642 223.246V217.756H359.472V216.082H360.642V213.616H362.712V216.082H365.124V217.756H362.712ZM371.367 220.996C371.367 220 371.571 219.118 371.979 218.35C372.399 217.582 372.963 216.988 373.671 216.568C374.391 216.136 375.183 215.92 376.047 215.92C376.827 215.92 377.505 216.076 378.081 216.388C378.669 216.688 379.137 217.066 379.485 217.522V216.082H381.555V226H379.485V224.524C379.137 224.992 378.663 225.382 378.063 225.694C377.463 226.006 376.779 226.162 376.011 226.162C375.159 226.162 374.379 225.946 373.671 225.514C372.963 225.07 372.399 224.458 371.979 223.678C371.571 222.886 371.367 221.992 371.367 220.996ZM379.485 221.032C379.485 220.348 379.341 219.754 379.053 219.25C378.777 218.746 378.411 218.362 377.955 218.098C377.499 217.834 377.007 217.702 376.479 217.702C375.951 217.702 375.459 217.834 375.003 218.098C374.547 218.35 374.175 218.728 373.887 219.232C373.611 219.724 373.473 220.312 373.473 220.996C373.473 221.68 373.611 222.28 373.887 222.796C374.175 223.312 374.547 223.708 375.003 223.984C375.471 224.248 375.963 224.38 376.479 224.38C377.007 224.38 377.499 224.248 377.955 223.984C378.411 223.72 378.777 223.336 379.053 222.832C379.341 222.316 379.485 221.716 379.485 221.032ZM396.436 215.92C397.216 215.92 397.912 216.082 398.524 216.406C399.148 216.73 399.634 217.21 399.982 217.846C400.342 218.482 400.522 219.25 400.522 220.15V226H398.488V220.456C398.488 219.568 398.266 218.89 397.822 218.422C397.378 217.942 396.772 217.702 396.004 217.702C395.236 217.702 394.624 217.942 394.168 218.422C393.724 218.89 393.502 219.568 393.502 220.456V226H391.468V220.456C391.468 219.568 391.246 218.89 390.802 218.422C390.358 217.942 389.752 217.702 388.984 217.702C388.216 217.702 387.604 217.942 387.148 218.422C386.704 218.89 386.482 219.568 386.482 220.456V226H384.43V216.082H386.482V217.216C386.818 216.808 387.244 216.49 387.76 216.262C388.276 216.034 388.828 215.92 389.416 215.92C390.208 215.92 390.916 216.088 391.54 216.424C392.164 216.76 392.644 217.246 392.98 217.882C393.28 217.282 393.748 216.808 394.384 216.46C395.02 216.1 395.704 215.92 396.436 215.92ZM412.404 220.798C412.404 221.17 412.38 221.506 412.332 221.806H404.754C404.814 222.598 405.108 223.234 405.636 223.714C406.164 224.194 406.812 224.434 407.58 224.434C408.684 224.434 409.464 223.972 409.92 223.048H412.134C411.834 223.96 411.288 224.71 410.496 225.298C409.716 225.874 408.744 226.162 407.58 226.162C406.632 226.162 405.78 225.952 405.024 225.532C404.28 225.1 403.692 224.5 403.26 223.732C402.84 222.952 402.63 222.052 402.63 221.032C402.63 220.012 402.834 219.118 403.242 218.35C403.662 217.57 404.244 216.97 404.988 216.55C405.744 216.13 406.608 215.92 407.58 215.92C408.516 215.92 409.35 216.124 410.082 216.532C410.814 216.94 411.384 217.516 411.792 218.26C412.2 218.992 412.404 219.838 412.404 220.798ZM410.262 220.15C410.25 219.394 409.98 218.788 409.452 218.332C408.924 217.876 408.27 217.648 407.49 217.648C406.782 217.648 406.176 217.876 405.672 218.332C405.168 218.776 404.868 219.382 404.772 220.15H410.262ZM416.997 217.756V223.246C416.997 223.618 417.081 223.888 417.249 224.056C417.429 224.212 417.729 224.29 418.149 224.29H419.409V226H417.789C416.865 226 416.157 225.784 415.665 225.352C415.173 224.92 414.927 224.218 414.927 223.246V217.756H413.757V216.082H414.927V213.616H416.997V216.082H419.409V217.756H416.997ZM423.73 223.534L421.552 228.502H420.22L421.498 223.534H423.73ZM429.875 221.032C429.875 220.012 430.079 219.118 430.487 218.35C430.907 217.57 431.483 216.97 432.215 216.55C432.947 216.13 433.787 215.92 434.735 215.92C435.935 215.92 436.925 216.208 437.705 216.784C438.497 217.348 439.031 218.158 439.307 219.214H437.093C436.913 218.722 436.625 218.338 436.229 218.062C435.833 217.786 435.335 217.648 434.735 217.648C433.895 217.648 433.223 217.948 432.719 218.548C432.227 219.136 431.981 219.964 431.981 221.032C431.981 222.1 432.227 222.934 432.719 223.534C433.223 224.134 433.895 224.434 434.735 224.434C435.923 224.434 436.709 223.912 437.093 222.868H439.307C439.019 223.876 438.479 224.68 437.687 225.28C436.895 225.868 435.911 226.162 434.735 226.162C433.787 226.162 432.947 225.952 432.215 225.532C431.483 225.1 430.907 224.5 430.487 223.732C430.079 222.952 429.875 222.052 429.875 221.032ZM445.834 226.162C444.898 226.162 444.052 225.952 443.296 225.532C442.54 225.1 441.946 224.5 441.514 223.732C441.082 222.952 440.866 222.052 440.866 221.032C440.866 220.024 441.088 219.13 441.532 218.35C441.976 217.57 442.582 216.97 443.35 216.55C444.118 216.13 444.976 215.92 445.924 215.92C446.872 215.92 447.73 216.13 448.498 216.55C449.266 216.97 449.872 217.57 450.316 218.35C450.76 219.13 450.982 220.024 450.982 221.032C450.982 222.04 450.754 222.934 450.298 223.714C449.842 224.494 449.218 225.1 448.426 225.532C447.646 225.952 446.782 226.162 445.834 226.162ZM445.834 224.38C446.362 224.38 446.854 224.254 447.31 224.002C447.778 223.75 448.156 223.372 448.444 222.868C448.732 222.364 448.876 221.752 448.876 221.032C448.876 220.312 448.738 219.706 448.462 219.214C448.186 218.71 447.82 218.332 447.364 218.08C446.908 217.828 446.416 217.702 445.888 217.702C445.36 217.702 444.868 217.828 444.412 218.08C443.968 218.332 443.614 218.71 443.35 219.214C443.086 219.706 442.954 220.312 442.954 221.032C442.954 222.1 443.224 222.928 443.764 223.516C444.316 224.092 445.006 224.38 445.834 224.38ZM458.194 215.92C458.974 215.92 459.67 216.082 460.282 216.406C460.906 216.73 461.392 217.21 461.74 217.846C462.088 218.482 462.262 219.25 462.262 220.15V226H460.228V220.456C460.228 219.568 460.006 218.89 459.562 218.422C459.118 217.942 458.512 217.702 457.744 217.702C456.976 217.702 456.364 217.942 455.908 218.422C455.464 218.89 455.242 219.568 455.242 220.456V226H453.19V216.082H455.242V217.216C455.578 216.808 456.004 216.49 456.52 216.262C457.048 216.034 457.606 215.92 458.194 215.92ZM468.66 226.162C467.88 226.162 467.178 226.024 466.554 225.748C465.942 225.46 465.456 225.076 465.096 224.596C464.736 224.104 464.544 223.558 464.52 222.958H466.644C466.68 223.378 466.878 223.732 467.238 224.02C467.61 224.296 468.072 224.434 468.624 224.434C469.2 224.434 469.644 224.326 469.956 224.11C470.28 223.882 470.442 223.594 470.442 223.246C470.442 222.874 470.262 222.598 469.902 222.418C469.554 222.238 468.996 222.04 468.228 221.824C467.484 221.62 466.878 221.422 466.41 221.23C465.942 221.038 465.534 220.744 465.186 220.348C464.85 219.952 464.682 219.43 464.682 218.782C464.682 218.254 464.838 217.774 465.15 217.342C465.462 216.898 465.906 216.55 466.482 216.298C467.07 216.046 467.742 215.92 468.498 215.92C469.626 215.92 470.532 216.208 471.216 216.784C471.912 217.348 472.284 218.122 472.332 219.106H470.28C470.244 218.662 470.064 218.308 469.74 218.044C469.416 217.78 468.978 217.648 468.426 217.648C467.886 217.648 467.472 217.75 467.184 217.954C466.896 218.158 466.752 218.428 466.752 218.764C466.752 219.028 466.848 219.25 467.04 219.43C467.232 219.61 467.466 219.754 467.742 219.862C468.018 219.958 468.426 220.084 468.966 220.24C469.686 220.432 470.274 220.63 470.73 220.834C471.198 221.026 471.6 221.314 471.936 221.698C472.272 222.082 472.446 222.592 472.458 223.228C472.458 223.792 472.302 224.296 471.99 224.74C471.678 225.184 471.234 225.532 470.658 225.784C470.094 226.036 469.428 226.162 468.66 226.162ZM483.945 220.798C483.945 221.17 483.921 221.506 483.873 221.806H476.295C476.355 222.598 476.649 223.234 477.177 223.714C477.705 224.194 478.353 224.434 479.121 224.434C480.225 224.434 481.005 223.972 481.461 223.048H483.675C483.375 223.96 482.829 224.71 482.037 225.298C481.257 225.874 480.285 226.162 479.121 226.162C478.173 226.162 477.321 225.952 476.565 225.532C475.821 225.1 475.233 224.5 474.801 223.732C474.381 222.952 474.171 222.052 474.171 221.032C474.171 220.012 474.375 219.118 474.783 218.35C475.203 217.57 475.785 216.97 476.529 216.55C477.285 216.13 478.149 215.92 479.121 215.92C480.057 215.92 480.891 216.124 481.623 216.532C482.355 216.94 482.925 217.516 483.333 218.26C483.741 218.992 483.945 219.838 483.945 220.798ZM481.803 220.15C481.791 219.394 481.521 218.788 480.993 218.332C480.465 217.876 479.811 217.648 479.031 217.648C478.323 217.648 477.717 217.876 477.213 218.332C476.709 218.776 476.409 219.382 476.313 220.15H481.803ZM485.46 221.032C485.46 220.012 485.664 219.118 486.072 218.35C486.492 217.57 487.068 216.97 487.8 216.55C488.532 216.13 489.372 215.92 490.32 215.92C491.52 215.92 492.51 216.208 493.29 216.784C494.082 217.348 494.616 218.158 494.892 219.214H492.678C492.498 218.722 492.21 218.338 491.814 218.062C491.418 217.786 490.92 217.648 490.32 217.648C489.48 217.648 488.808 217.948 488.304 218.548C487.812 219.136 487.566 219.964 487.566 221.032C487.566 222.1 487.812 222.934 488.304 223.534C488.808 224.134 489.48 224.434 490.32 224.434C491.508 224.434 492.294 223.912 492.678 222.868H494.892C494.604 223.876 494.064 224.68 493.272 225.28C492.48 225.868 491.496 226.162 490.32 226.162C489.372 226.162 488.532 225.952 487.8 225.532C487.068 225.1 486.492 224.5 486.072 223.732C485.664 222.952 485.46 222.052 485.46 221.032ZM499.511 217.756V223.246C499.511 223.618 499.595 223.888 499.763 224.056C499.943 224.212 500.243 224.29 500.663 224.29H501.923V226H500.303C499.379 226 498.671 225.784 498.179 225.352C497.687 224.92 497.441 224.218 497.441 223.246V217.756H496.271V216.082H497.441V213.616H499.511V216.082H501.923V217.756H499.511ZM513.085 220.798C513.085 221.17 513.061 221.506 513.013 221.806H505.435C505.495 222.598 505.789 223.234 506.317 223.714C506.845 224.194 507.493 224.434 508.261 224.434C509.365 224.434 510.145 223.972 510.601 223.048H512.815C512.515 223.96 511.969 224.71 511.177 225.298C510.397 225.874 509.425 226.162 508.261 226.162C507.313 226.162 506.461 225.952 505.705 225.532C504.961 225.1 504.373 224.5 503.941 223.732C503.521 222.952 503.311 222.052 503.311 221.032C503.311 220.012 503.515 219.118 503.923 218.35C504.343 217.57 504.925 216.97 505.669 216.55C506.425 216.13 507.289 215.92 508.261 215.92C509.197 215.92 510.031 216.124 510.763 216.532C511.495 216.94 512.065 217.516 512.473 218.26C512.881 218.992 513.085 219.838 513.085 220.798ZM510.943 220.15C510.931 219.394 510.661 218.788 510.133 218.332C509.605 217.876 508.951 217.648 508.171 217.648C507.463 217.648 506.857 217.876 506.353 218.332C505.849 218.776 505.549 219.382 505.453 220.15H510.943ZM517.678 217.756V223.246C517.678 223.618 517.762 223.888 517.93 224.056C518.11 224.212 518.41 224.29 518.83 224.29H520.09V226H518.47C517.546 226 516.838 225.784 516.346 225.352C515.854 224.92 515.608 224.218 515.608 223.246V217.756H514.438V216.082H515.608V213.616H517.678V216.082H520.09V217.756H517.678ZM531.143 216.082V226H529.091V224.83C528.767 225.238 528.341 225.562 527.813 225.802C527.297 226.03 526.745 226.144 526.157 226.144C525.377 226.144 524.675 225.982 524.051 225.658C523.439 225.334 522.953 224.854 522.593 224.218C522.245 223.582 522.071 222.814 522.071 221.914V216.082H524.105V221.608C524.105 222.496 524.327 223.18 524.771 223.66C525.215 224.128 525.821 224.362 526.589 224.362C527.357 224.362 527.963 224.128 528.407 223.66C528.863 223.18 529.091 222.496 529.091 221.608V216.082H531.143ZM536.083 217.522C536.383 217.018 536.779 216.628 537.271 216.352C537.775 216.064 538.369 215.92 539.053 215.92V218.044H538.531C537.727 218.044 537.115 218.248 536.695 218.656C536.287 219.064 536.083 219.772 536.083 220.78V226H534.031V216.082H536.083V217.522ZM167.685 256.996C167.685 256 167.889 255.118 168.297 254.35C168.717 253.582 169.281 252.988 169.989 252.568C170.709 252.136 171.501 251.92 172.365 251.92C173.145 251.92 173.823 252.076 174.399 252.388C174.987 252.688 175.455 253.066 175.803 253.522V252.082H177.873V262H175.803V260.524C175.455 260.992 174.981 261.382 174.381 261.694C173.781 262.006 173.097 262.162 172.329 262.162C171.477 262.162 170.697 261.946 169.989 261.514C169.281 261.07 168.717 260.458 168.297 259.678C167.889 258.886 167.685 257.992 167.685 256.996ZM175.803 257.032C175.803 256.348 175.659 255.754 175.371 255.25C175.095 254.746 174.729 254.362 174.273 254.098C173.817 253.834 173.325 253.702 172.797 253.702C172.269 253.702 171.777 253.834 171.321 254.098C170.865 254.35 170.493 254.728 170.205 255.232C169.929 255.724 169.791 256.312 169.791 256.996C169.791 257.68 169.929 258.28 170.205 258.796C170.493 259.312 170.865 259.708 171.321 259.984C171.789 260.248 172.281 260.38 172.797 260.38C173.325 260.38 173.817 260.248 174.273 259.984C174.729 259.72 175.095 259.336 175.371 258.832C175.659 258.316 175.803 257.716 175.803 257.032ZM180.064 256.996C180.064 256 180.268 255.118 180.676 254.35C181.096 253.582 181.66 252.988 182.368 252.568C183.088 252.136 183.886 251.92 184.762 251.92C185.41 251.92 186.046 252.064 186.67 252.352C187.306 252.628 187.81 253 188.182 253.468V248.68H190.252V262H188.182V260.506C187.846 260.986 187.378 261.382 186.778 261.694C186.19 262.006 185.512 262.162 184.744 262.162C183.88 262.162 183.088 261.946 182.368 261.514C181.66 261.07 181.096 260.458 180.676 259.678C180.268 258.886 180.064 257.992 180.064 256.996ZM188.182 257.032C188.182 256.348 188.038 255.754 187.75 255.25C187.474 254.746 187.108 254.362 186.652 254.098C186.196 253.834 185.704 253.702 185.176 253.702C184.648 253.702 184.156 253.834 183.7 254.098C183.244 254.35 182.872 254.728 182.584 255.232C182.308 255.724 182.17 256.312 182.17 256.996C182.17 257.68 182.308 258.28 182.584 258.796C182.872 259.312 183.244 259.708 183.7 259.984C184.168 260.248 184.66 260.38 185.176 260.38C185.704 260.38 186.196 260.248 186.652 259.984C187.108 259.72 187.474 259.336 187.75 258.832C188.038 258.316 188.182 257.716 188.182 257.032ZM194.171 250.768C193.799 250.768 193.487 250.642 193.235 250.39C192.983 250.138 192.857 249.826 192.857 249.454C192.857 249.082 192.983 248.77 193.235 248.518C193.487 248.266 193.799 248.14 194.171 248.14C194.531 248.14 194.837 248.266 195.089 248.518C195.341 248.77 195.467 249.082 195.467 249.454C195.467 249.826 195.341 250.138 195.089 250.39C194.837 250.642 194.531 250.768 194.171 250.768ZM195.179 252.082V262H193.127V252.082H195.179ZM200.105 253.54C200.453 253.084 200.927 252.7 201.527 252.388C202.127 252.076 202.805 251.92 203.561 251.92C204.425 251.92 205.211 252.136 205.919 252.568C206.639 252.988 207.203 253.582 207.611 254.35C208.019 255.118 208.223 256 208.223 256.996C208.223 257.992 208.019 258.886 207.611 259.678C207.203 260.458 206.639 261.07 205.919 261.514C205.211 261.946 204.425 262.162 203.561 262.162C202.805 262.162 202.133 262.012 201.545 261.712C200.957 261.4 200.477 261.016 200.105 260.56V266.716H198.053V252.082H200.105V253.54ZM206.135 256.996C206.135 256.312 205.991 255.724 205.703 255.232C205.427 254.728 205.055 254.35 204.587 254.098C204.131 253.834 203.639 253.702 203.111 253.702C202.595 253.702 202.103 253.834 201.635 254.098C201.179 254.362 200.807 254.746 200.519 255.25C200.243 255.754 200.105 256.348 200.105 257.032C200.105 257.716 200.243 258.316 200.519 258.832C200.807 259.336 201.179 259.72 201.635 259.984C202.103 260.248 202.595 260.38 203.111 260.38C203.639 260.38 204.131 260.248 204.587 259.984C205.055 259.708 205.427 259.312 205.703 258.796C205.991 258.28 206.135 257.68 206.135 256.996ZM211.476 250.768C211.104 250.768 210.792 250.642 210.54 250.39C210.288 250.138 210.162 249.826 210.162 249.454C210.162 249.082 210.288 248.77 210.54 248.518C210.792 248.266 211.104 248.14 211.476 248.14C211.836 248.14 212.142 248.266 212.394 248.518C212.646 248.77 212.772 249.082 212.772 249.454C212.772 249.826 212.646 250.138 212.394 250.39C212.142 250.642 211.836 250.768 211.476 250.768ZM212.484 252.082V262H210.432V252.082H212.484ZM218.958 262.162C218.178 262.162 217.476 262.024 216.852 261.748C216.24 261.46 215.754 261.076 215.394 260.596C215.034 260.104 214.842 259.558 214.818 258.958H216.942C216.978 259.378 217.176 259.732 217.536 260.02C217.908 260.296 218.37 260.434 218.922 260.434C219.498 260.434 219.942 260.326 220.254 260.11C220.578 259.882 220.74 259.594 220.74 259.246C220.74 258.874 220.56 258.598 220.2 258.418C219.852 258.238 219.294 258.04 218.526 257.824C217.782 257.62 217.176 257.422 216.708 257.23C216.24 257.038 215.832 256.744 215.484 256.348C215.148 255.952 214.98 255.43 214.98 254.782C214.98 254.254 215.136 253.774 215.448 253.342C215.76 252.898 216.204 252.55 216.78 252.298C217.368 252.046 218.04 251.92 218.796 251.92C219.924 251.92 220.83 252.208 221.514 252.784C222.21 253.348 222.582 254.122 222.63 255.106H220.578C220.542 254.662 220.362 254.308 220.038 254.044C219.714 253.78 219.276 253.648 218.724 253.648C218.184 253.648 217.77 253.75 217.482 253.954C217.194 254.158 217.05 254.428 217.05 254.764C217.05 255.028 217.146 255.25 217.338 255.43C217.53 255.61 217.764 255.754 218.04 255.862C218.316 255.958 218.724 256.084 219.264 256.24C219.984 256.432 220.572 256.63 221.028 256.834C221.496 257.026 221.898 257.314 222.234 257.698C222.57 258.082 222.744 258.592 222.756 259.228C222.756 259.792 222.6 260.296 222.288 260.74C221.976 261.184 221.532 261.532 220.956 261.784C220.392 262.036 219.726 262.162 218.958 262.162ZM224.47 257.032C224.47 256.012 224.674 255.118 225.082 254.35C225.502 253.57 226.078 252.97 226.81 252.55C227.542 252.13 228.382 251.92 229.33 251.92C230.53 251.92 231.52 252.208 232.3 252.784C233.092 253.348 233.626 254.158 233.902 255.214H231.688C231.508 254.722 231.22 254.338 230.824 254.062C230.428 253.786 229.93 253.648 229.33 253.648C228.49 253.648 227.818 253.948 227.314 254.548C226.822 255.136 226.576 255.964 226.576 257.032C226.576 258.1 226.822 258.934 227.314 259.534C227.818 260.134 228.49 260.434 229.33 260.434C230.518 260.434 231.304 259.912 231.688 258.868H233.902C233.614 259.876 233.074 260.68 232.282 261.28C231.49 261.868 230.506 262.162 229.33 262.162C228.382 262.162 227.542 261.952 226.81 261.532C226.078 261.1 225.502 260.5 225.082 259.732C224.674 258.952 224.47 258.052 224.47 257.032ZM237.171 250.768C236.799 250.768 236.487 250.642 236.235 250.39C235.983 250.138 235.857 249.826 235.857 249.454C235.857 249.082 235.983 248.77 236.235 248.518C236.487 248.266 236.799 248.14 237.171 248.14C237.531 248.14 237.837 248.266 238.089 248.518C238.341 248.77 238.467 249.082 238.467 249.454C238.467 249.826 238.341 250.138 238.089 250.39C237.837 250.642 237.531 250.768 237.171 250.768ZM238.179 252.082V262H236.127V252.082H238.179ZM246.057 251.92C246.837 251.92 247.533 252.082 248.145 252.406C248.769 252.73 249.255 253.21 249.603 253.846C249.951 254.482 250.125 255.25 250.125 256.15V262H248.091V256.456C248.091 255.568 247.869 254.89 247.425 254.422C246.981 253.942 246.375 253.702 245.607 253.702C244.839 253.702 244.227 253.942 243.771 254.422C243.327 254.89 243.105 255.568 243.105 256.456V262H241.053V252.082H243.105V253.216C243.441 252.808 243.867 252.49 244.383 252.262C244.911 252.034 245.469 251.92 246.057 251.92ZM256.918 251.92C257.686 251.92 258.364 252.076 258.952 252.388C259.552 252.688 260.02 253.066 260.356 253.522V252.082H262.426V262.162C262.426 263.074 262.234 263.884 261.85 264.592C261.466 265.312 260.908 265.876 260.176 266.284C259.456 266.692 258.592 266.896 257.584 266.896C256.24 266.896 255.124 266.578 254.236 265.942C253.348 265.318 252.844 264.466 252.724 263.386H254.758C254.914 263.902 255.244 264.316 255.748 264.628C256.264 264.952 256.876 265.114 257.584 265.114C258.412 265.114 259.078 264.862 259.582 264.358C260.098 263.854 260.356 263.122 260.356 262.162V260.506C260.008 260.974 259.534 261.37 258.934 261.694C258.346 262.006 257.674 262.162 256.918 262.162C256.054 262.162 255.262 261.946 254.542 261.514C253.834 261.07 253.27 260.458 252.85 259.678C252.442 258.886 252.238 257.992 252.238 256.996C252.238 256 252.442 255.118 252.85 254.35C253.27 253.582 253.834 252.988 254.542 252.568C255.262 252.136 256.054 251.92 256.918 251.92ZM260.356 257.032C260.356 256.348 260.212 255.754 259.924 255.25C259.648 254.746 259.282 254.362 258.826 254.098C258.37 253.834 257.878 253.702 257.35 253.702C256.822 253.702 256.33 253.834 255.874 254.098C255.418 254.35 255.046 254.728 254.758 255.232C254.482 255.724 254.344 256.312 254.344 256.996C254.344 257.68 254.482 258.28 254.758 258.796C255.046 259.312 255.418 259.708 255.874 259.984C256.342 260.248 256.834 260.38 257.35 260.38C257.878 260.38 258.37 260.248 258.826 259.984C259.282 259.72 259.648 259.336 259.924 258.832C260.212 258.316 260.356 257.716 260.356 257.032ZM279.247 256.798C279.247 257.17 279.223 257.506 279.175 257.806H271.597C271.657 258.598 271.951 259.234 272.479 259.714C273.007 260.194 273.655 260.434 274.423 260.434C275.527 260.434 276.307 259.972 276.763 259.048H278.977C278.677 259.96 278.131 260.71 277.339 261.298C276.559 261.874 275.587 262.162 274.423 262.162C273.475 262.162 272.623 261.952 271.867 261.532C271.123 261.1 270.535 260.5 270.103 259.732C269.683 258.952 269.473 258.052 269.473 257.032C269.473 256.012 269.677 255.118 270.085 254.35C270.505 253.57 271.087 252.97 271.831 252.55C272.587 252.13 273.451 251.92 274.423 251.92C275.359 251.92 276.193 252.124 276.925 252.532C277.657 252.94 278.227 253.516 278.635 254.26C279.043 254.992 279.247 255.838 279.247 256.798ZM277.105 256.15C277.093 255.394 276.823 254.788 276.295 254.332C275.767 253.876 275.113 253.648 274.333 253.648C273.625 253.648 273.019 253.876 272.515 254.332C272.011 254.776 271.711 255.382 271.615 256.15H277.105ZM283.499 248.68V262H281.447V248.68H283.499ZM287.417 250.768C287.045 250.768 286.733 250.642 286.481 250.39C286.229 250.138 286.103 249.826 286.103 249.454C286.103 249.082 286.229 248.77 286.481 248.518C286.733 248.266 287.045 248.14 287.417 248.14C287.777 248.14 288.083 248.266 288.335 248.518C288.587 248.77 288.713 249.082 288.713 249.454C288.713 249.826 288.587 250.138 288.335 250.39C288.083 250.642 287.777 250.768 287.417 250.768ZM288.425 252.082V262H286.373V252.082H288.425ZM293.693 253.756V259.246C293.693 259.618 293.777 259.888 293.945 260.056C294.125 260.212 294.425 260.29 294.845 260.29H296.105V262H294.485C293.561 262 292.853 261.784 292.361 261.352C291.869 260.92 291.623 260.218 291.623 259.246V253.756H290.453V252.082H291.623V249.616H293.693V252.082H296.105V253.756H293.693ZM300.426 259.534L298.248 264.502H296.916L298.194 259.534H300.426ZM310.855 262.162C310.075 262.162 309.373 262.024 308.749 261.748C308.137 261.46 307.651 261.076 307.291 260.596C306.931 260.104 306.739 259.558 306.715 258.958H308.839C308.875 259.378 309.073 259.732 309.433 260.02C309.805 260.296 310.267 260.434 310.819 260.434C311.395 260.434 311.839 260.326 312.151 260.11C312.475 259.882 312.637 259.594 312.637 259.246C312.637 258.874 312.457 258.598 312.097 258.418C311.749 258.238 311.191 258.04 310.423 257.824C309.679 257.62 309.073 257.422 308.605 257.23C308.137 257.038 307.729 256.744 307.381 256.348C307.045 255.952 306.877 255.43 306.877 254.782C306.877 254.254 307.033 253.774 307.345 253.342C307.657 252.898 308.101 252.55 308.677 252.298C309.265 252.046 309.937 251.92 310.693 251.92C311.821 251.92 312.727 252.208 313.411 252.784C314.107 253.348 314.479 254.122 314.527 255.106H312.475C312.439 254.662 312.259 254.308 311.935 254.044C311.611 253.78 311.173 253.648 310.621 253.648C310.081 253.648 309.667 253.75 309.379 253.954C309.091 254.158 308.947 254.428 308.947 254.764C308.947 255.028 309.043 255.25 309.235 255.43C309.427 255.61 309.661 255.754 309.937 255.862C310.213 255.958 310.621 256.084 311.161 256.24C311.881 256.432 312.469 256.63 312.925 256.834C313.393 257.026 313.795 257.314 314.131 257.698C314.467 258.082 314.641 258.592 314.653 259.228C314.653 259.792 314.497 260.296 314.185 260.74C313.873 261.184 313.429 261.532 312.853 261.784C312.289 262.036 311.623 262.162 310.855 262.162ZM326.14 256.798C326.14 257.17 326.116 257.506 326.068 257.806H318.49C318.55 258.598 318.844 259.234 319.372 259.714C319.9 260.194 320.548 260.434 321.316 260.434C322.42 260.434 323.2 259.972 323.656 259.048H325.87C325.57 259.96 325.024 260.71 324.232 261.298C323.452 261.874 322.48 262.162 321.316 262.162C320.368 262.162 319.516 261.952 318.76 261.532C318.016 261.1 317.428 260.5 316.996 259.732C316.576 258.952 316.366 258.052 316.366 257.032C316.366 256.012 316.57 255.118 316.978 254.35C317.398 253.57 317.98 252.97 318.724 252.55C319.48 252.13 320.344 251.92 321.316 251.92C322.252 251.92 323.086 252.124 323.818 252.532C324.55 252.94 325.12 253.516 325.528 254.26C325.936 254.992 326.14 255.838 326.14 256.798ZM323.998 256.15C323.986 255.394 323.716 254.788 323.188 254.332C322.66 253.876 322.006 253.648 321.226 253.648C320.518 253.648 319.912 253.876 319.408 254.332C318.904 254.776 318.604 255.382 318.508 256.15H323.998ZM327.655 256.996C327.655 256 327.859 255.118 328.267 254.35C328.687 253.582 329.251 252.988 329.959 252.568C330.679 252.136 331.477 251.92 332.353 251.92C333.001 251.92 333.637 252.064 334.261 252.352C334.897 252.628 335.401 253 335.773 253.468V248.68H337.843V262H335.773V260.506C335.437 260.986 334.969 261.382 334.369 261.694C333.781 262.006 333.103 262.162 332.335 262.162C331.471 262.162 330.679 261.946 329.959 261.514C329.251 261.07 328.687 260.458 328.267 259.678C327.859 258.886 327.655 257.992 327.655 256.996ZM335.773 257.032C335.773 256.348 335.629 255.754 335.341 255.25C335.065 254.746 334.699 254.362 334.243 254.098C333.787 253.834 333.295 253.702 332.767 253.702C332.239 253.702 331.747 253.834 331.291 254.098C330.835 254.35 330.463 254.728 330.175 255.232C329.899 255.724 329.761 256.312 329.761 256.996C329.761 257.68 329.899 258.28 330.175 258.796C330.463 259.312 330.835 259.708 331.291 259.984C331.759 260.248 332.251 260.38 332.767 260.38C333.295 260.38 333.787 260.248 334.243 259.984C334.699 259.72 335.065 259.336 335.341 258.832C335.629 258.316 335.773 257.716 335.773 257.032ZM344.89 256.996C344.89 256 345.094 255.118 345.502 254.35C345.922 253.582 346.486 252.988 347.194 252.568C347.914 252.136 348.712 251.92 349.588 251.92C350.236 251.92 350.872 252.064 351.496 252.352C352.132 252.628 352.636 253 353.008 253.468V248.68H355.078V262H353.008V260.506C352.672 260.986 352.204 261.382 351.604 261.694C351.016 262.006 350.338 262.162 349.57 262.162C348.706 262.162 347.914 261.946 347.194 261.514C346.486 261.07 345.922 260.458 345.502 259.678C345.094 258.886 344.89 257.992 344.89 256.996ZM353.008 257.032C353.008 256.348 352.864 255.754 352.576 255.25C352.3 254.746 351.934 254.362 351.478 254.098C351.022 253.834 350.53 253.702 350.002 253.702C349.474 253.702 348.982 253.834 348.526 254.098C348.07 254.35 347.698 254.728 347.41 255.232C347.134 255.724 346.996 256.312 346.996 256.996C346.996 257.68 347.134 258.28 347.41 258.796C347.698 259.312 348.07 259.708 348.526 259.984C348.994 260.248 349.486 260.38 350.002 260.38C350.53 260.38 351.022 260.248 351.478 259.984C351.934 259.72 352.3 259.336 352.576 258.832C352.864 258.316 353.008 257.716 353.008 257.032ZM362.256 262.162C361.32 262.162 360.474 261.952 359.718 261.532C358.962 261.1 358.368 260.5 357.936 259.732C357.504 258.952 357.288 258.052 357.288 257.032C357.288 256.024 357.51 255.13 357.954 254.35C358.398 253.57 359.004 252.97 359.772 252.55C360.54 252.13 361.398 251.92 362.346 251.92C363.294 251.92 364.152 252.13 364.92 252.55C365.688 252.97 366.294 253.57 366.738 254.35C367.182 255.13 367.404 256.024 367.404 257.032C367.404 258.04 367.176 258.934 366.72 259.714C366.264 260.494 365.64 261.1 364.848 261.532C364.068 261.952 363.204 262.162 362.256 262.162ZM362.256 260.38C362.784 260.38 363.276 260.254 363.732 260.002C364.2 259.75 364.578 259.372 364.866 258.868C365.154 258.364 365.298 257.752 365.298 257.032C365.298 256.312 365.16 255.706 364.884 255.214C364.608 254.71 364.242 254.332 363.786 254.08C363.33 253.828 362.838 253.702 362.31 253.702C361.782 253.702 361.29 253.828 360.834 254.08C360.39 254.332 360.036 254.71 359.772 255.214C359.508 255.706 359.376 256.312 359.376 257.032C359.376 258.1 359.646 258.928 360.186 259.516C360.738 260.092 361.428 260.38 362.256 260.38ZM383.558 256.798C383.558 257.17 383.534 257.506 383.486 257.806H375.908C375.968 258.598 376.262 259.234 376.79 259.714C377.318 260.194 377.966 260.434 378.734 260.434C379.838 260.434 380.618 259.972 381.074 259.048H383.288C382.988 259.96 382.442 260.71 381.65 261.298C380.87 261.874 379.898 262.162 378.734 262.162C377.786 262.162 376.934 261.952 376.178 261.532C375.434 261.1 374.846 260.5 374.414 259.732C373.994 258.952 373.784 258.052 373.784 257.032C373.784 256.012 373.988 255.118 374.396 254.35C374.816 253.57 375.398 252.97 376.142 252.55C376.898 252.13 377.762 251.92 378.734 251.92C379.67 251.92 380.504 252.124 381.236 252.532C381.968 252.94 382.538 253.516 382.946 254.26C383.354 254.992 383.558 255.838 383.558 256.798ZM381.416 256.15C381.404 255.394 381.134 254.788 380.606 254.332C380.078 253.876 379.424 253.648 378.644 253.648C377.936 253.648 377.33 253.876 376.826 254.332C376.322 254.776 376.022 255.382 375.926 256.15H381.416ZM386.801 250.768C386.429 250.768 386.117 250.642 385.865 250.39C385.613 250.138 385.487 249.826 385.487 249.454C385.487 249.082 385.613 248.77 385.865 248.518C386.117 248.266 386.429 248.14 386.801 248.14C387.161 248.14 387.467 248.266 387.719 248.518C387.971 248.77 388.097 249.082 388.097 249.454C388.097 249.826 387.971 250.138 387.719 250.39C387.467 250.642 387.161 250.768 386.801 250.768ZM387.809 252.082V262H385.757V252.082H387.809ZM399.665 252.082V262H397.613V260.83C397.289 261.238 396.863 261.562 396.335 261.802C395.819 262.03 395.267 262.144 394.679 262.144C393.899 262.144 393.197 261.982 392.573 261.658C391.961 261.334 391.475 260.854 391.115 260.218C390.767 259.582 390.593 258.814 390.593 257.914V252.082H392.627V257.608C392.627 258.496 392.849 259.18 393.293 259.66C393.737 260.128 394.343 260.362 395.111 260.362C395.879 260.362 396.485 260.128 396.929 259.66C397.385 259.18 397.613 258.496 397.613 257.608V252.082H399.665ZM406.153 262.162C405.373 262.162 404.671 262.024 404.047 261.748C403.435 261.46 402.949 261.076 402.589 260.596C402.229 260.104 402.037 259.558 402.013 258.958H404.137C404.173 259.378 404.371 259.732 404.731 260.02C405.103 260.296 405.565 260.434 406.117 260.434C406.693 260.434 407.137 260.326 407.449 260.11C407.773 259.882 407.935 259.594 407.935 259.246C407.935 258.874 407.755 258.598 407.395 258.418C407.047 258.238 406.489 258.04 405.721 257.824C404.977 257.62 404.371 257.422 403.903 257.23C403.435 257.038 403.027 256.744 402.679 256.348C402.343 255.952 402.175 255.43 402.175 254.782C402.175 254.254 402.331 253.774 402.643 253.342C402.955 252.898 403.399 252.55 403.975 252.298C404.563 252.046 405.235 251.92 405.991 251.92C407.119 251.92 408.025 252.208 408.709 252.784C409.405 253.348 409.777 254.122 409.825 255.106H407.773C407.737 254.662 407.557 254.308 407.233 254.044C406.909 253.78 406.471 253.648 405.919 253.648C405.379 253.648 404.965 253.75 404.677 253.954C404.389 254.158 404.245 254.428 404.245 254.764C404.245 255.028 404.341 255.25 404.533 255.43C404.725 255.61 404.959 255.754 405.235 255.862C405.511 255.958 405.919 256.084 406.459 256.24C407.179 256.432 407.767 256.63 408.223 256.834C408.691 257.026 409.093 257.314 409.429 257.698C409.765 258.082 409.939 258.592 409.951 259.228C409.951 259.792 409.795 260.296 409.483 260.74C409.171 261.184 408.727 261.532 408.151 261.784C407.587 262.036 406.921 262.162 406.153 262.162ZM424.354 251.92C425.134 251.92 425.83 252.082 426.442 252.406C427.066 252.73 427.552 253.21 427.9 253.846C428.26 254.482 428.44 255.25 428.44 256.15V262H426.406V256.456C426.406 255.568 426.184 254.89 425.74 254.422C425.296 253.942 424.69 253.702 423.922 253.702C423.154 253.702 422.542 253.942 422.086 254.422C421.642 254.89 421.42 255.568 421.42 256.456V262H419.386V256.456C419.386 255.568 419.164 254.89 418.72 254.422C418.276 253.942 417.67 253.702 416.902 253.702C416.134 253.702 415.522 253.942 415.066 254.422C414.622 254.89 414.4 255.568 414.4 256.456V262H412.348V252.082H414.4V253.216C414.736 252.808 415.162 252.49 415.678 252.262C416.194 252.034 416.746 251.92 417.334 251.92C418.126 251.92 418.834 252.088 419.458 252.424C420.082 252.76 420.562 253.246 420.898 253.882C421.198 253.282 421.666 252.808 422.302 252.46C422.938 252.1 423.622 251.92 424.354 251.92ZM435.533 262.162C434.597 262.162 433.751 261.952 432.995 261.532C432.239 261.1 431.645 260.5 431.213 259.732C430.781 258.952 430.565 258.052 430.565 257.032C430.565 256.024 430.787 255.13 431.231 254.35C431.675 253.57 432.281 252.97 433.049 252.55C433.817 252.13 434.675 251.92 435.623 251.92C436.571 251.92 437.429 252.13 438.197 252.55C438.965 252.97 439.571 253.57 440.015 254.35C440.459 255.13 440.681 256.024 440.681 257.032C440.681 258.04 440.453 258.934 439.997 259.714C439.541 260.494 438.917 261.1 438.125 261.532C437.345 261.952 436.481 262.162 435.533 262.162ZM435.533 260.38C436.061 260.38 436.553 260.254 437.009 260.002C437.477 259.75 437.855 259.372 438.143 258.868C438.431 258.364 438.575 257.752 438.575 257.032C438.575 256.312 438.437 255.706 438.161 255.214C437.885 254.71 437.519 254.332 437.063 254.08C436.607 253.828 436.115 253.702 435.587 253.702C435.059 253.702 434.567 253.828 434.111 254.08C433.667 254.332 433.313 254.71 433.049 255.214C432.785 255.706 432.653 256.312 432.653 257.032C432.653 258.1 432.923 258.928 433.463 259.516C434.015 260.092 434.705 260.38 435.533 260.38ZM442.206 256.996C442.206 256 442.41 255.118 442.818 254.35C443.238 253.582 443.802 252.988 444.51 252.568C445.23 252.136 446.028 251.92 446.904 251.92C447.552 251.92 448.188 252.064 448.812 252.352C449.448 252.628 449.952 253 450.324 253.468V248.68H452.394V262H450.324V260.506C449.988 260.986 449.52 261.382 448.92 261.694C448.332 262.006 447.654 262.162 446.886 262.162C446.022 262.162 445.23 261.946 444.51 261.514C443.802 261.07 443.238 260.458 442.818 259.678C442.41 258.886 442.206 257.992 442.206 256.996ZM450.324 257.032C450.324 256.348 450.18 255.754 449.892 255.25C449.616 254.746 449.25 254.362 448.794 254.098C448.338 253.834 447.846 253.702 447.318 253.702C446.79 253.702 446.298 253.834 445.842 254.098C445.386 254.35 445.014 254.728 444.726 255.232C444.45 255.724 444.312 256.312 444.312 256.996C444.312 257.68 444.45 258.28 444.726 258.796C445.014 259.312 445.386 259.708 445.842 259.984C446.31 260.248 446.802 260.38 447.318 260.38C447.846 260.38 448.338 260.248 448.794 259.984C449.25 259.72 449.616 259.336 449.892 258.832C450.18 258.316 450.324 257.716 450.324 257.032ZM462.519 253.756V259.246C462.519 259.618 462.603 259.888 462.771 260.056C462.951 260.212 463.251 260.29 463.671 260.29H464.931V262H463.311C462.387 262 461.679 261.784 461.187 261.352C460.695 260.92 460.449 260.218 460.449 259.246V253.756H459.279V252.082H460.449V249.616H462.519V252.082H464.931V253.756H462.519ZM476.092 256.798C476.092 257.17 476.068 257.506 476.02 257.806H468.442C468.502 258.598 468.796 259.234 469.324 259.714C469.852 260.194 470.5 260.434 471.268 260.434C472.372 260.434 473.152 259.972 473.608 259.048H475.822C475.522 259.96 474.976 260.71 474.184 261.298C473.404 261.874 472.432 262.162 471.268 262.162C470.32 262.162 469.468 261.952 468.712 261.532C467.968 261.1 467.38 260.5 466.948 259.732C466.528 258.952 466.318 258.052 466.318 257.032C466.318 256.012 466.522 255.118 466.93 254.35C467.35 253.57 467.932 252.97 468.676 252.55C469.432 252.13 470.296 251.92 471.268 251.92C472.204 251.92 473.038 252.124 473.77 252.532C474.502 252.94 475.072 253.516 475.48 254.26C475.888 254.992 476.092 255.838 476.092 256.798ZM473.95 256.15C473.938 255.394 473.668 254.788 473.14 254.332C472.612 253.876 471.958 253.648 471.178 253.648C470.47 253.648 469.864 253.876 469.36 254.332C468.856 254.776 468.556 255.382 468.46 256.15H473.95ZM490.297 251.92C491.077 251.92 491.773 252.082 492.385 252.406C493.009 252.73 493.495 253.21 493.843 253.846C494.203 254.482 494.383 255.25 494.383 256.15V262H492.349V256.456C492.349 255.568 492.127 254.89 491.683 254.422C491.239 253.942 490.633 253.702 489.865 253.702C489.097 253.702 488.485 253.942 488.029 254.422C487.585 254.89 487.363 255.568 487.363 256.456V262H485.329V256.456C485.329 255.568 485.107 254.89 484.663 254.422C484.219 253.942 483.613 253.702 482.845 253.702C482.077 253.702 481.465 253.942 481.009 254.422C480.565 254.89 480.343 255.568 480.343 256.456V262H478.291V252.082H480.343V253.216C480.679 252.808 481.105 252.49 481.621 252.262C482.137 252.034 482.689 251.92 483.277 251.92C484.069 251.92 484.777 252.088 485.401 252.424C486.025 252.76 486.505 253.246 486.841 253.882C487.141 253.282 487.609 252.808 488.245 252.46C488.881 252.1 489.565 251.92 490.297 251.92ZM499.226 253.54C499.574 253.084 500.048 252.7 500.648 252.388C501.248 252.076 501.926 251.92 502.682 251.92C503.546 251.92 504.332 252.136 505.04 252.568C505.76 252.988 506.324 253.582 506.732 254.35C507.14 255.118 507.344 256 507.344 256.996C507.344 257.992 507.14 258.886 506.732 259.678C506.324 260.458 505.76 261.07 505.04 261.514C504.332 261.946 503.546 262.162 502.682 262.162C501.926 262.162 501.254 262.012 500.666 261.712C500.078 261.4 499.598 261.016 499.226 260.56V266.716H497.174V252.082H499.226V253.54ZM505.256 256.996C505.256 256.312 505.112 255.724 504.824 255.232C504.548 254.728 504.176 254.35 503.708 254.098C503.252 253.834 502.76 253.702 502.232 253.702C501.716 253.702 501.224 253.834 500.756 254.098C500.3 254.362 499.928 254.746 499.64 255.25C499.364 255.754 499.226 256.348 499.226 257.032C499.226 257.716 499.364 258.316 499.64 258.832C499.928 259.336 500.3 259.72 500.756 259.984C501.224 260.248 501.716 260.38 502.232 260.38C502.76 260.38 503.252 260.248 503.708 259.984C504.176 259.708 504.548 259.312 504.824 258.796C505.112 258.28 505.256 257.68 505.256 256.996ZM513.856 262.162C512.92 262.162 512.074 261.952 511.318 261.532C510.562 261.1 509.968 260.5 509.536 259.732C509.104 258.952 508.888 258.052 508.888 257.032C508.888 256.024 509.11 255.13 509.554 254.35C509.998 253.57 510.604 252.97 511.372 252.55C512.14 252.13 512.998 251.92 513.946 251.92C514.894 251.92 515.752 252.13 516.52 252.55C517.288 252.97 517.894 253.57 518.338 254.35C518.782 255.13 519.004 256.024 519.004 257.032C519.004 258.04 518.776 258.934 518.32 259.714C517.864 260.494 517.24 261.1 516.448 261.532C515.668 261.952 514.804 262.162 513.856 262.162ZM513.856 260.38C514.384 260.38 514.876 260.254 515.332 260.002C515.8 259.75 516.178 259.372 516.466 258.868C516.754 258.364 516.898 257.752 516.898 257.032C516.898 256.312 516.76 255.706 516.484 255.214C516.208 254.71 515.842 254.332 515.386 254.08C514.93 253.828 514.438 253.702 513.91 253.702C513.382 253.702 512.89 253.828 512.434 254.08C511.99 254.332 511.636 254.71 511.372 255.214C511.108 255.706 510.976 256.312 510.976 257.032C510.976 258.1 511.246 258.928 511.786 259.516C512.338 260.092 513.028 260.38 513.856 260.38ZM523.264 253.522C523.564 253.018 523.96 252.628 524.452 252.352C524.956 252.064 525.55 251.92 526.234 251.92V254.044H525.712C524.908 254.044 524.296 254.248 523.876 254.656C523.468 255.064 523.264 255.772 523.264 256.78V262H521.212V252.082H523.264V253.522ZM536.756 262.162C535.976 262.162 535.274 262.024 534.65 261.748C534.038 261.46 533.552 261.076 533.192 260.596C532.832 260.104 532.64 259.558 532.616 258.958H534.74C534.776 259.378 534.974 259.732 535.334 260.02C535.706 260.296 536.168 260.434 536.72 260.434C537.296 260.434 537.74 260.326 538.052 260.11C538.376 259.882 538.538 259.594 538.538 259.246C538.538 258.874 538.358 258.598 537.998 258.418C537.65 258.238 537.092 258.04 536.324 257.824C535.58 257.62 534.974 257.422 534.506 257.23C534.038 257.038 533.63 256.744 533.282 256.348C532.946 255.952 532.778 255.43 532.778 254.782C532.778 254.254 532.934 253.774 533.246 253.342C533.558 252.898 534.002 252.55 534.578 252.298C535.166 252.046 535.838 251.92 536.594 251.92C537.722 251.92 538.628 252.208 539.312 252.784C540.008 253.348 540.38 254.122 540.428 255.106H538.376C538.34 254.662 538.16 254.308 537.836 254.044C537.512 253.78 537.074 253.648 536.522 253.648C535.982 253.648 535.568 253.75 535.28 253.954C534.992 254.158 534.848 254.428 534.848 254.764C534.848 255.028 534.944 255.25 535.136 255.43C535.328 255.61 535.562 255.754 535.838 255.862C536.114 255.958 536.522 256.084 537.062 256.24C537.782 256.432 538.37 256.63 538.826 256.834C539.294 257.026 539.696 257.314 540.032 257.698C540.368 258.082 540.542 258.592 540.554 259.228C540.554 259.792 540.398 260.296 540.086 260.74C539.774 261.184 539.33 261.532 538.754 261.784C538.19 262.036 537.524 262.162 536.756 262.162Z" fill="#12082D" fill-opacity="0.7"/>
<path d="M298.924 362.232C298.14 361.48 297.536 360.524 297.112 359.364C296.696 358.204 296.488 356.96 296.488 355.632C296.488 354.272 296.712 352.988 297.16 351.78C297.616 350.572 298.284 349.576 299.164 348.792H300.58V348.924C299.66 349.772 298.968 350.788 298.504 351.972C298.04 353.156 297.808 354.376 297.808 355.632C297.808 356.84 298.024 358.008 298.456 359.136C298.888 360.264 299.516 361.252 300.34 362.1V362.232H298.924ZM301.494 358.44V356.784L305.286 351.36H307.578V356.664H308.562V358.44H307.578V360H305.526V358.44H301.494ZM305.67 353.616L303.654 356.664H305.67V353.616ZM310.731 360.096C310.371 360.096 310.075 359.992 309.843 359.784C309.619 359.568 309.507 359.304 309.507 358.992C309.507 358.672 309.619 358.404 309.843 358.188C310.075 357.972 310.371 357.864 310.731 357.864C311.083 357.864 311.371 357.972 311.595 358.188C311.827 358.404 311.943 358.672 311.943 358.992C311.943 359.304 311.827 359.568 311.595 359.784C311.371 359.992 311.083 360.096 310.731 360.096ZM317.286 353.604C317.222 353.308 317.11 353.088 316.95 352.944C316.79 352.792 316.562 352.716 316.266 352.716C315.81 352.716 315.482 352.916 315.282 353.316C315.082 353.708 314.978 354.332 314.97 355.188C315.146 354.908 315.398 354.688 315.726 354.528C316.062 354.368 316.43 354.288 316.83 354.288C317.614 354.288 318.242 354.536 318.714 355.032C319.194 355.528 319.434 356.22 319.434 357.108C319.434 357.692 319.314 358.204 319.074 358.644C318.842 359.084 318.498 359.428 318.042 359.676C317.594 359.924 317.062 360.048 316.446 360.048C315.214 360.048 314.358 359.664 313.878 358.896C313.398 358.12 313.158 357.008 313.158 355.56C313.158 354.04 313.41 352.912 313.914 352.176C314.426 351.432 315.242 351.06 316.362 351.06C316.962 351.06 317.466 351.18 317.874 351.42C318.29 351.652 318.602 351.96 318.81 352.344C319.026 352.728 319.154 353.148 319.194 353.604H317.286ZM316.338 355.908C315.994 355.908 315.706 356.012 315.474 356.22C315.25 356.42 315.138 356.708 315.138 357.084C315.138 357.468 315.242 357.768 315.45 357.984C315.666 358.2 315.97 358.308 316.362 358.308C316.714 358.308 316.99 358.204 317.19 357.996C317.398 357.78 317.502 357.488 317.502 357.12C317.502 356.744 317.402 356.448 317.202 356.232C317.002 356.016 316.714 355.908 316.338 355.908ZM328.511 348.672L325.247 362.1H323.903L327.155 348.672H328.511ZM338.813 352.428H334.793V354.816C334.961 354.592 335.209 354.404 335.537 354.252C335.873 354.1 336.229 354.024 336.605 354.024C337.277 354.024 337.821 354.168 338.237 354.456C338.661 354.744 338.961 355.108 339.137 355.548C339.321 355.988 339.413 356.452 339.413 356.94C339.413 357.532 339.297 358.06 339.065 358.524C338.841 358.98 338.501 359.34 338.045 359.604C337.597 359.868 337.045 360 336.389 360C335.517 360 334.817 359.784 334.289 359.352C333.761 358.92 333.445 358.348 333.341 357.636H334.673C334.761 358.012 334.957 358.312 335.261 358.536C335.565 358.752 335.945 358.86 336.401 358.86C336.969 358.86 337.393 358.688 337.673 358.344C337.961 358 338.105 357.544 338.105 356.976C338.105 356.4 337.961 355.96 337.673 355.656C337.385 355.344 336.961 355.188 336.401 355.188C336.009 355.188 335.677 355.288 335.405 355.488C335.141 355.68 334.949 355.944 334.829 356.28H333.533V351.228H338.813V352.428ZM341.569 360.084C341.321 360.084 341.113 360 340.945 359.832C340.777 359.664 340.693 359.456 340.693 359.208C340.693 358.96 340.777 358.752 340.945 358.584C341.113 358.416 341.321 358.332 341.569 358.332C341.809 358.332 342.013 358.416 342.181 358.584C342.349 358.752 342.433 358.96 342.433 359.208C342.433 359.456 342.349 359.664 342.181 359.832C342.013 360 341.809 360.084 341.569 360.084ZM343.731 355.512C343.731 354.128 343.963 353.048 344.427 352.272C344.899 351.488 345.707 351.096 346.851 351.096C347.995 351.096 348.799 351.488 349.263 352.272C349.735 353.048 349.971 354.128 349.971 355.512C349.971 356.912 349.735 358.008 349.263 358.8C348.799 359.584 347.995 359.976 346.851 359.976C345.707 359.976 344.899 359.584 344.427 358.8C343.963 358.008 343.731 356.912 343.731 355.512ZM348.627 355.512C348.627 354.864 348.583 354.316 348.495 353.868C348.415 353.42 348.247 353.056 347.991 352.776C347.735 352.488 347.355 352.344 346.851 352.344C346.347 352.344 345.967 352.488 345.711 352.776C345.455 353.056 345.283 353.42 345.195 353.868C345.115 354.316 345.075 354.864 345.075 355.512C345.075 356.184 345.115 356.748 345.195 357.204C345.275 357.66 345.443 358.028 345.699 358.308C345.963 358.588 346.347 358.728 346.851 358.728C347.355 358.728 347.735 358.588 347.991 358.308C348.255 358.028 348.427 357.66 348.507 357.204C348.587 356.748 348.627 356.184 348.627 355.512ZM351.263 362.232V362.1C352.087 361.252 352.715 360.264 353.147 359.136C353.579 358.008 353.795 356.84 353.795 355.632C353.795 354.376 353.563 353.156 353.099 351.972C352.635 350.788 351.943 349.772 351.023 348.924V348.792H352.439C353.319 349.576 353.983 350.572 354.431 351.78C354.887 352.988 355.115 354.272 355.115 355.632C355.115 356.96 354.903 358.204 354.479 359.364C354.063 360.524 353.463 361.48 352.679 362.232H351.263Z" fill="#636366"/>
<path fill-rule="evenodd" clip-rule="evenodd" d="M181.837 363.011C181.704 363.011 181.57 362.981 181.447 362.917L177.144 360.697L172.842 362.917C172.557 363.063 172.213 363.038 171.955 362.851C171.695 362.665 171.566 362.349 171.621 362.036L172.44 357.346L168.963 354.026C168.732 353.805 168.649 353.473 168.747 353.17C168.846 352.868 169.11 352.647 169.429 352.602L174.239 351.912L176.389 347.641C176.674 347.074 177.615 347.074 177.9 347.641L180.05 351.912L184.86 352.602C185.179 352.647 185.443 352.868 185.542 353.17C185.641 353.473 185.557 353.805 185.326 354.026L181.849 357.346L182.669 362.036C182.723 362.349 182.594 362.665 182.334 362.851C182.188 362.958 182.013 363.011 181.837 363.011Z" fill="#FFBB0B"/>
<mask id="mask0_504_445" style="mask-type:alpha" maskUnits="userSpaceOnUse" x="168" y="347" width="18" height="17">
<path fill-rule="evenodd" clip-rule="evenodd" d="M181.837 363.5C181.704 363.5 181.57 363.47 181.447 363.406L177.144 361.186L172.842 363.406C172.557 363.552 172.213 363.527 171.955 363.34C171.695 363.154 171.566 362.838 171.621 362.525L172.44 357.835L168.963 354.515C168.732 354.294 168.649 353.962 168.747 353.659C168.846 353.357 169.11 353.136 169.429 353.091L174.239 352.401L176.389 348.13C176.674 347.563 177.615 347.563 177.9 348.13L180.05 352.401L184.86 353.091C185.179 353.136 185.443 353.357 185.542 353.659C185.641 353.962 185.557 354.294 185.326 354.515L181.849 357.835L182.669 362.525C182.723 362.838 182.594 363.154 182.334 363.34C182.188 363.447 182.013 363.5 181.837 363.5Z" fill="white"/>
</mask>
<g mask="url(#mask0_504_445)">
<rect x="167.019" y="346" width="20.2516" height="20" fill="#FFBB0B"/>
</g>
<path fill-rule="evenodd" clip-rule="evenodd" d="M206.139 363.011C206.006 363.011 205.872 362.981 205.749 362.917L201.446 360.697L197.144 362.917C196.859 363.063 196.515 363.038 196.256 362.851C195.997 362.665 195.867 362.349 195.922 362.036L196.742 357.346L193.265 354.026C193.034 353.805 192.95 353.473 193.049 353.17C193.148 352.868 193.412 352.647 193.731 352.602L198.541 351.912L200.691 347.641C200.976 347.074 201.917 347.074 202.202 347.641L204.352 351.912L209.162 352.602C209.481 352.647 209.745 352.868 209.844 353.17C209.942 353.473 209.859 353.805 209.628 354.026L206.151 357.346L206.97 362.036C207.025 362.349 206.895 362.665 206.636 362.851C206.489 362.958 206.315 363.011 206.139 363.011Z" fill="#FFBB0B"/>
<mask id="mask1_504_445" style="mask-type:alpha" maskUnits="userSpaceOnUse" x="193" y="347" width="17" height="17">
<path fill-rule="evenodd" clip-rule="evenodd" d="M206.139 363.5C206.006 363.5 205.872 363.47 205.749 363.406L201.446 361.186L197.144 363.406C196.859 363.552 196.515 363.527 196.256 363.34C195.997 363.154 195.867 362.838 195.922 362.525L196.742 357.835L193.265 354.515C193.034 354.294 192.95 353.962 193.049 353.659C193.148 353.357 193.412 353.136 193.731 353.091L198.541 352.401L200.691 348.13C200.976 347.563 201.917 347.563 202.202 348.13L204.352 352.401L209.162 353.091C209.481 353.136 209.745 353.357 209.844 353.659C209.942 353.962 209.859 354.294 209.628 354.515L206.151 357.835L206.97 362.525C207.025 362.838 206.895 363.154 206.636 363.34C206.489 363.447 206.315 363.5 206.139 363.5Z" fill="white"/>
</mask>
<g mask="url(#mask1_504_445)">
<rect x="191.32" y="346" width="20.2516" height="20" fill="#FFBB0B"/>
</g>
<path fill-rule="evenodd" clip-rule="evenodd" d="M230.441 363.011C230.308 363.011 230.174 362.981 230.051 362.917L225.748 360.697L221.446 362.917C221.161 363.063 220.817 363.038 220.559 362.851C220.299 362.665 220.17 362.349 220.225 362.036L221.044 357.346L217.567 354.026C217.336 353.805 217.253 353.473 217.351 353.17C217.45 352.868 217.714 352.647 218.033 352.602L222.843 351.912L224.993 347.641C225.278 347.074 226.219 347.074 226.504 347.641L228.654 351.912L233.464 352.602C233.783 352.647 234.047 352.868 234.146 353.17C234.245 353.473 234.161 353.805 233.93 354.026L230.453 357.346L231.273 362.036C231.327 362.349 231.198 362.665 230.938 362.851C230.792 362.958 230.617 363.011 230.441 363.011Z" fill="#FFBB0B"/>
<mask id="mask2_504_445" style="mask-type:alpha" maskUnits="userSpaceOnUse" x="217" y="347" width="18" height="17">
<path fill-rule="evenodd" clip-rule="evenodd" d="M230.441 363.5C230.308 363.5 230.174 363.47 230.051 363.406L225.748 361.186L221.446 363.406C221.161 363.552 220.817 363.527 220.559 363.34C220.299 363.154 220.17 362.838 220.225 362.525L221.044 357.835L217.567 354.515C217.336 354.294 217.253 353.962 217.351 353.659C217.45 353.357 217.714 353.136 218.033 353.091L222.843 352.401L224.993 348.13C225.278 347.563 226.219 347.563 226.504 348.13L228.654 352.401L233.464 353.091C233.783 353.136 234.047 353.357 234.146 353.659C234.245 353.962 234.161 354.294 233.93 354.515L230.453 357.835L231.273 362.525C231.327 362.838 231.198 363.154 230.938 363.34C230.792 363.447 230.617 363.5 230.441 363.5Z" fill="white"/>
</mask>
<g mask="url(#mask2_504_445)">
<rect x="215.623" y="346" width="20.2516" height="20" fill="#FFBB0B"/>
</g>
<path fill-rule="evenodd" clip-rule="evenodd" d="M254.743 363.011C254.61 363.011 254.476 362.981 254.353 362.917L250.05 360.697L245.748 362.917C245.463 363.063 245.119 363.038 244.86 362.851C244.601 362.665 244.471 362.349 244.526 362.036L245.346 357.346L241.869 354.026C241.638 353.805 241.554 353.473 241.653 353.17C241.752 352.868 242.016 352.647 242.335 352.602L247.145 351.912L249.295 347.641C249.58 347.074 250.521 347.074 250.806 347.641L252.956 351.912L257.766 352.602C258.085 352.647 258.349 352.868 258.448 353.17C258.546 353.473 258.463 353.805 258.232 354.026L254.755 357.346L255.574 362.036C255.629 362.349 255.499 362.665 255.24 362.851C255.093 362.958 254.919 363.011 254.743 363.011Z" fill="#FFBB0B"/>
<mask id="mask3_504_445" style="mask-type:alpha" maskUnits="userSpaceOnUse" x="241" y="347" width="18" height="17">
<path fill-rule="evenodd" clip-rule="evenodd" d="M254.743 363.5C254.61 363.5 254.476 363.47 254.353 363.406L250.05 361.186L245.748 363.406C245.463 363.552 245.119 363.527 244.86 363.34C244.601 363.154 244.471 362.838 244.526 362.525L245.346 357.835L241.869 354.515C241.638 354.294 241.554 353.962 241.653 353.659C241.752 353.357 242.016 353.136 242.335 353.091L247.145 352.401L249.295 348.13C249.58 347.563 250.521 347.563 250.806 348.13L252.956 352.401L257.766 353.091C258.085 353.136 258.349 353.357 258.448 353.659C258.546 353.962 258.463 354.294 258.232 354.515L254.755 357.835L255.574 362.525C255.629 362.838 255.499 363.154 255.24 363.34C255.093 363.447 254.919 363.5 254.743 363.5Z" fill="white"/>
</mask>
<g mask="url(#mask3_504_445)">
<rect x="239.924" y="346" width="20.2516" height="20" fill="#FFBB0B"/>
</g>
<path fill-rule="evenodd" clip-rule="evenodd" d="M279.045 363.011C278.912 363.011 278.778 362.981 278.654 362.917L274.352 360.697L270.05 362.917C269.765 363.063 269.42 363.038 269.162 362.851C268.902 362.665 268.773 362.349 268.828 362.036L269.647 357.346L266.171 354.026C265.94 353.805 265.856 353.473 265.955 353.17C266.054 352.868 266.318 352.647 266.637 352.602L271.446 351.912L273.596 347.641C273.882 347.074 274.823 347.074 275.108 347.641L277.258 351.912L282.068 352.602C282.387 352.647 282.651 352.868 282.749 353.17C282.848 353.473 282.765 353.805 282.533 354.026L279.057 357.346L279.876 362.036C279.931 362.349 279.801 362.665 279.542 362.851C279.395 362.958 279.221 363.011 279.045 363.011Z" fill="#C0CCDA"/>
<mask id="mask4_504_445" style="mask-type:alpha" maskUnits="userSpaceOnUse" x="265" y="347" width="18" height="17">
<path fill-rule="evenodd" clip-rule="evenodd" d="M279.045 363.5C278.912 363.5 278.778 363.47 278.654 363.406L274.352 361.186L270.05 363.406C269.765 363.552 269.42 363.527 269.162 363.34C268.902 363.154 268.773 362.838 268.828 362.525L269.647 357.835L266.171 354.515C265.94 354.294 265.856 353.962 265.955 353.659C266.054 353.357 266.318 353.136 266.637 353.091L271.446 352.401L273.596 348.13C273.882 347.563 274.823 347.563 275.108 348.13L277.258 352.401L282.068 353.091C282.387 353.136 282.651 353.357 282.749 353.659C282.848 353.962 282.765 354.294 282.533 354.515L279.057 357.835L279.876 362.525C279.931 362.838 279.801 363.154 279.542 363.34C279.395 363.447 279.221 363.5 279.045 363.5Z" fill="white"/>
</mask>
<g mask="url(#mask4_504_445)">
<rect x="264.226" y="346" width="20.2516" height="20" fill="#C0CCDA"/>
</g>
<defs>
<filter id="filter0_d_504_445" x="0.188477" y="0" width="667.812" height="520" filterUnits="userSpaceOnUse" color-interpolation-filters="sRGB">
<feFlood flood-opacity="0" result="BackgroundImageFix"/>
<feColorMatrix in="SourceAlpha" type="matrix" values="0 0 0 0 0 0 0 0 0 0 0 0 0 0 0 0 0 0 127 0" result="hardAlpha"/>
<feOffset dy="20"/>
<feGaussianBlur stdDeviation="50"/>
<feColorMatrix type="matrix" values="0 0 0 0 0 0 0 0 0 0 0 0 0 0 0 0 0 0 0.05 0"/>
<feBlend mode="normal" in2="BackgroundImageFix" result="effect1_dropShadow_504_445"/>
<feBlend mode="normal" in="SourceGraphic" in2="effect1_dropShadow_504_445" result="shape"/>
</filter>
</defs>
</svg>
