<svg width="414" height="449" viewBox="0 0 414 449" fill="none" xmlns="http://www.w3.org/2000/svg">
<g filter="url(#filter0_d_504_908)">
<path d="M27 90C27 84.4772 31.4772 80 37 80H380C385.523 80 390 84.4772 390 90V318.305C390 323.828 385.523 328.305 380 328.305H37C31.4771 328.305 27 323.828 27 318.305V90Z" fill="white"/>
</g>
<path d="M87.878 104.315V112.919C87.878 114.251 87.5 115.277 86.744 115.997C86 116.717 84.992 117.077 83.72 117.077C82.388 117.077 81.32 116.699 80.516 115.943C79.712 115.187 79.31 114.113 79.31 112.721H82.37C82.37 113.249 82.478 113.651 82.694 113.927C82.91 114.191 83.222 114.323 83.63 114.323C84.002 114.323 84.29 114.203 84.494 113.963C84.698 113.723 84.8 113.375 84.8 112.919V104.315H87.878ZM94.9363 117.095C93.9523 117.095 93.0643 116.885 92.2723 116.465C91.4923 116.045 90.8743 115.445 90.4183 114.665C89.9743 113.885 89.7523 112.973 89.7523 111.929C89.7523 110.897 89.9803 109.991 90.4363 109.211C90.8923 108.419 91.5163 107.813 92.3083 107.393C93.1003 106.973 93.9883 106.763 94.9723 106.763C95.9563 106.763 96.8443 106.973 97.6363 107.393C98.4283 107.813 99.0523 108.419 99.5083 109.211C99.9643 109.991 100.192 110.897 100.192 111.929C100.192 112.961 99.9583 113.873 99.4903 114.665C99.0343 115.445 98.4043 116.045 97.6003 116.465C96.8083 116.885 95.9203 117.095 94.9363 117.095ZM94.9363 114.431C95.5243 114.431 96.0223 114.215 96.4303 113.783C96.8503 113.351 97.0603 112.733 97.0603 111.929C97.0603 111.125 96.8563 110.507 96.4483 110.075C96.0523 109.643 95.5603 109.427 94.9723 109.427C94.3723 109.427 93.8743 109.643 93.4783 110.075C93.0823 110.495 92.8843 111.113 92.8843 111.929C92.8843 112.733 93.0763 113.351 93.4603 113.783C93.8563 114.215 94.3483 114.431 94.9363 114.431ZM107.999 106.799C109.151 106.799 110.075 107.183 110.771 107.951C111.467 108.707 111.815 109.751 111.815 111.083V116.951H108.755V111.497C108.755 110.825 108.581 110.303 108.233 109.931C107.885 109.559 107.417 109.373 106.829 109.373C106.241 109.373 105.773 109.559 105.425 109.931C105.077 110.303 104.903 110.825 104.903 111.497V116.951H101.825V103.631H104.903V108.257C105.215 107.813 105.641 107.459 106.181 107.195C106.721 106.931 107.327 106.799 107.999 106.799ZM120.074 106.799C121.25 106.799 122.186 107.183 122.882 107.951C123.59 108.707 123.944 109.751 123.944 111.083V116.951H120.884V111.497C120.884 110.825 120.71 110.303 120.362 109.931C120.014 109.559 119.546 109.373 118.958 109.373C118.37 109.373 117.902 109.559 117.554 109.931C117.206 110.303 117.032 110.825 117.032 111.497V116.951H113.954V106.907H117.032V108.239C117.344 107.795 117.764 107.447 118.292 107.195C118.82 106.931 119.414 106.799 120.074 106.799ZM134.631 104.315C135.963 104.315 137.127 104.579 138.123 105.107C139.119 105.635 139.887 106.379 140.427 107.339C140.979 108.287 141.255 109.385 141.255 110.633C141.255 111.869 140.979 112.967 140.427 113.927C139.887 114.887 139.113 115.631 138.105 116.159C137.109 116.687 135.951 116.951 134.631 116.951H129.897V104.315H134.631ZM134.433 114.287C135.597 114.287 136.503 113.969 137.151 113.333C137.799 112.697 138.123 111.797 138.123 110.633C138.123 109.469 137.799 108.563 137.151 107.915C136.503 107.267 135.597 106.943 134.433 106.943H132.975V114.287H134.433ZM147.548 117.095C146.564 117.095 145.676 116.885 144.884 116.465C144.104 116.045 143.486 115.445 143.03 114.665C142.586 113.885 142.364 112.973 142.364 111.929C142.364 110.897 142.592 109.991 143.048 109.211C143.504 108.419 144.128 107.813 144.92 107.393C145.712 106.973 146.6 106.763 147.584 106.763C148.568 106.763 149.456 106.973 150.248 107.393C151.04 107.813 151.664 108.419 152.12 109.211C152.576 109.991 152.804 110.897 152.804 111.929C152.804 112.961 152.57 113.873 152.102 114.665C151.646 115.445 151.016 116.045 150.212 116.465C149.42 116.885 148.532 117.095 147.548 117.095ZM147.548 114.431C148.136 114.431 148.634 114.215 149.042 113.783C149.462 113.351 149.672 112.733 149.672 111.929C149.672 111.125 149.468 110.507 149.06 110.075C148.664 109.643 148.172 109.427 147.584 109.427C146.984 109.427 146.486 109.643 146.09 110.075C145.694 110.495 145.496 111.113 145.496 111.929C145.496 112.733 145.688 113.351 146.072 113.783C146.468 114.215 146.96 114.431 147.548 114.431ZM163.905 111.767C163.905 112.055 163.887 112.355 163.851 112.667H156.885C156.933 113.291 157.131 113.771 157.479 114.107C157.839 114.431 158.277 114.593 158.793 114.593C159.561 114.593 160.095 114.269 160.395 113.621H163.671C163.503 114.281 163.197 114.875 162.753 115.403C162.321 115.931 161.775 116.345 161.115 116.645C160.455 116.945 159.717 117.095 158.901 117.095C157.917 117.095 157.041 116.885 156.273 116.465C155.505 116.045 154.905 115.445 154.473 114.665C154.041 113.885 153.825 112.973 153.825 111.929C153.825 110.885 154.035 109.973 154.455 109.193C154.887 108.413 155.487 107.813 156.255 107.393C157.023 106.973 157.905 106.763 158.901 106.763C159.873 106.763 160.737 106.967 161.493 107.375C162.249 107.783 162.837 108.365 163.257 109.121C163.689 109.877 163.905 110.759 163.905 111.767ZM160.755 110.957C160.755 110.429 160.575 110.009 160.215 109.697C159.855 109.385 159.405 109.229 158.865 109.229C158.349 109.229 157.911 109.379 157.551 109.679C157.203 109.979 156.987 110.405 156.903 110.957H160.755Z" fill="#12082D"/>
<path d="M81.8804 171.194H85.6404V172.666H80.0564V161.546H81.8804V171.194ZM91.1498 172.81C90.3178 172.81 89.5658 172.624 88.8938 172.25C88.2218 171.866 87.6938 171.333 87.3098 170.65C86.9258 169.957 86.7338 169.157 86.7338 168.25C86.7338 167.354 86.9312 166.56 87.3258 165.866C87.7205 165.173 88.2592 164.64 88.9418 164.266C89.6245 163.893 90.3872 163.706 91.2298 163.706C92.0725 163.706 92.8352 163.893 93.5178 164.266C94.2005 164.64 94.7392 165.173 95.1338 165.866C95.5285 166.56 95.7258 167.354 95.7258 168.25C95.7258 169.146 95.5232 169.941 95.1178 170.634C94.7125 171.328 94.1578 171.866 93.4538 172.25C92.7605 172.624 91.9925 172.81 91.1498 172.81ZM91.1498 171.226C91.6192 171.226 92.0565 171.114 92.4618 170.89C92.8778 170.666 93.2138 170.33 93.4698 169.882C93.7258 169.434 93.8538 168.89 93.8538 168.25C93.8538 167.61 93.7312 167.072 93.4858 166.634C93.2405 166.186 92.9152 165.85 92.5098 165.626C92.1045 165.402 91.6672 165.29 91.1978 165.29C90.7285 165.29 90.2912 165.402 89.8858 165.626C89.4912 165.85 89.1765 166.186 88.9418 166.634C88.7072 167.072 88.5898 167.61 88.5898 168.25C88.5898 169.2 88.8298 169.936 89.3098 170.458C89.8005 170.97 90.4138 171.226 91.1498 171.226ZM99.5129 165.13C99.7796 164.682 100.132 164.336 100.569 164.09C101.017 163.834 101.545 163.706 102.153 163.706V165.594H101.689C100.974 165.594 100.43 165.776 100.057 166.138C99.6943 166.501 99.5129 167.13 99.5129 168.026V172.666H97.6889V163.85H99.5129V165.13ZM112.07 168.042C112.07 168.373 112.048 168.672 112.006 168.938H105.27C105.323 169.642 105.584 170.208 106.054 170.634C106.523 171.061 107.099 171.274 107.782 171.274C108.763 171.274 109.456 170.864 109.862 170.042H111.83C111.563 170.853 111.078 171.52 110.374 172.042C109.68 172.554 108.816 172.81 107.782 172.81C106.939 172.81 106.182 172.624 105.51 172.25C104.848 171.866 104.326 171.333 103.942 170.65C103.568 169.957 103.382 169.157 103.382 168.25C103.382 167.344 103.563 166.549 103.926 165.866C104.299 165.173 104.816 164.64 105.478 164.266C106.15 163.893 106.918 163.706 107.782 163.706C108.614 163.706 109.355 163.888 110.006 164.25C110.656 164.613 111.163 165.125 111.526 165.786C111.888 166.437 112.07 167.189 112.07 168.042ZM110.166 167.466C110.155 166.794 109.915 166.256 109.446 165.85C108.976 165.445 108.395 165.242 107.702 165.242C107.072 165.242 106.534 165.445 106.086 165.85C105.638 166.245 105.371 166.784 105.286 167.466H110.166ZM124.697 163.706C125.39 163.706 126.009 163.85 126.553 164.138C127.107 164.426 127.539 164.853 127.849 165.418C128.169 165.984 128.329 166.666 128.329 167.466V172.666H126.521V167.738C126.521 166.949 126.323 166.346 125.929 165.93C125.534 165.504 124.995 165.29 124.313 165.29C123.63 165.29 123.086 165.504 122.681 165.93C122.286 166.346 122.089 166.949 122.089 167.738V172.666H120.281V167.738C120.281 166.949 120.083 166.346 119.689 165.93C119.294 165.504 118.755 165.29 118.073 165.29C117.39 165.29 116.846 165.504 116.441 165.93C116.046 166.346 115.849 166.949 115.849 167.738V172.666H114.025V163.85H115.849V164.858C116.147 164.496 116.526 164.213 116.985 164.01C117.443 163.808 117.934 163.706 118.457 163.706C119.161 163.706 119.79 163.856 120.345 164.154C120.899 164.453 121.326 164.885 121.625 165.45C121.891 164.917 122.307 164.496 122.873 164.186C123.438 163.866 124.046 163.706 124.697 163.706ZM136.054 162.682C135.723 162.682 135.446 162.57 135.222 162.346C134.998 162.122 134.886 161.845 134.886 161.514C134.886 161.184 134.998 160.906 135.222 160.682C135.446 160.458 135.723 160.346 136.054 160.346C136.374 160.346 136.646 160.458 136.87 160.682C137.094 160.906 137.206 161.184 137.206 161.514C137.206 161.845 137.094 162.122 136.87 162.346C136.646 162.57 136.374 162.682 136.054 162.682ZM136.95 163.85V172.666H135.126V163.85H136.95ZM141.329 165.146C141.638 164.741 142.059 164.4 142.593 164.122C143.126 163.845 143.729 163.706 144.401 163.706C145.169 163.706 145.867 163.898 146.497 164.282C147.137 164.656 147.638 165.184 148.001 165.866C148.363 166.549 148.545 167.333 148.545 168.218C148.545 169.104 148.363 169.898 148.001 170.602C147.638 171.296 147.137 171.84 146.497 172.234C145.867 172.618 145.169 172.81 144.401 172.81C143.729 172.81 143.131 172.677 142.609 172.41C142.086 172.133 141.659 171.792 141.329 171.386V176.858H139.505V163.85H141.329V165.146ZM146.689 168.218C146.689 167.61 146.561 167.088 146.305 166.65C146.059 166.202 145.729 165.866 145.313 165.642C144.907 165.408 144.47 165.29 144.001 165.29C143.542 165.29 143.105 165.408 142.689 165.642C142.283 165.877 141.953 166.218 141.697 166.666C141.451 167.114 141.329 167.642 141.329 168.25C141.329 168.858 141.451 169.392 141.697 169.85C141.953 170.298 142.283 170.64 142.689 170.874C143.105 171.109 143.542 171.226 144.001 171.226C144.47 171.226 144.907 171.109 145.313 170.874C145.729 170.629 146.059 170.277 146.305 169.818C146.561 169.36 146.689 168.826 146.689 168.218ZM153.708 172.81C153.015 172.81 152.391 172.688 151.836 172.442C151.292 172.186 150.86 171.845 150.54 171.418C150.22 170.981 150.05 170.496 150.028 169.962H151.916C151.948 170.336 152.124 170.65 152.444 170.906C152.775 171.152 153.186 171.274 153.676 171.274C154.188 171.274 154.583 171.178 154.86 170.986C155.148 170.784 155.292 170.528 155.292 170.218C155.292 169.888 155.132 169.642 154.812 169.482C154.503 169.322 154.007 169.146 153.324 168.954C152.663 168.773 152.124 168.597 151.708 168.426C151.292 168.256 150.93 167.994 150.62 167.642C150.322 167.29 150.172 166.826 150.172 166.25C150.172 165.781 150.311 165.354 150.588 164.97C150.866 164.576 151.26 164.266 151.772 164.042C152.295 163.818 152.892 163.706 153.564 163.706C154.567 163.706 155.372 163.962 155.98 164.474C156.599 164.976 156.93 165.664 156.972 166.538H155.148C155.116 166.144 154.956 165.829 154.668 165.594C154.38 165.36 153.991 165.242 153.5 165.242C153.02 165.242 152.652 165.333 152.396 165.514C152.14 165.696 152.012 165.936 152.012 166.234C152.012 166.469 152.098 166.666 152.268 166.826C152.439 166.986 152.647 167.114 152.892 167.21C153.138 167.296 153.5 167.408 153.98 167.546C154.62 167.717 155.143 167.893 155.548 168.074C155.964 168.245 156.322 168.501 156.62 168.842C156.919 169.184 157.074 169.637 157.084 170.202C157.084 170.704 156.946 171.152 156.668 171.546C156.391 171.941 155.996 172.25 155.484 172.474C154.983 172.698 154.391 172.81 153.708 172.81ZM167.199 163.85V172.666H165.375V171.626C165.087 171.989 164.709 172.277 164.239 172.49C163.781 172.693 163.29 172.794 162.767 172.794C162.074 172.794 161.45 172.65 160.895 172.362C160.351 172.074 159.919 171.648 159.599 171.082C159.29 170.517 159.135 169.834 159.135 169.034V163.85H160.943V168.762C160.943 169.552 161.141 170.16 161.535 170.586C161.93 171.002 162.469 171.21 163.151 171.21C163.834 171.21 164.373 171.002 164.767 170.586C165.173 170.16 165.375 169.552 165.375 168.762V163.85H167.199ZM180.438 163.706C181.131 163.706 181.75 163.85 182.294 164.138C182.848 164.426 183.28 164.853 183.59 165.418C183.91 165.984 184.07 166.666 184.07 167.466V172.666H182.262V167.738C182.262 166.949 182.064 166.346 181.67 165.93C181.275 165.504 180.736 165.29 180.054 165.29C179.371 165.29 178.827 165.504 178.422 165.93C178.027 166.346 177.83 166.949 177.83 167.738V172.666H176.022V167.738C176.022 166.949 175.824 166.346 175.43 165.93C175.035 165.504 174.496 165.29 173.814 165.29C173.131 165.29 172.587 165.504 172.182 165.93C171.787 166.346 171.59 166.949 171.59 167.738V172.666H169.766V163.85H171.59V164.858C171.888 164.496 172.267 164.213 172.726 164.01C173.184 163.808 173.675 163.706 174.198 163.706C174.902 163.706 175.531 163.856 176.086 164.154C176.64 164.453 177.067 164.885 177.366 165.45C177.632 164.917 178.048 164.496 178.614 164.186C179.179 163.866 179.787 163.706 180.438 163.706ZM190.259 168.218C190.259 167.333 190.44 166.549 190.803 165.866C191.176 165.184 191.678 164.656 192.307 164.282C192.947 163.898 193.656 163.706 194.435 163.706C195.011 163.706 195.576 163.834 196.131 164.09C196.696 164.336 197.144 164.666 197.475 165.082V160.826H199.315V172.666H197.475V171.338C197.176 171.765 196.76 172.117 196.227 172.394C195.704 172.672 195.102 172.81 194.419 172.81C193.651 172.81 192.947 172.618 192.307 172.234C191.678 171.84 191.176 171.296 190.803 170.602C190.44 169.898 190.259 169.104 190.259 168.218ZM197.475 168.25C197.475 167.642 197.347 167.114 197.091 166.666C196.846 166.218 196.52 165.877 196.115 165.642C195.71 165.408 195.272 165.29 194.803 165.29C194.334 165.29 193.896 165.408 193.491 165.642C193.086 165.866 192.755 166.202 192.499 166.65C192.254 167.088 192.131 167.61 192.131 168.218C192.131 168.826 192.254 169.36 192.499 169.818C192.755 170.277 193.086 170.629 193.491 170.874C193.907 171.109 194.344 171.226 194.803 171.226C195.272 171.226 195.71 171.109 196.115 170.874C196.52 170.64 196.846 170.298 197.091 169.85C197.347 169.392 197.475 168.858 197.475 168.25ZM205.695 172.81C204.863 172.81 204.111 172.624 203.439 172.25C202.767 171.866 202.239 171.333 201.855 170.65C201.471 169.957 201.279 169.157 201.279 168.25C201.279 167.354 201.476 166.56 201.871 165.866C202.265 165.173 202.804 164.64 203.487 164.266C204.169 163.893 204.932 163.706 205.775 163.706C206.617 163.706 207.38 163.893 208.063 164.266C208.745 164.64 209.284 165.173 209.679 165.866C210.073 166.56 210.271 167.354 210.271 168.25C210.271 169.146 210.068 169.941 209.663 170.634C209.257 171.328 208.703 171.866 207.999 172.25C207.305 172.624 206.537 172.81 205.695 172.81ZM205.695 171.226C206.164 171.226 206.601 171.114 207.007 170.89C207.423 170.666 207.759 170.33 208.015 169.882C208.271 169.434 208.399 168.89 208.399 168.25C208.399 167.61 208.276 167.072 208.031 166.634C207.785 166.186 207.46 165.85 207.055 165.626C206.649 165.402 206.212 165.29 205.743 165.29C205.273 165.29 204.836 165.402 204.431 165.626C204.036 165.85 203.721 166.186 203.487 166.634C203.252 167.072 203.135 167.61 203.135 168.25C203.135 169.2 203.375 169.936 203.855 170.458C204.345 170.97 204.959 171.226 205.695 171.226ZM214.058 160.826V172.666H212.234V160.826H214.058ZM220.437 172.81C219.605 172.81 218.853 172.624 218.181 172.25C217.509 171.866 216.981 171.333 216.597 170.65C216.213 169.957 216.021 169.157 216.021 168.25C216.021 167.354 216.218 166.56 216.613 165.866C217.007 165.173 217.546 164.64 218.229 164.266C218.911 163.893 219.674 163.706 220.517 163.706C221.359 163.706 222.122 163.893 222.805 164.266C223.487 164.64 224.026 165.173 224.421 165.866C224.815 166.56 225.013 167.354 225.013 168.25C225.013 169.146 224.81 169.941 224.405 170.634C223.999 171.328 223.445 171.866 222.741 172.25C222.047 172.624 221.279 172.81 220.437 172.81ZM220.437 171.226C220.906 171.226 221.343 171.114 221.749 170.89C222.165 170.666 222.501 170.33 222.757 169.882C223.013 169.434 223.141 168.89 223.141 168.25C223.141 167.61 223.018 167.072 222.773 166.634C222.527 166.186 222.202 165.85 221.797 165.626C221.391 165.402 220.954 165.29 220.485 165.29C220.015 165.29 219.578 165.402 219.173 165.626C218.778 165.85 218.463 166.186 218.229 166.634C217.994 167.072 217.877 167.61 217.877 168.25C217.877 169.2 218.117 169.936 218.597 170.458C219.087 170.97 219.701 171.226 220.437 171.226ZM228.8 165.13C229.066 164.682 229.418 164.336 229.856 164.09C230.304 163.834 230.832 163.706 231.44 163.706V165.594H230.976C230.261 165.594 229.717 165.776 229.344 166.138C228.981 166.501 228.8 167.13 228.8 168.026V172.666H226.976V163.85H228.8V165.13ZM240.793 172.81C240.099 172.81 239.475 172.688 238.921 172.442C238.377 172.186 237.945 171.845 237.625 171.418C237.305 170.981 237.134 170.496 237.113 169.962H239.001C239.033 170.336 239.209 170.65 239.529 170.906C239.859 171.152 240.27 171.274 240.761 171.274C241.273 171.274 241.667 171.178 241.945 170.986C242.233 170.784 242.377 170.528 242.377 170.218C242.377 169.888 242.217 169.642 241.897 169.482C241.587 169.322 241.091 169.146 240.409 168.954C239.747 168.773 239.209 168.597 238.793 168.426C238.377 168.256 238.014 167.994 237.705 167.642C237.406 167.29 237.257 166.826 237.257 166.25C237.257 165.781 237.395 165.354 237.673 164.97C237.95 164.576 238.345 164.266 238.857 164.042C239.379 163.818 239.977 163.706 240.649 163.706C241.651 163.706 242.457 163.962 243.065 164.474C243.683 164.976 244.014 165.664 244.057 166.538H242.233C242.201 166.144 242.041 165.829 241.753 165.594C241.465 165.36 241.075 165.242 240.585 165.242C240.105 165.242 239.737 165.333 239.481 165.514C239.225 165.696 239.097 165.936 239.097 166.234C239.097 166.469 239.182 166.666 239.353 166.826C239.523 166.986 239.731 167.114 239.977 167.21C240.222 167.296 240.585 167.408 241.065 167.546C241.705 167.717 242.227 167.893 242.633 168.074C243.049 168.245 243.406 168.501 243.705 168.842C244.003 169.184 244.158 169.637 244.169 170.202C244.169 170.704 244.03 171.152 243.753 171.546C243.475 171.941 243.081 172.25 242.569 172.474C242.067 172.698 241.475 172.81 240.793 172.81ZM247.228 162.682C246.897 162.682 246.62 162.57 246.396 162.346C246.172 162.122 246.06 161.845 246.06 161.514C246.06 161.184 246.172 160.906 246.396 160.682C246.62 160.458 246.897 160.346 247.228 160.346C247.548 160.346 247.82 160.458 248.044 160.682C248.268 160.906 248.38 161.184 248.38 161.514C248.38 161.845 248.268 162.122 248.044 162.346C247.82 162.57 247.548 162.682 247.228 162.682ZM248.124 163.85V172.666H246.3V163.85H248.124ZM252.806 165.338V170.218C252.806 170.549 252.881 170.789 253.03 170.938C253.19 171.077 253.457 171.146 253.83 171.146H254.95V172.666H253.51C252.689 172.666 252.06 172.474 251.622 172.09C251.185 171.706 250.966 171.082 250.966 170.218V165.338H249.926V163.85H250.966V161.658H252.806V163.85H254.95V165.338H252.806ZM260.5 168.218C260.5 167.333 260.681 166.549 261.044 165.866C261.417 165.184 261.918 164.656 262.548 164.282C263.188 163.898 263.892 163.706 264.66 163.706C265.353 163.706 265.956 163.845 266.468 164.122C266.99 164.389 267.406 164.725 267.716 165.13V163.85H269.556V172.666H267.716V171.354C267.406 171.77 266.985 172.117 266.452 172.394C265.918 172.672 265.31 172.81 264.628 172.81C263.87 172.81 263.177 172.618 262.548 172.234C261.918 171.84 261.417 171.296 261.044 170.602C260.681 169.898 260.5 169.104 260.5 168.218ZM267.716 168.25C267.716 167.642 267.588 167.114 267.332 166.666C267.086 166.218 266.761 165.877 266.356 165.642C265.95 165.408 265.513 165.29 265.044 165.29C264.574 165.29 264.137 165.408 263.732 165.642C263.326 165.866 262.996 166.202 262.74 166.65C262.494 167.088 262.372 167.61 262.372 168.218C262.372 168.826 262.494 169.36 262.74 169.818C262.996 170.277 263.326 170.629 263.732 170.874C264.148 171.109 264.585 171.226 265.044 171.226C265.513 171.226 265.95 171.109 266.356 170.874C266.761 170.64 267.086 170.298 267.332 169.85C267.588 169.392 267.716 168.858 267.716 168.25ZM282.783 163.706C283.477 163.706 284.095 163.85 284.639 164.138C285.194 164.426 285.626 164.853 285.935 165.418C286.255 165.984 286.415 166.666 286.415 167.466V172.666H284.607V167.738C284.607 166.949 284.41 166.346 284.015 165.93C283.621 165.504 283.082 165.29 282.399 165.29C281.717 165.29 281.173 165.504 280.767 165.93C280.373 166.346 280.175 166.949 280.175 167.738V172.666H278.367V167.738C278.367 166.949 278.17 166.346 277.775 165.93C277.381 165.504 276.842 165.29 276.159 165.29C275.477 165.29 274.933 165.504 274.527 165.93C274.133 166.346 273.935 166.949 273.935 167.738V172.666H272.111V163.85H273.935V164.858C274.234 164.496 274.613 164.213 275.071 164.01C275.53 163.808 276.021 163.706 276.543 163.706C277.247 163.706 277.877 163.856 278.431 164.154C278.986 164.453 279.413 164.885 279.711 165.45C279.978 164.917 280.394 164.496 280.959 164.186C281.525 163.866 282.133 163.706 282.783 163.706ZM296.976 168.042C296.976 168.373 296.955 168.672 296.912 168.938H290.176C290.23 169.642 290.491 170.208 290.96 170.634C291.43 171.061 292.006 171.274 292.688 171.274C293.67 171.274 294.363 170.864 294.768 170.042H296.736C296.47 170.853 295.984 171.52 295.28 172.042C294.587 172.554 293.723 172.81 292.688 172.81C291.846 172.81 291.088 172.624 290.416 172.25C289.755 171.866 289.232 171.333 288.848 170.65C288.475 169.957 288.288 169.157 288.288 168.25C288.288 167.344 288.47 166.549 288.832 165.866C289.206 165.173 289.723 164.64 290.384 164.266C291.056 163.893 291.824 163.706 292.688 163.706C293.52 163.706 294.262 163.888 294.912 164.25C295.563 164.613 296.07 165.125 296.432 165.786C296.795 166.437 296.976 167.189 296.976 168.042ZM295.072 167.466C295.062 166.794 294.822 166.256 294.352 165.85C293.883 165.445 293.302 165.242 292.608 165.242C291.979 165.242 291.44 165.445 290.992 165.85C290.544 166.245 290.278 166.784 290.192 167.466H295.072ZM301.059 165.338V170.218C301.059 170.549 301.134 170.789 301.283 170.938C301.443 171.077 301.71 171.146 302.083 171.146H303.203V172.666H301.763C300.942 172.666 300.313 172.474 299.875 172.09C299.438 171.706 299.219 171.082 299.219 170.218V165.338H298.179V163.85H299.219V161.658H301.059V163.85H303.203V165.338H301.059ZM307.045 170.474L305.109 174.89H303.925L305.061 170.474H307.045ZM79.4484 204.25C79.4484 203.344 79.6298 202.549 79.9924 201.866C80.3658 201.173 80.8778 200.64 81.5284 200.266C82.1791 199.893 82.9258 199.706 83.7684 199.706C84.8351 199.706 85.7151 199.962 86.4084 200.474C87.1124 200.976 87.5871 201.696 87.8324 202.634H85.8644C85.7044 202.197 85.4484 201.856 85.0964 201.61C84.7444 201.365 84.3018 201.242 83.7684 201.242C83.0218 201.242 82.4244 201.509 81.9764 202.042C81.5391 202.565 81.3204 203.301 81.3204 204.25C81.3204 205.2 81.5391 205.941 81.9764 206.474C82.4244 207.008 83.0218 207.274 83.7684 207.274C84.8244 207.274 85.5231 206.81 85.8644 205.882H87.8324C87.5764 206.778 87.0964 207.493 86.3924 208.026C85.6884 208.549 84.8138 208.81 83.7684 208.81C82.9258 208.81 82.1791 208.624 81.5284 208.25C80.8778 207.866 80.3658 207.333 79.9924 206.65C79.6298 205.957 79.4484 205.157 79.4484 204.25ZM93.6342 208.81C92.8022 208.81 92.0502 208.624 91.3782 208.25C90.7062 207.866 90.1782 207.333 89.7942 206.65C89.4102 205.957 89.2182 205.157 89.2182 204.25C89.2182 203.354 89.4155 202.56 89.8102 201.866C90.2049 201.173 90.7435 200.64 91.4262 200.266C92.1089 199.893 92.8715 199.706 93.7142 199.706C94.5569 199.706 95.3195 199.893 96.0022 200.266C96.6849 200.64 97.2235 201.173 97.6182 201.866C98.0129 202.56 98.2102 203.354 98.2102 204.25C98.2102 205.146 98.0075 205.941 97.6022 206.634C97.1969 207.328 96.6422 207.866 95.9382 208.25C95.2449 208.624 94.4769 208.81 93.6342 208.81ZM93.6342 207.226C94.1035 207.226 94.5409 207.114 94.9462 206.89C95.3622 206.666 95.6982 206.33 95.9542 205.882C96.2102 205.434 96.3382 204.89 96.3382 204.25C96.3382 203.61 96.2155 203.072 95.9702 202.634C95.7249 202.186 95.3995 201.85 94.9942 201.626C94.5889 201.402 94.1515 201.29 93.6822 201.29C93.2129 201.29 92.7755 201.402 92.3702 201.626C91.9755 201.85 91.6609 202.186 91.4262 202.634C91.1915 203.072 91.0742 203.61 91.0742 204.25C91.0742 205.2 91.3142 205.936 91.7942 206.458C92.2849 206.97 92.8982 207.226 93.6342 207.226ZM104.621 199.706C105.315 199.706 105.933 199.85 106.477 200.138C107.032 200.426 107.464 200.853 107.773 201.418C108.083 201.984 108.237 202.666 108.237 203.466V208.666H106.429V203.738C106.429 202.949 106.232 202.346 105.837 201.93C105.443 201.504 104.904 201.29 104.221 201.29C103.539 201.29 102.995 201.504 102.589 201.93C102.195 202.346 101.997 202.949 101.997 203.738V208.666H100.173V199.85H101.997V200.858C102.296 200.496 102.675 200.213 103.133 200.01C103.603 199.808 104.099 199.706 104.621 199.706ZM113.924 208.81C113.231 208.81 112.607 208.688 112.052 208.442C111.508 208.186 111.076 207.845 110.756 207.418C110.436 206.981 110.265 206.496 110.244 205.962H112.132C112.164 206.336 112.34 206.65 112.66 206.906C112.991 207.152 113.401 207.274 113.892 207.274C114.404 207.274 114.799 207.178 115.076 206.986C115.364 206.784 115.508 206.528 115.508 206.218C115.508 205.888 115.348 205.642 115.028 205.482C114.719 205.322 114.223 205.146 113.54 204.954C112.879 204.773 112.34 204.597 111.924 204.426C111.508 204.256 111.145 203.994 110.836 203.642C110.537 203.29 110.388 202.826 110.388 202.25C110.388 201.781 110.527 201.354 110.804 200.97C111.081 200.576 111.476 200.266 111.988 200.042C112.511 199.818 113.108 199.706 113.78 199.706C114.783 199.706 115.588 199.962 116.196 200.474C116.815 200.976 117.145 201.664 117.188 202.538H115.364C115.332 202.144 115.172 201.829 114.884 201.594C114.596 201.36 114.207 201.242 113.716 201.242C113.236 201.242 112.868 201.333 112.612 201.514C112.356 201.696 112.228 201.936 112.228 202.234C112.228 202.469 112.313 202.666 112.484 202.826C112.655 202.986 112.863 203.114 113.108 203.21C113.353 203.296 113.716 203.408 114.196 203.546C114.836 203.717 115.359 203.893 115.764 204.074C116.18 204.245 116.537 204.501 116.836 204.842C117.135 205.184 117.289 205.637 117.3 206.202C117.3 206.704 117.161 207.152 116.884 207.546C116.607 207.941 116.212 208.25 115.7 208.474C115.199 208.698 114.607 208.81 113.924 208.81ZM127.511 204.042C127.511 204.373 127.489 204.672 127.447 204.938H120.711C120.764 205.642 121.025 206.208 121.495 206.634C121.964 207.061 122.54 207.274 123.223 207.274C124.204 207.274 124.897 206.864 125.303 206.042H127.271C127.004 206.853 126.519 207.52 125.815 208.042C125.121 208.554 124.257 208.81 123.223 208.81C122.38 208.81 121.623 208.624 120.951 208.25C120.289 207.866 119.767 207.333 119.383 206.65C119.009 205.957 118.823 205.157 118.823 204.25C118.823 203.344 119.004 202.549 119.367 201.866C119.74 201.173 120.257 200.64 120.919 200.266C121.591 199.893 122.359 199.706 123.223 199.706C124.055 199.706 124.796 199.888 125.447 200.25C126.097 200.613 126.604 201.125 126.967 201.786C127.329 202.437 127.511 203.189 127.511 204.042ZM125.607 203.466C125.596 202.794 125.356 202.256 124.887 201.85C124.417 201.445 123.836 201.242 123.143 201.242C122.513 201.242 121.975 201.445 121.527 201.85C121.079 202.245 120.812 202.784 120.727 203.466H125.607ZM128.858 204.25C128.858 203.344 129.039 202.549 129.402 201.866C129.775 201.173 130.287 200.64 130.938 200.266C131.588 199.893 132.335 199.706 133.178 199.706C134.244 199.706 135.124 199.962 135.818 200.474C136.522 200.976 136.996 201.696 137.242 202.634H135.274C135.114 202.197 134.858 201.856 134.506 201.61C134.154 201.365 133.711 201.242 133.178 201.242C132.431 201.242 131.834 201.509 131.386 202.042C130.948 202.565 130.73 203.301 130.73 204.25C130.73 205.2 130.948 205.941 131.386 206.474C131.834 207.008 132.431 207.274 133.178 207.274C134.234 207.274 134.932 206.81 135.274 205.882H137.242C136.986 206.778 136.506 207.493 135.802 208.026C135.098 208.549 134.223 208.81 133.178 208.81C132.335 208.81 131.588 208.624 130.938 208.25C130.287 207.866 129.775 207.333 129.402 206.65C129.039 205.957 128.858 205.157 128.858 204.25ZM141.348 201.338V206.218C141.348 206.549 141.422 206.789 141.572 206.938C141.732 207.077 141.998 207.146 142.372 207.146H143.492V208.666H142.052C141.23 208.666 140.601 208.474 140.164 208.09C139.726 207.706 139.508 207.082 139.508 206.218V201.338H138.468V199.85H139.508V197.658H141.348V199.85H143.492V201.338H141.348ZM153.413 204.042C153.413 204.373 153.391 204.672 153.349 204.938H146.613C146.666 205.642 146.927 206.208 147.397 206.634C147.866 207.061 148.442 207.274 149.125 207.274C150.106 207.274 150.799 206.864 151.205 206.042H153.173C152.906 206.853 152.421 207.52 151.717 208.042C151.023 208.554 150.159 208.81 149.125 208.81C148.282 208.81 147.525 208.624 146.853 208.25C146.191 207.866 145.669 207.333 145.285 206.65C144.911 205.957 144.725 205.157 144.725 204.25C144.725 203.344 144.906 202.549 145.269 201.866C145.642 201.173 146.159 200.64 146.821 200.266C147.493 199.893 148.261 199.706 149.125 199.706C149.957 199.706 150.698 199.888 151.349 200.25C151.999 200.613 152.506 201.125 152.869 201.786C153.231 202.437 153.413 203.189 153.413 204.042ZM151.509 203.466C151.498 202.794 151.258 202.256 150.789 201.85C150.319 201.445 149.738 201.242 149.045 201.242C148.415 201.242 147.877 201.445 147.429 201.85C146.981 202.245 146.714 202.784 146.629 203.466H151.509ZM157.496 201.338V206.218C157.496 206.549 157.57 206.789 157.72 206.938C157.88 207.077 158.146 207.146 158.52 207.146H159.64V208.666H158.2C157.378 208.666 156.749 208.474 156.312 208.09C155.874 207.706 155.656 207.082 155.656 206.218V201.338H154.616V199.85H155.656V197.658H157.496V199.85H159.64V201.338H157.496ZM169.465 199.85V208.666H167.641V207.626C167.353 207.989 166.974 208.277 166.505 208.49C166.046 208.693 165.555 208.794 165.033 208.794C164.339 208.794 163.715 208.65 163.161 208.362C162.617 208.074 162.185 207.648 161.865 207.082C161.555 206.517 161.401 205.834 161.401 205.034V199.85H163.209V204.762C163.209 205.552 163.406 206.16 163.801 206.586C164.195 207.002 164.734 207.21 165.417 207.21C166.099 207.21 166.638 207.002 167.033 206.586C167.438 206.16 167.641 205.552 167.641 204.762V199.85H169.465ZM173.855 201.13C174.122 200.682 174.474 200.336 174.911 200.09C175.359 199.834 175.887 199.706 176.495 199.706V201.594H176.031C175.317 201.594 174.773 201.776 174.399 202.138C174.037 202.501 173.855 203.13 173.855 204.026V208.666H172.031V199.85H173.855V201.13ZM182.04 204.218C182.04 203.333 182.222 202.549 182.584 201.866C182.958 201.184 183.459 200.656 184.088 200.282C184.728 199.898 185.432 199.706 186.2 199.706C186.894 199.706 187.496 199.845 188.008 200.122C188.531 200.389 188.947 200.725 189.256 201.13V199.85H191.096V208.666H189.256V207.354C188.947 207.77 188.526 208.117 187.992 208.394C187.459 208.672 186.851 208.81 186.168 208.81C185.411 208.81 184.718 208.618 184.088 208.234C183.459 207.84 182.958 207.296 182.584 206.602C182.222 205.898 182.04 205.104 182.04 204.218ZM189.256 204.25C189.256 203.642 189.128 203.114 188.872 202.666C188.627 202.218 188.302 201.877 187.896 201.642C187.491 201.408 187.054 201.29 186.584 201.29C186.115 201.29 185.678 201.408 185.272 201.642C184.867 201.866 184.536 202.202 184.28 202.65C184.035 203.088 183.912 203.61 183.912 204.218C183.912 204.826 184.035 205.36 184.28 205.818C184.536 206.277 184.867 206.629 185.272 206.874C185.688 207.109 186.126 207.226 186.584 207.226C187.054 207.226 187.491 207.109 187.896 206.874C188.302 206.64 188.627 206.298 188.872 205.85C189.128 205.392 189.256 204.858 189.256 204.25ZM193.044 204.218C193.044 203.333 193.225 202.549 193.588 201.866C193.961 201.184 194.463 200.656 195.092 200.282C195.732 199.898 196.441 199.706 197.22 199.706C197.796 199.706 198.361 199.834 198.916 200.09C199.481 200.336 199.929 200.666 200.26 201.082V196.826H202.1V208.666H200.26V207.338C199.961 207.765 199.545 208.117 199.012 208.394C198.489 208.672 197.887 208.81 197.204 208.81C196.436 208.81 195.732 208.618 195.092 208.234C194.463 207.84 193.961 207.296 193.588 206.602C193.225 205.898 193.044 205.104 193.044 204.218ZM200.26 204.25C200.26 203.642 200.132 203.114 199.876 202.666C199.631 202.218 199.305 201.877 198.9 201.642C198.495 201.408 198.057 201.29 197.588 201.29C197.119 201.29 196.681 201.408 196.276 201.642C195.871 201.866 195.54 202.202 195.284 202.65C195.039 203.088 194.916 203.61 194.916 204.218C194.916 204.826 195.039 205.36 195.284 205.818C195.54 206.277 195.871 206.629 196.276 206.874C196.692 207.109 197.129 207.226 197.588 207.226C198.057 207.226 198.495 207.109 198.9 206.874C199.305 206.64 199.631 206.298 199.876 205.85C200.132 205.392 200.26 204.858 200.26 204.25ZM205.584 198.682C205.253 198.682 204.976 198.57 204.752 198.346C204.528 198.122 204.416 197.845 204.416 197.514C204.416 197.184 204.528 196.906 204.752 196.682C204.976 196.458 205.253 196.346 205.584 196.346C205.904 196.346 206.176 196.458 206.4 196.682C206.624 196.906 206.736 197.184 206.736 197.514C206.736 197.845 206.624 198.122 206.4 198.346C206.176 198.57 205.904 198.682 205.584 198.682ZM206.48 199.85V208.666H204.656V199.85H206.48ZM210.859 201.146C211.168 200.741 211.589 200.4 212.123 200.122C212.656 199.845 213.259 199.706 213.931 199.706C214.699 199.706 215.397 199.898 216.027 200.282C216.667 200.656 217.168 201.184 217.531 201.866C217.893 202.549 218.075 203.333 218.075 204.218C218.075 205.104 217.893 205.898 217.531 206.602C217.168 207.296 216.667 207.84 216.027 208.234C215.397 208.618 214.699 208.81 213.931 208.81C213.259 208.81 212.661 208.677 212.139 208.41C211.616 208.133 211.189 207.792 210.859 207.386V212.858H209.035V199.85H210.859V201.146ZM216.219 204.218C216.219 203.61 216.091 203.088 215.835 202.65C215.589 202.202 215.259 201.866 214.843 201.642C214.437 201.408 214 201.29 213.531 201.29C213.072 201.29 212.635 201.408 212.219 201.642C211.813 201.877 211.483 202.218 211.227 202.666C210.981 203.114 210.859 203.642 210.859 204.25C210.859 204.858 210.981 205.392 211.227 205.85C211.483 206.298 211.813 206.64 212.219 206.874C212.635 207.109 213.072 207.226 213.531 207.226C214 207.226 214.437 207.109 214.843 206.874C215.259 206.629 215.589 206.277 215.835 205.818C216.091 205.36 216.219 204.826 216.219 204.218ZM220.966 198.682C220.636 198.682 220.358 198.57 220.134 198.346C219.91 198.122 219.798 197.845 219.798 197.514C219.798 197.184 219.91 196.906 220.134 196.682C220.358 196.458 220.636 196.346 220.966 196.346C221.286 196.346 221.558 196.458 221.782 196.682C222.006 196.906 222.118 197.184 222.118 197.514C222.118 197.845 222.006 198.122 221.782 198.346C221.558 198.57 221.286 198.682 220.966 198.682ZM221.862 199.85V208.666H220.038V199.85H221.862ZM227.617 208.81C226.924 208.81 226.3 208.688 225.745 208.442C225.201 208.186 224.769 207.845 224.449 207.418C224.129 206.981 223.958 206.496 223.937 205.962H225.825C225.857 206.336 226.033 206.65 226.353 206.906C226.684 207.152 227.094 207.274 227.585 207.274C228.097 207.274 228.492 207.178 228.769 206.986C229.057 206.784 229.201 206.528 229.201 206.218C229.201 205.888 229.041 205.642 228.721 205.482C228.412 205.322 227.916 205.146 227.233 204.954C226.572 204.773 226.033 204.597 225.617 204.426C225.201 204.256 224.838 203.994 224.529 203.642C224.23 203.29 224.081 202.826 224.081 202.25C224.081 201.781 224.22 201.354 224.497 200.97C224.774 200.576 225.169 200.266 225.681 200.042C226.204 199.818 226.801 199.706 227.473 199.706C228.476 199.706 229.281 199.962 229.889 200.474C230.508 200.976 230.838 201.664 230.881 202.538H229.057C229.025 202.144 228.865 201.829 228.577 201.594C228.289 201.36 227.9 201.242 227.409 201.242C226.929 201.242 226.561 201.333 226.305 201.514C226.049 201.696 225.921 201.936 225.921 202.234C225.921 202.469 226.006 202.666 226.177 202.826C226.348 202.986 226.556 203.114 226.801 203.21C227.046 203.296 227.409 203.408 227.889 203.546C228.529 203.717 229.052 203.893 229.457 204.074C229.873 204.245 230.23 204.501 230.529 204.842C230.828 205.184 230.982 205.637 230.993 206.202C230.993 206.704 230.854 207.152 230.577 207.546C230.3 207.941 229.905 208.25 229.393 208.474C228.892 208.698 228.3 208.81 227.617 208.81ZM232.516 204.25C232.516 203.344 232.697 202.549 233.06 201.866C233.433 201.173 233.945 200.64 234.596 200.266C235.247 199.893 235.993 199.706 236.836 199.706C237.903 199.706 238.783 199.962 239.476 200.474C240.18 200.976 240.655 201.696 240.9 202.634H238.932C238.772 202.197 238.516 201.856 238.164 201.61C237.812 201.365 237.369 201.242 236.836 201.242C236.089 201.242 235.492 201.509 235.044 202.042C234.607 202.565 234.388 203.301 234.388 204.25C234.388 205.2 234.607 205.941 235.044 206.474C235.492 207.008 236.089 207.274 236.836 207.274C237.892 207.274 238.591 206.81 238.932 205.882H240.9C240.644 206.778 240.164 207.493 239.46 208.026C238.756 208.549 237.881 208.81 236.836 208.81C235.993 208.81 235.247 208.624 234.596 208.25C233.945 207.866 233.433 207.333 233.06 206.65C232.697 205.957 232.516 205.157 232.516 204.25ZM243.806 198.682C243.475 198.682 243.198 198.57 242.974 198.346C242.75 198.122 242.638 197.845 242.638 197.514C242.638 197.184 242.75 196.906 242.974 196.682C243.198 196.458 243.475 196.346 243.806 196.346C244.126 196.346 244.398 196.458 244.622 196.682C244.846 196.906 244.958 197.184 244.958 197.514C244.958 197.845 244.846 198.122 244.622 198.346C244.398 198.57 244.126 198.682 243.806 198.682ZM244.702 199.85V208.666H242.878V199.85H244.702ZM251.704 199.706C252.398 199.706 253.016 199.85 253.56 200.138C254.115 200.426 254.547 200.853 254.856 201.418C255.166 201.984 255.32 202.666 255.32 203.466V208.666H253.512V203.738C253.512 202.949 253.315 202.346 252.92 201.93C252.526 201.504 251.987 201.29 251.304 201.29C250.622 201.29 250.078 201.504 249.672 201.93C249.278 202.346 249.08 202.949 249.08 203.738V208.666H247.256V199.85H249.08V200.858C249.379 200.496 249.758 200.213 250.216 200.01C250.686 199.808 251.182 199.706 251.704 199.706ZM261.359 199.706C262.042 199.706 262.644 199.845 263.167 200.122C263.7 200.389 264.116 200.725 264.415 201.13V199.85H266.255V208.81C266.255 209.621 266.084 210.341 265.743 210.97C265.402 211.61 264.906 212.112 264.255 212.474C263.615 212.837 262.847 213.018 261.951 213.018C260.756 213.018 259.764 212.736 258.975 212.17C258.186 211.616 257.738 210.858 257.631 209.898H259.439C259.578 210.357 259.871 210.725 260.319 211.002C260.778 211.29 261.322 211.434 261.951 211.434C262.687 211.434 263.279 211.21 263.727 210.762C264.186 210.314 264.415 209.664 264.415 208.81V207.338C264.106 207.754 263.684 208.106 263.151 208.394C262.628 208.672 262.031 208.81 261.359 208.81C260.591 208.81 259.887 208.618 259.247 208.234C258.618 207.84 258.116 207.296 257.743 206.602C257.38 205.898 257.199 205.104 257.199 204.218C257.199 203.333 257.38 202.549 257.743 201.866C258.116 201.184 258.618 200.656 259.247 200.282C259.887 199.898 260.591 199.706 261.359 199.706ZM264.415 204.25C264.415 203.642 264.287 203.114 264.031 202.666C263.786 202.218 263.46 201.877 263.055 201.642C262.65 201.408 262.212 201.29 261.743 201.29C261.274 201.29 260.836 201.408 260.431 201.642C260.026 201.866 259.695 202.202 259.439 202.65C259.194 203.088 259.071 203.61 259.071 204.218C259.071 204.826 259.194 205.36 259.439 205.818C259.695 206.277 260.026 206.629 260.431 206.874C260.847 207.109 261.284 207.226 261.743 207.226C262.212 207.226 262.65 207.109 263.055 206.874C263.46 206.64 263.786 206.298 264.031 205.85C264.287 205.392 264.415 204.858 264.415 204.25ZM281.207 204.042C281.207 204.373 281.186 204.672 281.143 204.938H274.407C274.46 205.642 274.722 206.208 275.191 206.634C275.66 207.061 276.236 207.274 276.919 207.274C277.9 207.274 278.594 206.864 278.999 206.042H280.967C280.7 206.853 280.215 207.52 279.511 208.042C278.818 208.554 277.954 208.81 276.919 208.81C276.076 208.81 275.319 208.624 274.647 208.25C273.986 207.866 273.463 207.333 273.079 206.65C272.706 205.957 272.519 205.157 272.519 204.25C272.519 203.344 272.7 202.549 273.063 201.866C273.436 201.173 273.954 200.64 274.615 200.266C275.287 199.893 276.055 199.706 276.919 199.706C277.751 199.706 278.492 199.888 279.143 200.25C279.794 200.613 280.3 201.125 280.663 201.786C281.026 202.437 281.207 203.189 281.207 204.042ZM279.303 203.466C279.292 202.794 279.052 202.256 278.583 201.85C278.114 201.445 277.532 201.242 276.839 201.242C276.21 201.242 275.671 201.445 275.223 201.85C274.775 202.245 274.508 202.784 274.423 203.466H279.303ZM284.986 196.826V208.666H283.162V196.826H284.986ZM288.469 198.682C288.138 198.682 287.861 198.57 287.637 198.346C287.413 198.122 287.301 197.845 287.301 197.514C287.301 197.184 287.413 196.906 287.637 196.682C287.861 196.458 288.138 196.346 288.469 196.346C288.789 196.346 289.061 196.458 289.285 196.682C289.509 196.906 289.621 197.184 289.621 197.514C289.621 197.845 289.509 198.122 289.285 198.346C289.061 198.57 288.789 198.682 288.469 198.682ZM289.365 199.85V208.666H287.541V199.85H289.365ZM294.048 201.338V206.218C294.048 206.549 294.122 206.789 294.272 206.938C294.432 207.077 294.698 207.146 295.072 207.146H296.192V208.666H294.752C293.93 208.666 293.301 208.474 292.864 208.09C292.426 207.706 292.208 207.082 292.208 206.218V201.338H291.168V199.85H292.208V197.658H294.048V199.85H296.192V201.338H294.048ZM300.033 206.474L298.097 210.89H296.913L298.049 206.474H300.033ZM309.303 208.81C308.609 208.81 307.985 208.688 307.431 208.442C306.887 208.186 306.455 207.845 306.135 207.418C305.815 206.981 305.644 206.496 305.623 205.962H307.511C307.543 206.336 307.719 206.65 308.039 206.906C308.369 207.152 308.78 207.274 309.271 207.274C309.783 207.274 310.177 207.178 310.455 206.986C310.743 206.784 310.887 206.528 310.887 206.218C310.887 205.888 310.727 205.642 310.407 205.482C310.097 205.322 309.601 205.146 308.919 204.954C308.257 204.773 307.719 204.597 307.303 204.426C306.887 204.256 306.524 203.994 306.215 203.642C305.916 203.29 305.767 202.826 305.767 202.25C305.767 201.781 305.905 201.354 306.183 200.97C306.46 200.576 306.855 200.266 307.367 200.042C307.889 199.818 308.487 199.706 309.159 199.706C310.161 199.706 310.967 199.962 311.575 200.474C312.193 200.976 312.524 201.664 312.567 202.538H310.743C310.711 202.144 310.551 201.829 310.263 201.594C309.975 201.36 309.585 201.242 309.095 201.242C308.615 201.242 308.247 201.333 307.991 201.514C307.735 201.696 307.607 201.936 307.607 202.234C307.607 202.469 307.692 202.666 307.863 202.826C308.033 202.986 308.241 203.114 308.487 203.21C308.732 203.296 309.095 203.408 309.575 203.546C310.215 203.717 310.737 203.893 311.143 204.074C311.559 204.245 311.916 204.501 312.215 204.842C312.513 205.184 312.668 205.637 312.679 206.202C312.679 206.704 312.54 207.152 312.263 207.546C311.985 207.941 311.591 208.25 311.079 208.474C310.577 208.698 309.985 208.81 309.303 208.81ZM322.89 204.042C322.89 204.373 322.868 204.672 322.826 204.938H316.09C316.143 205.642 316.404 206.208 316.874 206.634C317.343 207.061 317.919 207.274 318.602 207.274C319.583 207.274 320.276 206.864 320.682 206.042H322.65C322.383 206.853 321.898 207.52 321.194 208.042C320.5 208.554 319.636 208.81 318.602 208.81C317.759 208.81 317.002 208.624 316.33 208.25C315.668 207.866 315.146 207.333 314.762 206.65C314.388 205.957 314.202 205.157 314.202 204.25C314.202 203.344 314.383 202.549 314.746 201.866C315.119 201.173 315.636 200.64 316.298 200.266C316.97 199.893 317.738 199.706 318.602 199.706C319.434 199.706 320.175 199.888 320.826 200.25C321.476 200.613 321.983 201.125 322.346 201.786C322.708 202.437 322.89 203.189 322.89 204.042ZM320.986 203.466C320.975 202.794 320.735 202.256 320.266 201.85C319.796 201.445 319.215 201.242 318.522 201.242C317.892 201.242 317.354 201.445 316.906 201.85C316.458 202.245 316.191 202.784 316.106 203.466H320.986ZM324.237 204.218C324.237 203.333 324.418 202.549 324.781 201.866C325.154 201.184 325.655 200.656 326.285 200.282C326.925 199.898 327.634 199.706 328.413 199.706C328.989 199.706 329.554 199.834 330.109 200.09C330.674 200.336 331.122 200.666 331.453 201.082V196.826H333.293V208.666H331.453V207.338C331.154 207.765 330.738 208.117 330.205 208.394C329.682 208.672 329.079 208.81 328.397 208.81C327.629 208.81 326.925 208.618 326.285 208.234C325.655 207.84 325.154 207.296 324.781 206.602C324.418 205.898 324.237 205.104 324.237 204.218ZM331.453 204.25C331.453 203.642 331.325 203.114 331.069 202.666C330.823 202.218 330.498 201.877 330.093 201.642C329.687 201.408 329.25 201.29 328.781 201.29C328.311 201.29 327.874 201.408 327.469 201.642C327.063 201.866 326.733 202.202 326.477 202.65C326.231 203.088 326.109 203.61 326.109 204.218C326.109 204.826 326.231 205.36 326.477 205.818C326.733 206.277 327.063 206.629 327.469 206.874C327.885 207.109 328.322 207.226 328.781 207.226C329.25 207.226 329.687 207.109 330.093 206.874C330.498 206.64 330.823 206.298 331.069 205.85C331.325 205.392 331.453 204.858 331.453 204.25ZM339.557 204.218C339.557 203.333 339.738 202.549 340.101 201.866C340.474 201.184 340.975 200.656 341.605 200.282C342.245 199.898 342.954 199.706 343.733 199.706C344.309 199.706 344.874 199.834 345.429 200.09C345.994 200.336 346.442 200.666 346.773 201.082V196.826H348.613V208.666H346.773V207.338C346.474 207.765 346.058 208.117 345.525 208.394C345.002 208.672 344.399 208.81 343.717 208.81C342.949 208.81 342.245 208.618 341.605 208.234C340.975 207.84 340.474 207.296 340.101 206.602C339.738 205.898 339.557 205.104 339.557 204.218ZM346.773 204.25C346.773 203.642 346.645 203.114 346.389 202.666C346.143 202.218 345.818 201.877 345.413 201.642C345.007 201.408 344.57 201.29 344.101 201.29C343.631 201.29 343.194 201.408 342.789 201.642C342.383 201.866 342.053 202.202 341.797 202.65C341.551 203.088 341.429 203.61 341.429 204.218C341.429 204.826 341.551 205.36 341.797 205.818C342.053 206.277 342.383 206.629 342.789 206.874C343.205 207.109 343.642 207.226 344.101 207.226C344.57 207.226 345.007 207.109 345.413 206.874C345.818 206.64 346.143 206.298 346.389 205.85C346.645 205.392 346.773 204.858 346.773 204.25ZM354.992 208.81C354.16 208.81 353.408 208.624 352.736 208.25C352.064 207.866 351.536 207.333 351.152 206.65C350.768 205.957 350.576 205.157 350.576 204.25C350.576 203.354 350.774 202.56 351.168 201.866C351.563 201.173 352.102 200.64 352.784 200.266C353.467 199.893 354.23 199.706 355.072 199.706C355.915 199.706 356.678 199.893 357.36 200.266C358.043 200.64 358.582 201.173 358.976 201.866C359.371 202.56 359.568 203.354 359.568 204.25C359.568 205.146 359.366 205.941 358.96 206.634C358.555 207.328 358 207.866 357.296 208.25C356.603 208.624 355.835 208.81 354.992 208.81ZM354.992 207.226C355.462 207.226 355.899 207.114 356.304 206.89C356.72 206.666 357.056 206.33 357.312 205.882C357.568 205.434 357.696 204.89 357.696 204.25C357.696 203.61 357.574 203.072 357.328 202.634C357.083 202.186 356.758 201.85 356.352 201.626C355.947 201.402 355.51 201.29 355.04 201.29C354.571 201.29 354.134 201.402 353.728 201.626C353.334 201.85 353.019 202.186 352.784 202.634C352.55 203.072 352.432 203.61 352.432 204.25C352.432 205.2 352.672 205.936 353.152 206.458C353.643 206.97 354.256 207.226 354.992 207.226ZM88.1364 240.042C88.1364 240.373 88.1151 240.672 88.0724 240.938H81.3364C81.3898 241.642 81.6511 242.208 82.1204 242.634C82.5898 243.061 83.1658 243.274 83.8484 243.274C84.8298 243.274 85.5231 242.864 85.9284 242.042H87.8964C87.6298 242.853 87.1444 243.52 86.4404 244.042C85.7471 244.554 84.8831 244.81 83.8484 244.81C83.0058 244.81 82.2484 244.624 81.5764 244.25C80.9151 243.866 80.3924 243.333 80.0084 242.65C79.6351 241.957 79.4484 241.157 79.4484 240.25C79.4484 239.344 79.6298 238.549 79.9924 237.866C80.3658 237.173 80.8831 236.64 81.5444 236.266C82.2164 235.893 82.9844 235.706 83.8484 235.706C84.6804 235.706 85.4218 235.888 86.0724 236.25C86.7231 236.613 87.2298 237.125 87.5924 237.786C87.9551 238.437 88.1364 239.189 88.1364 240.042ZM86.2324 239.466C86.2218 238.794 85.9818 238.256 85.5124 237.85C85.0431 237.445 84.4618 237.242 83.7684 237.242C83.1391 237.242 82.6004 237.445 82.1524 237.85C81.7044 238.245 81.4378 238.784 81.3524 239.466H86.2324ZM91.0194 234.682C90.6888 234.682 90.4114 234.57 90.1874 234.346C89.9634 234.122 89.8514 233.845 89.8514 233.514C89.8514 233.184 89.9634 232.906 90.1874 232.682C90.4114 232.458 90.6888 232.346 91.0194 232.346C91.3394 232.346 91.6114 232.458 91.8354 232.682C92.0594 232.906 92.1714 233.184 92.1714 233.514C92.1714 233.845 92.0594 234.122 91.8354 234.346C91.6114 234.57 91.3394 234.682 91.0194 234.682ZM91.9154 235.85V244.666H90.0914V235.85H91.9154ZM102.454 235.85V244.666H100.63V243.626C100.342 243.989 99.9635 244.277 99.4942 244.49C99.0355 244.693 98.5449 244.794 98.0222 244.794C97.3289 244.794 96.7049 244.65 96.1502 244.362C95.6062 244.074 95.1742 243.648 94.8542 243.082C94.5449 242.517 94.3902 241.834 94.3902 241.034V235.85H96.1982V240.762C96.1982 241.552 96.3955 242.16 96.7902 242.586C97.1849 243.002 97.7235 243.21 98.4062 243.21C99.0889 243.21 99.6275 243.002 100.022 242.586C100.428 242.16 100.63 241.552 100.63 240.762V235.85H102.454ZM108.221 244.81C107.527 244.81 106.903 244.688 106.349 244.442C105.805 244.186 105.373 243.845 105.053 243.418C104.733 242.981 104.562 242.496 104.541 241.962H106.429C106.461 242.336 106.637 242.65 106.957 242.906C107.287 243.152 107.698 243.274 108.189 243.274C108.701 243.274 109.095 243.178 109.373 242.986C109.661 242.784 109.805 242.528 109.805 242.218C109.805 241.888 109.645 241.642 109.325 241.482C109.015 241.322 108.519 241.146 107.837 240.954C107.175 240.773 106.637 240.597 106.221 240.426C105.805 240.256 105.442 239.994 105.133 239.642C104.834 239.29 104.685 238.826 104.685 238.25C104.685 237.781 104.823 237.354 105.101 236.97C105.378 236.576 105.773 236.266 106.285 236.042C106.807 235.818 107.405 235.706 108.077 235.706C109.079 235.706 109.885 235.962 110.493 236.474C111.111 236.976 111.442 237.664 111.485 238.538H109.661C109.629 238.144 109.469 237.829 109.181 237.594C108.893 237.36 108.503 237.242 108.013 237.242C107.533 237.242 107.165 237.333 106.909 237.514C106.653 237.696 106.525 237.936 106.525 238.234C106.525 238.469 106.61 238.666 106.781 238.826C106.951 238.986 107.159 239.114 107.405 239.21C107.65 239.296 108.013 239.408 108.493 239.546C109.133 239.717 109.655 239.893 110.061 240.074C110.477 240.245 110.834 240.501 111.133 240.842C111.431 241.184 111.586 241.637 111.597 242.202C111.597 242.704 111.458 243.152 111.181 243.546C110.903 243.941 110.509 244.25 109.997 244.474C109.495 244.698 108.903 244.81 108.221 244.81ZM124.4 235.706C125.093 235.706 125.712 235.85 126.256 236.138C126.81 236.426 127.242 236.853 127.552 237.418C127.872 237.984 128.032 238.666 128.032 239.466V244.666H126.224V239.738C126.224 238.949 126.026 238.346 125.632 237.93C125.237 237.504 124.698 237.29 124.016 237.29C123.333 237.29 122.789 237.504 122.384 237.93C121.989 238.346 121.792 238.949 121.792 239.738V244.666H119.984V239.738C119.984 238.949 119.786 238.346 119.392 237.93C118.997 237.504 118.458 237.29 117.776 237.29C117.093 237.29 116.549 237.504 116.144 237.93C115.749 238.346 115.552 238.949 115.552 239.738V244.666H113.728V235.85H115.552V236.858C115.85 236.496 116.229 236.213 116.688 236.01C117.146 235.808 117.637 235.706 118.16 235.706C118.864 235.706 119.493 235.856 120.048 236.154C120.602 236.453 121.029 236.885 121.328 237.45C121.594 236.917 122.01 236.496 122.576 236.186C123.141 235.866 123.749 235.706 124.4 235.706ZM134.337 244.81C133.505 244.81 132.753 244.624 132.081 244.25C131.409 243.866 130.881 243.333 130.497 242.65C130.113 241.957 129.921 241.157 129.921 240.25C129.921 239.354 130.118 238.56 130.513 237.866C130.907 237.173 131.446 236.64 132.129 236.266C132.811 235.893 133.574 235.706 134.417 235.706C135.259 235.706 136.022 235.893 136.705 236.266C137.387 236.64 137.926 237.173 138.321 237.866C138.715 238.56 138.913 239.354 138.913 240.25C138.913 241.146 138.71 241.941 138.305 242.634C137.899 243.328 137.345 243.866 136.641 244.25C135.947 244.624 135.179 244.81 134.337 244.81ZM134.337 243.226C134.806 243.226 135.243 243.114 135.649 242.89C136.065 242.666 136.401 242.33 136.657 241.882C136.913 241.434 137.041 240.89 137.041 240.25C137.041 239.61 136.918 239.072 136.673 238.634C136.427 238.186 136.102 237.85 135.697 237.626C135.291 237.402 134.854 237.29 134.385 237.29C133.915 237.29 133.478 237.402 133.073 237.626C132.678 237.85 132.363 238.186 132.129 238.634C131.894 239.072 131.777 239.61 131.777 240.25C131.777 241.2 132.017 241.936 132.497 242.458C132.987 242.97 133.601 243.226 134.337 243.226ZM140.268 240.218C140.268 239.333 140.449 238.549 140.812 237.866C141.185 237.184 141.686 236.656 142.316 236.282C142.956 235.898 143.665 235.706 144.444 235.706C145.02 235.706 145.585 235.834 146.14 236.09C146.705 236.336 147.153 236.666 147.484 237.082V232.826H149.324V244.666H147.484V243.338C147.185 243.765 146.769 244.117 146.236 244.394C145.713 244.672 145.11 244.81 144.428 244.81C143.66 244.81 142.956 244.618 142.316 244.234C141.686 243.84 141.185 243.296 140.812 242.602C140.449 241.898 140.268 241.104 140.268 240.218ZM147.484 240.25C147.484 239.642 147.356 239.114 147.1 238.666C146.854 238.218 146.529 237.877 146.124 237.642C145.718 237.408 145.281 237.29 144.812 237.29C144.342 237.29 143.905 237.408 143.5 237.642C143.094 237.866 142.764 238.202 142.508 238.65C142.262 239.088 142.14 239.61 142.14 240.218C142.14 240.826 142.262 241.36 142.508 241.818C142.764 242.277 143.094 242.629 143.5 242.874C143.916 243.109 144.353 243.226 144.812 243.226C145.281 243.226 145.718 243.109 146.124 242.874C146.529 242.64 146.854 242.298 147.1 241.85C147.356 241.392 147.484 240.858 147.484 240.25ZM158.324 237.338V242.218C158.324 242.549 158.398 242.789 158.548 242.938C158.708 243.077 158.974 243.146 159.348 243.146H160.468V244.666H159.028C158.206 244.666 157.577 244.474 157.14 244.09C156.702 243.706 156.484 243.082 156.484 242.218V237.338H155.444V235.85H156.484V233.658H158.324V235.85H160.468V237.338H158.324ZM170.389 240.042C170.389 240.373 170.368 240.672 170.325 240.938H163.589C163.642 241.642 163.904 242.208 164.373 242.634C164.842 243.061 165.418 243.274 166.101 243.274C167.082 243.274 167.776 242.864 168.181 242.042H170.149C169.882 242.853 169.397 243.52 168.693 244.042C168 244.554 167.136 244.81 166.101 244.81C165.258 244.81 164.501 244.624 163.829 244.25C163.168 243.866 162.645 243.333 162.261 242.65C161.888 241.957 161.701 241.157 161.701 240.25C161.701 239.344 161.882 238.549 162.245 237.866C162.618 237.173 163.136 236.64 163.797 236.266C164.469 235.893 165.237 235.706 166.101 235.706C166.933 235.706 167.674 235.888 168.325 236.25C168.976 236.613 169.482 237.125 169.845 237.786C170.208 238.437 170.389 239.189 170.389 240.042ZM168.485 239.466C168.474 238.794 168.234 238.256 167.765 237.85C167.296 237.445 166.714 237.242 166.021 237.242C165.392 237.242 164.853 237.445 164.405 237.85C163.957 238.245 163.69 238.784 163.605 239.466H168.485ZM183.016 235.706C183.709 235.706 184.328 235.85 184.872 236.138C185.427 236.426 185.859 236.853 186.168 237.418C186.488 237.984 186.648 238.666 186.648 239.466V244.666H184.84V239.738C184.84 238.949 184.643 238.346 184.248 237.93C183.853 237.504 183.315 237.29 182.632 237.29C181.949 237.29 181.405 237.504 181 237.93C180.605 238.346 180.408 238.949 180.408 239.738V244.666H178.6V239.738C178.6 238.949 178.403 238.346 178.008 237.93C177.613 237.504 177.075 237.29 176.392 237.29C175.709 237.29 175.165 237.504 174.76 237.93C174.365 238.346 174.168 238.949 174.168 239.738V244.666H172.344V235.85H174.168V236.858C174.467 236.496 174.845 236.213 175.304 236.01C175.763 235.808 176.253 235.706 176.776 235.706C177.48 235.706 178.109 235.856 178.664 236.154C179.219 236.453 179.645 236.885 179.944 237.45C180.211 236.917 180.627 236.496 181.192 236.186C181.757 235.866 182.365 235.706 183.016 235.706ZM190.953 237.146C191.262 236.741 191.684 236.4 192.217 236.122C192.75 235.845 193.353 235.706 194.025 235.706C194.793 235.706 195.492 235.898 196.121 236.282C196.761 236.656 197.262 237.184 197.625 237.866C197.988 238.549 198.169 239.333 198.169 240.218C198.169 241.104 197.988 241.898 197.625 242.602C197.262 243.296 196.761 243.84 196.121 244.234C195.492 244.618 194.793 244.81 194.025 244.81C193.353 244.81 192.756 244.677 192.233 244.41C191.71 244.133 191.284 243.792 190.953 243.386V248.858H189.129V235.85H190.953V237.146ZM196.313 240.218C196.313 239.61 196.185 239.088 195.929 238.65C195.684 238.202 195.353 237.866 194.937 237.642C194.532 237.408 194.094 237.29 193.625 237.29C193.166 237.29 192.729 237.408 192.313 237.642C191.908 237.877 191.577 238.218 191.321 238.666C191.076 239.114 190.953 239.642 190.953 240.25C190.953 240.858 191.076 241.392 191.321 241.85C191.577 242.298 191.908 242.64 192.313 242.874C192.729 243.109 193.166 243.226 193.625 243.226C194.094 243.226 194.532 243.109 194.937 242.874C195.353 242.629 195.684 242.277 195.929 241.818C196.185 241.36 196.313 240.826 196.313 240.218ZM203.957 244.81C203.125 244.81 202.373 244.624 201.701 244.25C201.029 243.866 200.501 243.333 200.117 242.65C199.733 241.957 199.541 241.157 199.541 240.25C199.541 239.354 199.738 238.56 200.133 237.866C200.527 237.173 201.066 236.64 201.749 236.266C202.431 235.893 203.194 235.706 204.037 235.706C204.879 235.706 205.642 235.893 206.325 236.266C207.007 236.64 207.546 237.173 207.941 237.866C208.335 238.56 208.533 239.354 208.533 240.25C208.533 241.146 208.33 241.941 207.925 242.634C207.519 243.328 206.965 243.866 206.261 244.25C205.567 244.624 204.799 244.81 203.957 244.81ZM203.957 243.226C204.426 243.226 204.863 243.114 205.269 242.89C205.685 242.666 206.021 242.33 206.277 241.882C206.533 241.434 206.661 240.89 206.661 240.25C206.661 239.61 206.538 239.072 206.293 238.634C206.047 238.186 205.722 237.85 205.317 237.626C204.911 237.402 204.474 237.29 204.005 237.29C203.535 237.29 203.098 237.402 202.693 237.626C202.298 237.85 201.983 238.186 201.749 238.634C201.514 239.072 201.397 239.61 201.397 240.25C201.397 241.2 201.637 241.936 202.117 242.458C202.607 242.97 203.221 243.226 203.957 243.226ZM212.32 237.13C212.586 236.682 212.938 236.336 213.376 236.09C213.824 235.834 214.352 235.706 214.96 235.706V237.594H214.496C213.781 237.594 213.237 237.776 212.864 238.138C212.501 238.501 212.32 239.13 212.32 240.026V244.666H210.496V235.85H212.32V237.13ZM224.313 244.81C223.619 244.81 222.995 244.688 222.441 244.442C221.897 244.186 221.465 243.845 221.145 243.418C220.825 242.981 220.654 242.496 220.633 241.962H222.521C222.553 242.336 222.729 242.65 223.049 242.906C223.379 243.152 223.79 243.274 224.281 243.274C224.793 243.274 225.187 243.178 225.465 242.986C225.753 242.784 225.897 242.528 225.897 242.218C225.897 241.888 225.737 241.642 225.417 241.482C225.107 241.322 224.611 241.146 223.929 240.954C223.267 240.773 222.729 240.597 222.313 240.426C221.897 240.256 221.534 239.994 221.225 239.642C220.926 239.29 220.777 238.826 220.777 238.25C220.777 237.781 220.915 237.354 221.193 236.97C221.47 236.576 221.865 236.266 222.377 236.042C222.899 235.818 223.497 235.706 224.169 235.706C225.171 235.706 225.977 235.962 226.585 236.474C227.203 236.976 227.534 237.664 227.577 238.538H225.753C225.721 238.144 225.561 237.829 225.273 237.594C224.985 237.36 224.595 237.242 224.105 237.242C223.625 237.242 223.257 237.333 223.001 237.514C222.745 237.696 222.617 237.936 222.617 238.234C222.617 238.469 222.702 238.666 222.873 238.826C223.043 238.986 223.251 239.114 223.497 239.21C223.742 239.296 224.105 239.408 224.585 239.546C225.225 239.717 225.747 239.893 226.153 240.074C226.569 240.245 226.926 240.501 227.225 240.842C227.523 241.184 227.678 241.637 227.689 242.202C227.689 242.704 227.55 243.152 227.273 243.546C226.995 243.941 226.601 244.25 226.089 244.474C225.587 244.698 224.995 244.81 224.313 244.81Z" fill="#12082D" fill-opacity="0.7"/>
<path d="M182.087 300.532C181.303 299.78 180.699 298.824 180.275 297.664C179.859 296.504 179.651 295.26 179.651 293.932C179.651 292.572 179.875 291.288 180.323 290.08C180.779 288.872 181.447 287.876 182.327 287.092H183.743V287.224C182.823 288.072 182.131 289.088 181.667 290.272C181.203 291.456 180.971 292.676 180.971 293.932C180.971 295.14 181.187 296.308 181.619 297.436C182.051 298.564 182.679 299.552 183.503 300.4V300.532H182.087ZM184.657 296.74V295.084L188.449 289.66H190.741V294.964H191.725V296.74H190.741V298.3H188.689V296.74H184.657ZM188.833 291.916L186.817 294.964H188.833V291.916ZM193.894 298.396C193.534 298.396 193.238 298.292 193.006 298.084C192.782 297.868 192.67 297.604 192.67 297.292C192.67 296.972 192.782 296.704 193.006 296.488C193.238 296.272 193.534 296.164 193.894 296.164C194.246 296.164 194.534 296.272 194.758 296.488C194.99 296.704 195.106 296.972 195.106 297.292C195.106 297.604 194.99 297.868 194.758 298.084C194.534 298.292 194.246 298.396 193.894 298.396ZM200.449 291.904C200.385 291.608 200.273 291.388 200.113 291.244C199.953 291.092 199.725 291.016 199.429 291.016C198.973 291.016 198.645 291.216 198.445 291.616C198.245 292.008 198.141 292.632 198.133 293.488C198.309 293.208 198.561 292.988 198.889 292.828C199.225 292.668 199.593 292.588 199.993 292.588C200.777 292.588 201.405 292.836 201.877 293.332C202.357 293.828 202.597 294.52 202.597 295.408C202.597 295.992 202.477 296.504 202.237 296.944C202.005 297.384 201.661 297.728 201.205 297.976C200.757 298.224 200.225 298.348 199.609 298.348C198.377 298.348 197.521 297.964 197.041 297.196C196.561 296.42 196.321 295.308 196.321 293.86C196.321 292.34 196.573 291.212 197.077 290.476C197.589 289.732 198.405 289.36 199.525 289.36C200.125 289.36 200.629 289.48 201.037 289.72C201.453 289.952 201.765 290.26 201.973 290.644C202.189 291.028 202.317 291.448 202.357 291.904H200.449ZM199.501 294.208C199.157 294.208 198.869 294.312 198.637 294.52C198.413 294.72 198.301 295.008 198.301 295.384C198.301 295.768 198.405 296.068 198.613 296.284C198.829 296.5 199.133 296.608 199.525 296.608C199.877 296.608 200.153 296.504 200.353 296.296C200.561 296.08 200.665 295.788 200.665 295.42C200.665 295.044 200.565 294.748 200.365 294.532C200.165 294.316 199.877 294.208 199.501 294.208ZM211.675 286.972L208.411 300.4H207.067L210.319 286.972H211.675ZM221.976 290.728H217.956V293.116C218.124 292.892 218.372 292.704 218.7 292.552C219.036 292.4 219.392 292.324 219.768 292.324C220.44 292.324 220.984 292.468 221.4 292.756C221.824 293.044 222.124 293.408 222.3 293.848C222.484 294.288 222.576 294.752 222.576 295.24C222.576 295.832 222.46 296.36 222.228 296.824C222.004 297.28 221.664 297.64 221.208 297.904C220.76 298.168 220.208 298.3 219.552 298.3C218.68 298.3 217.98 298.084 217.452 297.652C216.924 297.22 216.608 296.648 216.504 295.936H217.836C217.924 296.312 218.12 296.612 218.424 296.836C218.728 297.052 219.108 297.16 219.564 297.16C220.132 297.16 220.556 296.988 220.836 296.644C221.124 296.3 221.268 295.844 221.268 295.276C221.268 294.7 221.124 294.26 220.836 293.956C220.548 293.644 220.124 293.488 219.564 293.488C219.172 293.488 218.84 293.588 218.568 293.788C218.304 293.98 218.112 294.244 217.992 294.58H216.696V289.528H221.976V290.728ZM224.732 298.384C224.484 298.384 224.276 298.3 224.108 298.132C223.94 297.964 223.856 297.756 223.856 297.508C223.856 297.26 223.94 297.052 224.108 296.884C224.276 296.716 224.484 296.632 224.732 296.632C224.972 296.632 225.176 296.716 225.344 296.884C225.512 297.052 225.596 297.26 225.596 297.508C225.596 297.756 225.512 297.964 225.344 298.132C225.176 298.3 224.972 298.384 224.732 298.384ZM226.895 293.812C226.895 292.428 227.127 291.348 227.591 290.572C228.063 289.788 228.871 289.396 230.015 289.396C231.159 289.396 231.963 289.788 232.427 290.572C232.899 291.348 233.135 292.428 233.135 293.812C233.135 295.212 232.899 296.308 232.427 297.1C231.963 297.884 231.159 298.276 230.015 298.276C228.871 298.276 228.063 297.884 227.591 297.1C227.127 296.308 226.895 295.212 226.895 293.812ZM231.791 293.812C231.791 293.164 231.747 292.616 231.659 292.168C231.579 291.72 231.411 291.356 231.155 291.076C230.899 290.788 230.519 290.644 230.015 290.644C229.511 290.644 229.131 290.788 228.875 291.076C228.619 291.356 228.447 291.72 228.359 292.168C228.279 292.616 228.239 293.164 228.239 293.812C228.239 294.484 228.279 295.048 228.359 295.504C228.439 295.96 228.607 296.328 228.863 296.608C229.127 296.888 229.511 297.028 230.015 297.028C230.519 297.028 230.899 296.888 231.155 296.608C231.419 296.328 231.591 295.96 231.671 295.504C231.751 295.048 231.791 294.484 231.791 293.812ZM234.426 300.532V300.4C235.25 299.552 235.878 298.564 236.31 297.436C236.742 296.308 236.958 295.14 236.958 293.932C236.958 292.676 236.726 291.456 236.262 290.272C235.798 289.088 235.106 288.072 234.186 287.224V287.092H235.602C236.482 287.876 237.146 288.872 237.594 290.08C238.05 291.288 238.278 292.572 238.278 293.932C238.278 295.26 238.066 296.504 237.642 297.664C237.226 298.824 236.626 299.78 235.842 300.532H234.426Z" fill="#636366"/>
<path fill-rule="evenodd" clip-rule="evenodd" d="M90.3553 299.604C90.2518 299.604 90.1477 299.58 90.0521 299.531L86.7135 297.808L83.3755 299.531C83.1542 299.644 82.887 299.624 82.6867 299.48C82.485 299.335 82.3848 299.09 82.4274 298.847L83.0632 295.208L80.3656 292.631C80.1862 292.46 80.1213 292.202 80.1979 291.967C80.2745 291.733 80.4795 291.562 80.727 291.527L84.4591 290.991L86.1275 287.677C86.3488 287.237 87.0788 287.237 87.3001 287.677L88.9685 290.991L92.7006 291.527C92.9481 291.562 93.1531 291.733 93.2297 291.967C93.3063 292.202 93.2414 292.46 93.062 292.631L90.3644 295.208L91.0002 298.847C91.0428 299.09 90.9419 299.335 90.7409 299.48C90.627 299.562 90.4914 299.604 90.3553 299.604Z" fill="#FFBB0B"/>
<mask id="mask0_504_908" style="mask-type:alpha" maskUnits="userSpaceOnUse" x="80" y="287" width="14" height="13">
<path fill-rule="evenodd" clip-rule="evenodd" d="M90.3553 299.983C90.2518 299.983 90.1477 299.959 90.0521 299.91L86.7135 298.187L83.3755 299.91C83.1542 300.023 82.887 300.004 82.6867 299.859C82.485 299.714 82.3848 299.469 82.4274 299.227L83.0632 295.587L80.3656 293.011C80.1862 292.839 80.1213 292.582 80.1979 292.346C80.2745 292.112 80.4795 291.941 80.727 291.906L84.4591 291.371L86.1275 288.056C86.3488 287.616 87.0788 287.616 87.3001 288.056L88.9685 291.371L92.7006 291.906C92.9481 291.941 93.1531 292.112 93.2297 292.346C93.3063 292.582 93.2415 292.839 93.062 293.011L90.3644 295.587L91.0002 299.227C91.0428 299.469 90.9419 299.714 90.7409 299.859C90.627 299.942 90.4914 299.983 90.3553 299.983Z" fill="white"/>
</mask>
<g mask="url(#mask0_504_908)">
<rect x="78.8564" y="286.404" width="15.7143" height="15.5191" fill="#FFBB0B"/>
</g>
<path fill-rule="evenodd" clip-rule="evenodd" d="M109.213 299.604C109.11 299.604 109.006 299.58 108.91 299.531L105.571 297.808L102.233 299.531C102.012 299.644 101.745 299.624 101.545 299.48C101.343 299.335 101.243 299.09 101.285 298.847L101.921 295.208L99.2235 292.631C99.0441 292.46 98.9792 292.202 99.0558 291.967C99.1325 291.733 99.3374 291.562 99.5849 291.527L103.317 290.991L104.985 287.677C105.207 287.237 105.937 287.237 106.158 287.677L107.826 290.991L111.559 291.527C111.806 291.562 112.011 291.733 112.088 291.967C112.164 292.202 112.099 292.46 111.92 292.631L109.222 295.208L109.858 298.847C109.901 299.09 109.8 299.335 109.599 299.48C109.485 299.562 109.349 299.604 109.213 299.604Z" fill="#FFBB0B"/>
<mask id="mask1_504_908" style="mask-type:alpha" maskUnits="userSpaceOnUse" x="99" y="287" width="14" height="13">
<path fill-rule="evenodd" clip-rule="evenodd" d="M109.213 299.983C109.11 299.983 109.006 299.959 108.91 299.91L105.571 298.187L102.233 299.91C102.012 300.023 101.745 300.004 101.545 299.859C101.343 299.714 101.243 299.469 101.285 299.227L101.921 295.587L99.2235 293.011C99.0441 292.839 98.9792 292.582 99.0558 292.346C99.1325 292.112 99.3374 291.941 99.5849 291.906L103.317 291.371L104.985 288.056C105.207 287.616 105.937 287.616 106.158 288.056L107.826 291.371L111.559 291.906C111.806 291.941 112.011 292.112 112.088 292.346C112.164 292.582 112.099 292.839 111.92 293.011L109.222 295.587L109.858 299.227C109.901 299.469 109.8 299.714 109.599 299.859C109.485 299.942 109.349 299.983 109.213 299.983Z" fill="white"/>
</mask>
<g mask="url(#mask1_504_908)">
<rect x="97.7144" y="286.404" width="15.7143" height="15.5191" fill="#FFBB0B"/>
</g>
<path fill-rule="evenodd" clip-rule="evenodd" d="M128.069 299.604C127.966 299.604 127.862 299.58 127.766 299.531L124.427 297.808L121.089 299.531C120.868 299.644 120.601 299.624 120.401 299.48C120.199 299.335 120.099 299.09 120.141 298.847L120.777 295.208L118.079 292.631C117.9 292.46 117.835 292.202 117.912 291.967C117.988 291.733 118.193 291.562 118.441 291.527L122.173 290.991L123.841 287.677C124.063 287.237 124.793 287.237 125.014 287.677L126.682 290.991L130.414 291.527C130.662 291.562 130.867 291.733 130.944 291.967C131.02 292.202 130.955 292.46 130.776 292.631L128.078 295.208L128.714 298.847C128.757 299.09 128.656 299.335 128.455 299.48C128.341 299.562 128.205 299.604 128.069 299.604Z" fill="#FFBB0B"/>
<mask id="mask2_504_908" style="mask-type:alpha" maskUnits="userSpaceOnUse" x="117" y="287" width="14" height="13">
<path fill-rule="evenodd" clip-rule="evenodd" d="M128.069 299.983C127.966 299.983 127.862 299.959 127.766 299.91L124.427 298.187L121.089 299.91C120.868 300.023 120.601 300.004 120.401 299.859C120.199 299.714 120.099 299.469 120.141 299.227L120.777 295.587L118.079 293.011C117.9 292.839 117.835 292.582 117.912 292.346C117.988 292.112 118.193 291.941 118.441 291.906L122.173 291.371L123.841 288.056C124.063 287.616 124.793 287.616 125.014 288.056L126.682 291.371L130.414 291.906C130.662 291.941 130.867 292.112 130.944 292.346C131.02 292.582 130.955 292.839 130.776 293.011L128.078 295.587L128.714 299.227C128.757 299.469 128.656 299.714 128.455 299.859C128.341 299.942 128.205 299.983 128.069 299.983Z" fill="white"/>
</mask>
<g mask="url(#mask2_504_908)">
<rect x="116.57" y="286.404" width="15.7143" height="15.5191" fill="#FFBB0B"/>
</g>
<path fill-rule="evenodd" clip-rule="evenodd" d="M146.927 299.604C146.824 299.604 146.719 299.58 146.624 299.531L143.285 297.808L139.947 299.531C139.726 299.644 139.459 299.624 139.258 299.48C139.057 299.335 138.957 299.09 138.999 298.847L139.635 295.208L136.937 292.631C136.758 292.46 136.693 292.202 136.77 291.967C136.846 291.733 137.051 291.562 137.299 291.527L141.031 290.991L142.699 287.677C142.921 287.237 143.651 287.237 143.872 287.677L145.54 290.991L149.272 291.527C149.52 291.562 149.725 291.733 149.801 291.967C149.878 292.202 149.813 292.46 149.634 292.631L146.936 295.208L147.572 298.847C147.615 299.09 147.514 299.335 147.313 299.48C147.199 299.562 147.063 299.604 146.927 299.604Z" fill="#FFBB0B"/>
<mask id="mask3_504_908" style="mask-type:alpha" maskUnits="userSpaceOnUse" x="136" y="287" width="14" height="13">
<path fill-rule="evenodd" clip-rule="evenodd" d="M146.927 299.983C146.824 299.983 146.719 299.959 146.624 299.91L143.285 298.187L139.947 299.91C139.726 300.023 139.459 300.004 139.258 299.859C139.057 299.714 138.957 299.469 138.999 299.227L139.635 295.587L136.937 293.011C136.758 292.839 136.693 292.582 136.77 292.346C136.846 292.112 137.051 291.941 137.299 291.906L141.031 291.371L142.699 288.056C142.921 287.616 143.651 287.616 143.872 288.056L145.54 291.371L149.272 291.906C149.52 291.941 149.725 292.112 149.801 292.346C149.878 292.582 149.813 292.839 149.634 293.011L146.936 295.587L147.572 299.227C147.615 299.469 147.514 299.714 147.313 299.859C147.199 299.942 147.063 299.983 146.927 299.983Z" fill="white"/>
</mask>
<g mask="url(#mask3_504_908)">
<rect x="135.428" y="286.404" width="15.7143" height="15.5191" fill="#FFBB0B"/>
</g>
<path fill-rule="evenodd" clip-rule="evenodd" d="M165.783 299.604C165.68 299.604 165.576 299.58 165.48 299.531L162.141 297.808L158.803 299.531C158.582 299.644 158.315 299.624 158.115 299.48C157.913 299.335 157.813 299.09 157.855 298.847L158.491 295.208L155.794 292.631C155.614 292.46 155.549 292.202 155.626 291.967C155.703 291.733 155.907 291.562 156.155 291.527L159.887 290.991L161.555 287.677C161.777 287.237 162.507 287.237 162.728 287.677L164.396 290.991L168.129 291.527C168.376 291.562 168.581 291.733 168.658 291.967C168.734 292.202 168.669 292.46 168.49 292.631L165.792 295.208L166.428 298.847C166.471 299.09 166.37 299.335 166.169 299.48C166.055 299.562 165.919 299.604 165.783 299.604Z" fill="#C0CCDA"/>
<mask id="mask4_504_908" style="mask-type:alpha" maskUnits="userSpaceOnUse" x="155" y="287" width="14" height="13">
<path fill-rule="evenodd" clip-rule="evenodd" d="M165.783 299.983C165.68 299.983 165.576 299.959 165.48 299.91L162.141 298.187L158.803 299.91C158.582 300.023 158.315 300.004 158.115 299.859C157.913 299.714 157.813 299.469 157.855 299.227L158.491 295.587L155.794 293.011C155.614 292.839 155.549 292.582 155.626 292.346C155.703 292.112 155.907 291.941 156.155 291.906L159.887 291.371L161.555 288.056C161.777 287.616 162.507 287.616 162.728 288.056L164.396 291.371L168.129 291.906C168.376 291.941 168.581 292.112 168.658 292.346C168.734 292.582 168.669 292.839 168.49 293.011L165.792 295.587L166.428 299.227C166.471 299.469 166.37 299.714 166.169 299.859C166.055 299.942 165.919 299.983 165.783 299.983Z" fill="white"/>
</mask>
<g mask="url(#mask4_504_908)">
<rect x="154.284" y="286.404" width="15.7143" height="15.5191" fill="#C0CCDA"/>
</g>
<defs>
<filter id="filter0_d_504_908" x="-73" y="0" width="563" height="448.305" filterUnits="userSpaceOnUse" color-interpolation-filters="sRGB">
<feFlood flood-opacity="0" result="BackgroundImageFix"/>
<feColorMatrix in="SourceAlpha" type="matrix" values="0 0 0 0 0 0 0 0 0 0 0 0 0 0 0 0 0 0 127 0" result="hardAlpha"/>
<feOffset dy="20"/>
<feGaussianBlur stdDeviation="50"/>
<feColorMatrix type="matrix" values="0 0 0 0 0 0 0 0 0 0 0 0 0 0 0 0 0 0 0.05 0"/>
<feBlend mode="normal" in2="BackgroundImageFix" result="effect1_dropShadow_504_908"/>
<feBlend mode="normal" in="SourceGraphic" in2="effect1_dropShadow_504_908" result="shape"/>
</filter>
</defs>
</svg>
