<svg width="239" height="30" viewBox="0 0 239 30" fill="none" xmlns="http://www.w3.org/2000/svg">
<path d="M37.816 19.832C39.1707 18.744 40.232 17.8533 41 17.16C41.768 16.456 42.4133 15.7253 42.936 14.968C43.4693 14.2 43.736 13.448 43.736 12.712C43.736 12.0187 43.5653 11.4747 43.224 11.08C42.8933 10.6747 42.3547 10.472 41.608 10.472C40.8827 10.472 40.3173 10.7013 39.912 11.16C39.5173 11.608 39.304 12.2107 39.272 12.968H37.864C37.9067 11.7733 38.2693 10.8507 38.952 10.2C39.6347 9.54933 40.5147 9.224 41.592 9.224C42.6907 9.224 43.56 9.528 44.2 10.136C44.8507 10.744 45.176 11.5813 45.176 12.648C45.176 13.5333 44.9093 14.3973 44.376 15.24C43.8533 16.072 43.256 16.808 42.584 17.448C41.912 18.0773 41.0533 18.8133 40.008 19.656H45.512V20.872H37.816V19.832ZM47.1951 15.096C47.1951 13.2613 47.4938 11.832 48.0911 10.808C48.6885 9.77333 49.7338 9.256 51.2271 9.256C52.7098 9.256 53.7498 9.77333 54.3471 10.808C54.9445 11.832 55.2431 13.2613 55.2431 15.096C55.2431 16.9627 54.9445 18.4133 54.3471 19.448C53.7498 20.4827 52.7098 21 51.2271 21C49.7338 21 48.6885 20.4827 48.0911 19.448C47.4938 18.4133 47.1951 16.9627 47.1951 15.096ZM53.8031 15.096C53.8031 14.168 53.7391 13.384 53.6111 12.744C53.4938 12.0933 53.2431 11.5707 52.8591 11.176C52.4858 10.7813 51.9418 10.584 51.2271 10.584C50.5018 10.584 49.9471 10.7813 49.5631 11.176C49.1898 11.5707 48.9391 12.0933 48.8111 12.744C48.6938 13.384 48.6351 14.168 48.6351 15.096C48.6351 16.056 48.6938 16.8613 48.8111 17.512C48.9391 18.1627 49.1898 18.6853 49.5631 19.08C49.9471 19.4747 50.5018 19.672 51.2271 19.672C51.9418 19.672 52.4858 19.4747 52.8591 19.08C53.2431 18.6853 53.4938 18.1627 53.6111 17.512C53.7391 16.8613 53.8031 16.056 53.8031 15.096ZM57.066 19.832C58.4207 18.744 59.482 17.8533 60.25 17.16C61.018 16.456 61.6633 15.7253 62.186 14.968C62.7193 14.2 62.986 13.448 62.986 12.712C62.986 12.0187 62.8153 11.4747 62.474 11.08C62.1433 10.6747 61.6047 10.472 60.858 10.472C60.1327 10.472 59.5673 10.7013 59.162 11.16C58.7673 11.608 58.554 12.2107 58.522 12.968H57.114C57.1567 11.7733 57.5193 10.8507 58.202 10.2C58.8847 9.54933 59.7647 9.224 60.842 9.224C61.9407 9.224 62.81 9.528 63.45 10.136C64.1007 10.744 64.426 11.5813 64.426 12.648C64.426 13.5333 64.1593 14.3973 63.626 15.24C63.1033 16.072 62.506 16.808 61.834 17.448C61.162 18.0773 60.3033 18.8133 59.258 19.656H64.762V20.872H57.066V19.832ZM66.0611 10.76V9.432H69.0691V21H67.5971V10.76H66.0611ZM82.1558 14.52V15.752H75.7718V14.52H82.1558ZM84.4723 19.832C85.8269 18.744 86.8883 17.8533 87.6562 17.16C88.4243 16.456 89.0696 15.7253 89.5923 14.968C90.1256 14.2 90.3923 13.448 90.3923 12.712C90.3923 12.0187 90.2216 11.4747 89.8803 11.08C89.5496 10.6747 89.0109 10.472 88.2643 10.472C87.5389 10.472 86.9736 10.7013 86.5683 11.16C86.1736 11.608 85.9603 12.2107 85.9283 12.968H84.5203C84.5629 11.7733 84.9256 10.8507 85.6083 10.2C86.2909 9.54933 87.1709 9.224 88.2483 9.224C89.3469 9.224 90.2163 9.528 90.8563 10.136C91.5069 10.744 91.8323 11.5813 91.8323 12.648C91.8323 13.5333 91.5656 14.3973 91.0323 15.24C90.5096 16.072 89.9123 16.808 89.2403 17.448C88.5683 18.0773 87.7096 18.8133 86.6643 19.656H92.1683V20.872H84.4723V19.832ZM93.8514 15.096C93.8514 13.2613 94.15 11.832 94.7474 10.808C95.3447 9.77333 96.39 9.256 97.8834 9.256C99.366 9.256 100.406 9.77333 101.003 10.808C101.601 11.832 101.899 13.2613 101.899 15.096C101.899 16.9627 101.601 18.4133 101.003 19.448C100.406 20.4827 99.366 21 97.8834 21C96.39 21 95.3447 20.4827 94.7474 19.448C94.15 18.4133 93.8514 16.9627 93.8514 15.096ZM100.459 15.096C100.459 14.168 100.395 13.384 100.267 12.744C100.15 12.0933 99.8994 11.5707 99.5154 11.176C99.142 10.7813 98.598 10.584 97.8834 10.584C97.158 10.584 96.6034 10.7813 96.2194 11.176C95.846 11.5707 95.5954 12.0933 95.4674 12.744C95.35 13.384 95.2914 14.168 95.2914 15.096C95.2914 16.056 95.35 16.8613 95.4674 17.512C95.5954 18.1627 95.846 18.6853 96.2194 19.08C96.6034 19.4747 97.158 19.672 97.8834 19.672C98.598 19.672 99.142 19.4747 99.5154 19.08C99.8994 18.6853 100.15 18.1627 100.267 17.512C100.395 16.8613 100.459 16.056 100.459 15.096ZM103.722 19.832C105.077 18.744 106.138 17.8533 106.906 17.16C107.674 16.456 108.32 15.7253 108.842 14.968C109.376 14.2 109.642 13.448 109.642 12.712C109.642 12.0187 109.472 11.4747 109.13 11.08C108.8 10.6747 108.261 10.472 107.514 10.472C106.789 10.472 106.224 10.7013 105.818 11.16C105.424 11.608 105.21 12.2107 105.178 12.968H103.77C103.813 11.7733 104.176 10.8507 104.858 10.2C105.541 9.54933 106.421 9.224 107.498 9.224C108.597 9.224 109.466 9.528 110.106 10.136C110.757 10.744 111.082 11.5813 111.082 12.648C111.082 13.5333 110.816 14.3973 110.282 15.24C109.76 16.072 109.162 16.808 108.49 17.448C107.818 18.0773 106.96 18.8133 105.914 19.656H111.418V20.872H103.722V19.832ZM112.925 19.832C114.28 18.744 115.341 17.8533 116.109 17.16C116.877 16.456 117.523 15.7253 118.045 14.968C118.579 14.2 118.845 13.448 118.845 12.712C118.845 12.0187 118.675 11.4747 118.333 11.08C118.003 10.6747 117.464 10.472 116.717 10.472C115.992 10.472 115.427 10.7013 115.021 11.16C114.627 11.608 114.413 12.2107 114.381 12.968H112.973C113.016 11.7733 113.379 10.8507 114.061 10.2C114.744 9.54933 115.624 9.224 116.701 9.224C117.8 9.224 118.669 9.528 119.309 10.136C119.96 10.744 120.285 11.5813 120.285 12.648C120.285 13.5333 120.019 14.3973 119.485 15.24C118.963 16.072 118.365 16.808 117.693 17.448C117.021 18.0773 116.163 18.8133 115.117 19.656H120.621V20.872H112.925V19.832ZM126.266 15.416C126.266 14.328 126.511 13.352 127.002 12.488C127.493 11.6133 128.159 10.9307 129.002 10.44C129.855 9.94933 130.799 9.704 131.834 9.704C133.05 9.704 134.111 9.99733 135.018 10.584C135.925 11.1707 136.586 12.0027 137.002 13.08H135.258C134.949 12.408 134.501 11.8907 133.914 11.528C133.338 11.1653 132.645 10.984 131.834 10.984C131.055 10.984 130.357 11.1653 129.738 11.528C129.119 11.8907 128.634 12.408 128.282 13.08C127.93 13.7413 127.754 14.52 127.754 15.416C127.754 16.3013 127.93 17.08 128.282 17.752C128.634 18.4133 129.119 18.9253 129.738 19.288C130.357 19.6507 131.055 19.832 131.834 19.832C132.645 19.832 133.338 19.656 133.914 19.304C134.501 18.9413 134.949 18.424 135.258 17.752H137.002C136.586 18.8187 135.925 19.6453 135.018 20.232C134.111 20.808 133.05 21.096 131.834 21.096C130.799 21.096 129.855 20.856 129.002 20.376C128.159 19.8853 127.493 19.208 127.002 18.344C126.511 17.48 126.266 16.504 126.266 15.416ZM142.994 21.144C142.172 21.144 141.426 20.9573 140.754 20.584C140.092 20.2107 139.57 19.6827 139.186 19C138.812 18.3067 138.626 17.5067 138.626 16.6C138.626 15.704 138.818 14.9147 139.202 14.232C139.596 13.5387 140.13 13.0107 140.802 12.648C141.474 12.2747 142.226 12.088 143.058 12.088C143.89 12.088 144.642 12.2747 145.314 12.648C145.986 13.0107 146.514 13.5333 146.898 14.216C147.292 14.8987 147.49 15.6933 147.49 16.6C147.49 17.5067 147.287 18.3067 146.882 19C146.487 19.6827 145.948 20.2107 145.266 20.584C144.583 20.9573 143.826 21.144 142.994 21.144ZM142.994 19.864C143.516 19.864 144.007 19.7413 144.466 19.496C144.924 19.2507 145.292 18.8827 145.57 18.392C145.858 17.9013 146.002 17.304 146.002 16.6C146.002 15.896 145.863 15.2987 145.586 14.808C145.308 14.3173 144.946 13.9547 144.498 13.72C144.05 13.4747 143.564 13.352 143.042 13.352C142.508 13.352 142.018 13.4747 141.57 13.72C141.132 13.9547 140.78 14.3173 140.514 14.808C140.247 15.2987 140.114 15.896 140.114 16.6C140.114 17.3147 140.242 17.9173 140.498 18.408C140.764 18.8987 141.116 19.2667 141.554 19.512C141.991 19.7467 142.471 19.864 142.994 19.864ZM150.86 13.656C151.116 13.1547 151.479 12.7653 151.948 12.488C152.428 12.2107 153.009 12.072 153.692 12.072V13.576H153.308C151.676 13.576 150.86 14.4613 150.86 16.232V21H149.404V12.232H150.86V13.656ZM163.373 16.28C163.373 16.5573 163.357 16.8507 163.325 17.16H156.317C156.37 18.024 156.663 18.7013 157.197 19.192C157.741 19.672 158.397 19.912 159.165 19.912C159.794 19.912 160.317 19.768 160.733 19.48C161.159 19.1813 161.458 18.7867 161.629 18.296H163.197C162.962 19.1387 162.493 19.8267 161.789 20.36C161.085 20.8827 160.21 21.144 159.165 21.144C158.333 21.144 157.586 20.9573 156.925 20.584C156.274 20.2107 155.762 19.6827 155.389 19C155.015 18.3067 154.829 17.5067 154.829 16.6C154.829 15.6933 155.01 14.8987 155.373 14.216C155.735 13.5333 156.242 13.0107 156.893 12.648C157.554 12.2747 158.311 12.088 159.165 12.088C159.997 12.088 160.733 12.2693 161.373 12.632C162.013 12.9947 162.503 13.496 162.845 14.136C163.197 14.7653 163.373 15.48 163.373 16.28ZM161.869 15.976C161.869 15.4213 161.746 14.9467 161.501 14.552C161.255 14.1467 160.919 13.8427 160.493 13.64C160.077 13.4267 159.613 13.32 159.101 13.32C158.365 13.32 157.735 13.5547 157.213 14.024C156.701 14.4933 156.407 15.144 156.333 15.976H161.869ZM166.751 13.864C167.049 13.3413 167.487 12.9147 168.062 12.584C168.639 12.2533 169.295 12.088 170.031 12.088C170.82 12.088 171.529 12.2747 172.159 12.648C172.788 13.0213 173.284 13.5493 173.647 14.232C174.009 14.904 174.191 15.688 174.191 16.584C174.191 17.4693 174.009 18.2587 173.647 18.952C173.284 19.6453 172.782 20.184 172.142 20.568C171.513 20.952 170.809 21.144 170.031 21.144C169.273 21.144 168.607 20.9787 168.031 20.648C167.465 20.3173 167.039 19.896 166.751 19.384V21H165.295V9.16H166.751V13.864ZM172.703 16.584C172.703 15.9227 172.569 15.3467 172.303 14.856C172.036 14.3653 171.673 13.992 171.215 13.736C170.767 13.48 170.271 13.352 169.727 13.352C169.193 13.352 168.697 13.4853 168.239 13.752C167.791 14.008 167.428 14.3867 167.151 14.888C166.884 15.3787 166.751 15.9493 166.751 16.6C166.751 17.2613 166.884 17.8427 167.151 18.344C167.428 18.8347 167.791 19.2133 168.239 19.48C168.697 19.736 169.193 19.864 169.727 19.864C170.271 19.864 170.767 19.736 171.215 19.48C171.673 19.2133 172.036 18.8347 172.303 18.344C172.569 17.8427 172.703 17.256 172.703 16.584ZM175.563 16.584C175.563 15.688 175.744 14.904 176.107 14.232C176.47 13.5493 176.966 13.0213 177.595 12.648C178.235 12.2747 178.944 12.088 179.723 12.088C180.491 12.088 181.158 12.2533 181.723 12.584C182.288 12.9147 182.71 13.3307 182.987 13.832V12.232H184.459V21H182.987V19.368C182.699 19.88 182.267 20.3067 181.691 20.648C181.126 20.9787 180.464 21.144 179.707 21.144C178.928 21.144 178.224 20.952 177.595 20.568C176.966 20.184 176.47 19.6453 176.107 18.952C175.744 18.2587 175.563 17.4693 175.563 16.584ZM182.987 16.6C182.987 15.9387 182.854 15.3627 182.587 14.872C182.32 14.3813 181.958 14.008 181.499 13.752C181.051 13.4853 180.555 13.352 180.011 13.352C179.467 13.352 178.971 13.48 178.523 13.736C178.075 13.992 177.718 14.3653 177.451 14.856C177.184 15.3467 177.051 15.9227 177.051 16.584C177.051 17.256 177.184 17.8427 177.451 18.344C177.718 18.8347 178.075 19.2133 178.523 19.48C178.971 19.736 179.467 19.864 180.011 19.864C180.555 19.864 181.051 19.736 181.499 19.48C181.958 19.2133 182.32 18.8347 182.587 18.344C182.854 17.8427 182.987 17.2613 182.987 16.6ZM191.192 12.072C192.258 12.072 193.122 12.3973 193.784 13.048C194.445 13.688 194.776 14.616 194.776 15.832V21H193.336V16.04C193.336 15.1653 193.117 14.4987 192.68 14.04C192.242 13.5707 191.645 13.336 190.888 13.336C190.12 13.336 189.506 13.576 189.048 14.056C188.6 14.536 188.376 15.2347 188.376 16.152V21H186.92V12.232H188.376V13.48C188.664 13.032 189.053 12.6853 189.544 12.44C190.045 12.1947 190.594 12.072 191.192 12.072ZM202.05 21L198.61 17.128V21H197.154V9.16H198.61V16.12L201.986 12.232H204.018L199.89 16.6L204.034 21H202.05ZM220.966 9.928V21H219.51V12.744L215.83 21H214.806L211.11 12.728V21H209.654V9.928H211.222L215.318 19.08L219.414 9.928H220.966ZM227.003 13.432H225.163V21H223.707V13.432H222.571V12.232H223.707V11.608C223.707 10.6267 223.958 9.912 224.459 9.464C224.971 9.00533 225.787 8.776 226.907 8.776V9.992C226.267 9.992 225.814 10.12 225.547 10.376C225.291 10.6213 225.163 11.032 225.163 11.608V12.232H227.003V13.432ZM230.157 13.864C230.455 13.3413 230.893 12.9147 231.469 12.584C232.045 12.2533 232.701 12.088 233.437 12.088C234.226 12.088 234.935 12.2747 235.565 12.648C236.194 13.0213 236.69 13.5493 237.053 14.232C237.415 14.904 237.597 15.688 237.597 16.584C237.597 17.4693 237.415 18.2587 237.053 18.952C236.69 19.6453 236.189 20.184 235.549 20.568C234.919 20.952 234.215 21.144 233.437 21.144C232.679 21.144 232.013 20.9787 231.437 20.648C230.871 20.3173 230.445 19.896 230.157 19.384V21H228.701V9.16H230.157V13.864ZM236.109 16.584C236.109 15.9227 235.975 15.3467 235.709 14.856C235.442 14.3653 235.079 13.992 234.621 13.736C234.173 13.48 233.677 13.352 233.133 13.352C232.599 13.352 232.103 13.4853 231.645 13.752C231.197 14.008 230.834 14.3867 230.557 14.888C230.29 15.3787 230.157 15.9493 230.157 16.6C230.157 17.2613 230.29 17.8427 230.557 18.344C230.834 18.8347 231.197 19.2133 231.645 19.48C232.103 19.736 232.599 19.864 233.133 19.864C233.677 19.864 234.173 19.736 234.621 19.48C235.079 19.2133 235.442 18.8347 235.709 18.344C235.975 17.8427 236.109 17.256 236.109 16.584Z" fill="white"/>
<path fill-rule="evenodd" clip-rule="evenodd" d="M11.2928 2.03138C6.96791 2.47962 3.16857 5.11858 1.27064 8.99253C0.819234 9.91396 0.602555 10.4993 0.364213 11.441C0.066994 12.6153 0 13.1781 0 14.5012C0 15.8244 0.066994 16.3872 0.364213 17.5615C0.602506 18.503 0.819234 19.0884 1.27029 20.0091C2.48078 22.48 4.51188 24.5105 6.98953 25.7265C8.20329 26.3223 9.41662 26.7023 10.7549 26.9059C11.5793 27.0314 13.4025 27.0314 14.2268 26.9059C16.9747 26.4878 19.3815 25.2747 21.3174 23.3322C23.4665 21.1757 24.6848 18.568 24.9632 15.5284C25.0339 14.7564 24.9997 13.5064 24.8868 12.7403C24.3698 9.23055 22.3913 6.09806 19.4348 4.10838C17.8615 3.04965 16.183 2.40009 14.2513 2.1026C13.6367 2.00791 11.9181 1.96657 11.2928 2.03138ZM13.3466 4.52428C14.8908 4.66833 16.274 5.11408 17.569 5.88495C20.1468 7.41954 21.8703 9.94531 22.3791 12.9341C22.5267 13.8008 22.5267 15.2016 22.3791 16.0683C21.6443 20.3847 18.3705 23.6592 14.0575 24.3917C13.2435 24.5299 11.8364 24.5401 11.0483 24.4135C8.85979 24.062 6.9617 23.1015 5.42637 21.5684C2.21217 18.3589 1.55636 13.4369 3.82096 9.51918C4.60259 8.16693 5.85156 6.85264 7.09643 6.07243C9.01999 4.86692 11.2083 4.32487 13.3466 4.52428ZM11.6417 8.29235C9.28175 8.62006 7.30934 10.2334 6.57573 12.436C6.32296 13.1948 6.25822 13.6161 6.25822 14.5012C6.25822 15.3863 6.32296 15.8076 6.57573 16.5665C7.06576 18.0378 8.15131 19.3039 9.55882 20.0457C11.546 21.0931 14.0704 20.9686 15.8895 19.7334C16.288 19.4628 16.843 18.9699 16.843 18.8865C16.843 18.8549 16.4606 18.4469 15.9931 17.9799L15.1431 17.1307L14.8072 17.4087C14.4227 17.7269 13.8337 18.0331 13.3711 18.1553C12.8902 18.2823 11.9927 18.2687 11.489 18.1269C10.1597 17.7525 9.23813 16.8312 8.86517 15.5039C8.70932 14.9494 8.70932 14.0531 8.86517 13.4985C9.23808 12.1714 10.1581 11.2515 11.489 10.8751C12.0251 10.7235 12.9287 10.7226 13.4835 10.8732C13.9916 11.0111 14.4984 11.2842 14.8491 11.609L15.1362 11.8748L15.9896 11.005C16.459 10.5266 16.843 10.1179 16.843 10.0967C16.843 10.0296 16.2446 9.51018 15.8895 9.26904C15.2673 8.84653 14.6003 8.56186 13.8112 8.3819C13.322 8.27038 12.1488 8.22191 11.6417 8.29235Z" fill="white" fill-opacity="0.7"/>
</svg>
