<svg width="202" height="23" viewBox="0 0 202 23" fill="none" xmlns="http://www.w3.org/2000/svg">
<path d="M104.087 17.5318C103.303 16.7798 102.699 15.8238 102.275 14.6638C101.859 13.5038 101.651 12.2598 101.651 10.9318C101.651 9.5718 101.875 8.2878 102.323 7.0798C102.779 5.8718 103.447 4.8758 104.327 4.0918H105.743V4.2238C104.823 5.0718 104.131 6.0878 103.667 7.2718C103.203 8.4558 102.971 9.6758 102.971 10.9318C102.971 12.1398 103.187 13.3078 103.619 14.4358C104.051 15.5638 104.679 16.5518 105.503 17.3998V17.5318H104.087ZM106.657 13.7398V12.0838L110.449 6.6598H112.741V11.9638H113.725V13.7398H112.741V15.2998H110.689V13.7398H106.657ZM110.833 8.9158L108.817 11.9638H110.833V8.9158ZM115.894 15.3958C115.534 15.3958 115.238 15.2918 115.006 15.0838C114.782 14.8678 114.67 14.6038 114.67 14.2918C114.67 13.9718 114.782 13.7038 115.006 13.4878C115.238 13.2718 115.534 13.1638 115.894 13.1638C116.246 13.1638 116.534 13.2718 116.758 13.4878C116.99 13.7038 117.106 13.9718 117.106 14.2918C117.106 14.6038 116.99 14.8678 116.758 15.0838C116.534 15.2918 116.246 15.3958 115.894 15.3958ZM122.449 8.9038C122.385 8.6078 122.273 8.3878 122.113 8.2438C121.953 8.0918 121.725 8.0158 121.429 8.0158C120.973 8.0158 120.645 8.2158 120.445 8.6158C120.245 9.0078 120.141 9.6318 120.133 10.4878C120.309 10.2078 120.561 9.9878 120.889 9.8278C121.225 9.6678 121.593 9.5878 121.993 9.5878C122.777 9.5878 123.405 9.8358 123.877 10.3318C124.357 10.8278 124.597 11.5198 124.597 12.4078C124.597 12.9918 124.477 13.5038 124.237 13.9438C124.005 14.3838 123.661 14.7278 123.205 14.9758C122.757 15.2238 122.225 15.3478 121.609 15.3478C120.377 15.3478 119.521 14.9638 119.041 14.1958C118.561 13.4198 118.321 12.3078 118.321 10.8598C118.321 9.3398 118.573 8.2118 119.077 7.4758C119.589 6.7318 120.405 6.3598 121.525 6.3598C122.125 6.3598 122.629 6.4798 123.037 6.7198C123.453 6.9518 123.765 7.2598 123.973 7.6438C124.189 8.0278 124.317 8.4478 124.357 8.9038H122.449ZM121.501 11.2078C121.157 11.2078 120.869 11.3118 120.637 11.5198C120.413 11.7198 120.301 12.0078 120.301 12.3838C120.301 12.7678 120.405 13.0678 120.613 13.2838C120.829 13.4998 121.133 13.6078 121.525 13.6078C121.877 13.6078 122.153 13.5038 122.353 13.2958C122.561 13.0798 122.665 12.7878 122.665 12.4198C122.665 12.0438 122.565 11.7478 122.365 11.5318C122.165 11.3158 121.877 11.2078 121.501 11.2078ZM133.675 3.9718L130.411 17.3998H129.067L132.319 3.9718H133.675ZM143.976 7.7278H139.956V10.1158C140.124 9.8918 140.372 9.7038 140.7 9.5518C141.036 9.3998 141.392 9.3238 141.768 9.3238C142.44 9.3238 142.984 9.4678 143.4 9.7558C143.824 10.0438 144.124 10.4078 144.3 10.8478C144.484 11.2878 144.576 11.7518 144.576 12.2398C144.576 12.8318 144.46 13.3598 144.228 13.8238C144.004 14.2798 143.664 14.6398 143.208 14.9038C142.76 15.1678 142.208 15.2998 141.552 15.2998C140.68 15.2998 139.98 15.0838 139.452 14.6518C138.924 14.2198 138.608 13.6478 138.504 12.9358H139.836C139.924 13.3118 140.12 13.6118 140.424 13.8358C140.728 14.0518 141.108 14.1598 141.564 14.1598C142.132 14.1598 142.556 13.9878 142.836 13.6438C143.124 13.2998 143.268 12.8438 143.268 12.2758C143.268 11.6998 143.124 11.2598 142.836 10.9558C142.548 10.6438 142.124 10.4878 141.564 10.4878C141.172 10.4878 140.84 10.5878 140.568 10.7878C140.304 10.9798 140.112 11.2438 139.992 11.5798H138.696V6.5278H143.976V7.7278ZM146.732 15.3838C146.484 15.3838 146.276 15.2998 146.108 15.1318C145.94 14.9638 145.856 14.7558 145.856 14.5078C145.856 14.2598 145.94 14.0518 146.108 13.8838C146.276 13.7158 146.484 13.6318 146.732 13.6318C146.972 13.6318 147.176 13.7158 147.344 13.8838C147.512 14.0518 147.596 14.2598 147.596 14.5078C147.596 14.7558 147.512 14.9638 147.344 15.1318C147.176 15.2998 146.972 15.3838 146.732 15.3838ZM148.895 10.8118C148.895 9.4278 149.127 8.3478 149.591 7.5718C150.063 6.7878 150.871 6.3958 152.015 6.3958C153.159 6.3958 153.963 6.7878 154.427 7.5718C154.899 8.3478 155.135 9.4278 155.135 10.8118C155.135 12.2118 154.899 13.3078 154.427 14.0998C153.963 14.8838 153.159 15.2758 152.015 15.2758C150.871 15.2758 150.063 14.8838 149.591 14.0998C149.127 13.3078 148.895 12.2118 148.895 10.8118ZM153.791 10.8118C153.791 10.1638 153.747 9.6158 153.659 9.1678C153.579 8.7198 153.411 8.3558 153.155 8.0758C152.899 7.7878 152.519 7.6438 152.015 7.6438C151.511 7.6438 151.131 7.7878 150.875 8.0758C150.619 8.3558 150.447 8.7198 150.359 9.1678C150.279 9.6158 150.239 10.1638 150.239 10.8118C150.239 11.4838 150.279 12.0478 150.359 12.5038C150.439 12.9598 150.607 13.3278 150.863 13.6078C151.127 13.8878 151.511 14.0278 152.015 14.0278C152.519 14.0278 152.899 13.8878 153.155 13.6078C153.419 13.3278 153.591 12.9598 153.671 12.5038C153.751 12.0478 153.791 11.4838 153.791 10.8118ZM156.426 17.5318V17.3998C157.25 16.5518 157.878 15.5638 158.31 14.4358C158.742 13.3078 158.958 12.1398 158.958 10.9318C158.958 9.6758 158.726 8.4558 158.262 7.2718C157.798 6.0878 157.106 5.0718 156.186 4.2238V4.0918H157.602C158.482 4.8758 159.146 5.8718 159.594 7.0798C160.05 8.2878 160.278 9.5718 160.278 10.9318C160.278 12.2598 160.066 13.5038 159.642 14.6638C159.226 15.8238 158.626 16.7798 157.842 17.5318H156.426Z" fill="#636366"/>
<path fill-rule="evenodd" clip-rule="evenodd" d="M12.3553 16.6038C12.2518 16.6038 12.1477 16.5798 12.0521 16.5307L8.71347 14.8081L5.3755 16.5307C5.15419 16.6439 4.88704 16.6245 4.68669 16.4796C4.48502 16.3348 4.38484 16.0897 4.4274 15.8472L5.06317 12.208L2.36556 9.63117C2.18615 9.45981 2.12133 9.20246 2.19794 8.96708C2.27454 8.733 2.47948 8.56165 2.72698 8.52673L6.45913 7.99132L8.12746 4.6767C8.34877 4.237 9.07883 4.237 9.30014 4.6767L10.9685 7.99132L14.7006 8.52673C14.9481 8.56165 15.1531 8.733 15.2297 8.96708C15.3063 9.20246 15.2414 9.45981 15.062 9.63117L12.3644 12.208L13.0002 15.8472C13.0428 16.0897 12.9419 16.3348 12.7409 16.4796C12.627 16.5624 12.4914 16.6038 12.3553 16.6038Z" fill="#FFBB0B"/>
<mask id="mask0_504_913" style="mask-type:alpha" maskUnits="userSpaceOnUse" x="2" y="4" width="14" height="13">
<path fill-rule="evenodd" clip-rule="evenodd" d="M12.3553 16.9832C12.2518 16.9832 12.1477 16.9592 12.0521 16.9101L8.71347 15.1875L5.3755 16.9101C5.15419 17.0232 4.88704 17.0038 4.68669 16.859C4.48502 16.7142 4.38484 16.4691 4.4274 16.2266L5.06317 12.5874L2.36556 10.0106C2.18615 9.83921 2.12133 9.58185 2.19794 9.34648C2.27454 9.1124 2.47948 8.94104 2.72698 8.90612L6.45913 8.37071L8.12746 5.0561C8.34877 4.61639 9.07883 4.61639 9.30014 5.0561L10.9685 8.37071L14.7006 8.90612C14.9481 8.94104 15.1531 9.1124 15.2297 9.34648C15.3063 9.58185 15.2415 9.83921 15.062 10.0106L12.3644 12.5874L13.0002 16.2266C13.0428 16.4691 12.9419 16.7142 12.7409 16.859C12.627 16.9418 12.4914 16.9832 12.3553 16.9832Z" fill="white"/>
</mask>
<g mask="url(#mask0_504_913)">
<rect x="0.856445" y="3.40356" width="15.7143" height="15.5191" fill="#FFBB0B"/>
</g>
<path fill-rule="evenodd" clip-rule="evenodd" d="M31.2132 16.6038C31.1097 16.6038 31.0056 16.5798 30.91 16.5307L27.5714 14.8081L24.2334 16.5307C24.0121 16.6439 23.745 16.6245 23.5446 16.4796C23.3429 16.3348 23.2428 16.0897 23.2853 15.8472L23.9211 12.208L21.2235 9.63117C21.0441 9.45981 20.9792 9.20246 21.0558 8.96708C21.1325 8.733 21.3374 8.56165 21.5849 8.52673L25.317 7.99132L26.9854 4.6767C27.2067 4.237 27.9367 4.237 28.158 4.6767L29.8264 7.99132L33.5585 8.52673C33.806 8.56165 34.011 8.733 34.0876 8.96708C34.1642 9.20246 34.0994 9.45981 33.92 9.63117L31.2223 12.208L31.8581 15.8472C31.9007 16.0897 31.7998 16.3348 31.5988 16.4796C31.4849 16.5624 31.3494 16.6038 31.2132 16.6038Z" fill="#FFBB0B"/>
<mask id="mask1_504_913" style="mask-type:alpha" maskUnits="userSpaceOnUse" x="21" y="4" width="14" height="13">
<path fill-rule="evenodd" clip-rule="evenodd" d="M31.2132 16.9832C31.1097 16.9832 31.0056 16.9592 30.91 16.9101L27.5714 15.1875L24.2334 16.9101C24.0121 17.0232 23.745 17.0038 23.5446 16.859C23.3429 16.7142 23.2428 16.4691 23.2853 16.2266L23.9211 12.5874L21.2235 10.0106C21.0441 9.83921 20.9792 9.58185 21.0558 9.34648C21.1325 9.1124 21.3374 8.94104 21.5849 8.90612L25.317 8.37071L26.9854 5.0561C27.2067 4.61639 27.9367 4.61639 28.158 5.0561L29.8264 8.37071L33.5585 8.90612C33.806 8.94104 34.011 9.1124 34.0876 9.34648C34.1642 9.58185 34.0994 9.83921 33.92 10.0106L31.2223 12.5874L31.8581 16.2266C31.9007 16.4691 31.7998 16.7142 31.5988 16.859C31.4849 16.9418 31.3494 16.9832 31.2132 16.9832Z" fill="white"/>
</mask>
<g mask="url(#mask1_504_913)">
<rect x="19.7144" y="3.40356" width="15.7143" height="15.5191" fill="#FFBB0B"/>
</g>
<path fill-rule="evenodd" clip-rule="evenodd" d="M50.0691 16.6038C49.9657 16.6038 49.8616 16.5798 49.766 16.5307L46.4273 14.8081L43.0894 16.5307C42.8681 16.6439 42.6009 16.6245 42.4006 16.4796C42.1989 16.3348 42.0987 16.0897 42.1413 15.8472L42.777 12.208L40.0794 9.63117C39.9 9.45981 39.8352 9.20246 39.9118 8.96708C39.9884 8.733 40.1934 8.56165 40.4409 8.52673L44.173 7.99132L45.8413 4.6767C46.0626 4.237 46.7927 4.237 47.014 4.6767L48.6823 7.99132L52.4145 8.52673C52.662 8.56165 52.8669 8.733 52.9435 8.96708C53.0201 9.20246 52.9553 9.45981 52.7759 9.63117L50.0783 12.208L50.7141 15.8472C50.7566 16.0897 50.6558 16.3348 50.4548 16.4796C50.3409 16.5624 50.2053 16.6038 50.0691 16.6038Z" fill="#FFBB0B"/>
<mask id="mask2_504_913" style="mask-type:alpha" maskUnits="userSpaceOnUse" x="39" y="4" width="14" height="13">
<path fill-rule="evenodd" clip-rule="evenodd" d="M50.0691 16.9832C49.9657 16.9832 49.8616 16.9592 49.766 16.9101L46.4273 15.1875L43.0894 16.9101C42.8681 17.0232 42.6009 17.0038 42.4006 16.859C42.1989 16.7142 42.0987 16.4691 42.1413 16.2266L42.777 12.5874L40.0794 10.0106C39.9 9.83921 39.8352 9.58185 39.9118 9.34648C39.9884 9.1124 40.1934 8.94104 40.4409 8.90612L44.173 8.37071L45.8413 5.0561C46.0626 4.61639 46.7927 4.61639 47.014 5.0561L48.6823 8.37071L52.4145 8.90612C52.662 8.94104 52.8669 9.1124 52.9435 9.34648C53.0201 9.58185 52.9553 9.83921 52.7759 10.0106L50.0783 12.5874L50.7141 16.2266C50.7566 16.4691 50.6558 16.7142 50.4548 16.859C50.3409 16.9418 50.2053 16.9832 50.0691 16.9832Z" fill="white"/>
</mask>
<g mask="url(#mask2_504_913)">
<rect x="38.5703" y="3.40356" width="15.7143" height="15.5191" fill="#FFBB0B"/>
</g>
<path fill-rule="evenodd" clip-rule="evenodd" d="M68.927 16.6038C68.8236 16.6038 68.7195 16.5798 68.6239 16.5307L65.2852 14.8081L61.9473 16.5307C61.726 16.6439 61.4588 16.6245 61.2585 16.4796C61.0568 16.3348 60.9566 16.0897 60.9992 15.8472L61.635 12.208L58.9373 9.63117C58.7579 9.45981 58.6931 9.20246 58.7697 8.96708C58.8463 8.733 59.0513 8.56165 59.2988 8.52673L63.0309 7.99132L64.6992 4.6767C64.9205 4.237 65.6506 4.237 65.8719 4.6767L67.5402 7.99132L71.2724 8.52673C71.5199 8.56165 71.7248 8.733 71.8014 8.96708C71.878 9.20246 71.8132 9.45981 71.6338 9.63117L68.9362 12.208L69.572 15.8472C69.6145 16.0897 69.5137 16.3348 69.3127 16.4796C69.1988 16.5624 69.0632 16.6038 68.927 16.6038Z" fill="#FFBB0B"/>
<mask id="mask3_504_913" style="mask-type:alpha" maskUnits="userSpaceOnUse" x="58" y="4" width="14" height="13">
<path fill-rule="evenodd" clip-rule="evenodd" d="M68.927 16.9832C68.8236 16.9832 68.7195 16.9592 68.6239 16.9101L65.2853 15.1875L61.9473 16.9101C61.726 17.0232 61.4588 17.0038 61.2585 16.859C61.0568 16.7142 60.9566 16.4691 60.9992 16.2266L61.635 12.5874L58.9373 10.0106C58.7579 9.83921 58.6931 9.58185 58.7697 9.34648C58.8463 9.1124 59.0513 8.94104 59.2988 8.90612L63.0309 8.37071L64.6992 5.0561C64.9205 4.61639 65.6506 4.61639 65.8719 5.0561L67.5402 8.37071L71.2724 8.90612C71.5199 8.94104 71.7248 9.1124 71.8014 9.34648C71.878 9.58185 71.8132 9.83921 71.6338 10.0106L68.9362 12.5874L69.572 16.2266C69.6145 16.4691 69.5137 16.7142 69.3127 16.859C69.1988 16.9418 69.0632 16.9832 68.927 16.9832Z" fill="white"/>
</mask>
<g mask="url(#mask3_504_913)">
<rect x="57.4282" y="3.40356" width="15.7143" height="15.5191" fill="#FFBB0B"/>
</g>
<path fill-rule="evenodd" clip-rule="evenodd" d="M87.7832 16.6038C87.6798 16.6038 87.5757 16.5798 87.4801 16.5307L84.1415 14.8081L80.8035 16.5307C80.5822 16.6439 80.315 16.6245 80.1147 16.4796C79.913 16.3348 79.8128 16.0897 79.8554 15.8472L80.4912 12.208L77.7935 9.63117C77.6141 9.45981 77.5493 9.20246 77.6259 8.96708C77.7025 8.733 77.9075 8.56165 78.155 8.52673L81.8871 7.99132L83.5554 4.6767C83.7767 4.237 84.5068 4.237 84.7281 4.6767L86.3965 7.99132L90.1286 8.52673C90.3761 8.56165 90.581 8.733 90.6576 8.96708C90.7342 9.20246 90.6694 9.45981 90.49 9.63117L87.7924 12.208L88.4282 15.8472C88.4707 16.0897 88.3699 16.3348 88.1689 16.4796C88.055 16.5624 87.9194 16.6038 87.7832 16.6038Z" fill="#C0CCDA"/>
<mask id="mask4_504_913" style="mask-type:alpha" maskUnits="userSpaceOnUse" x="77" y="4" width="14" height="13">
<path fill-rule="evenodd" clip-rule="evenodd" d="M87.7832 16.9832C87.6798 16.9832 87.5757 16.9592 87.4801 16.9101L84.1415 15.1875L80.8035 16.9101C80.5822 17.0232 80.315 17.0038 80.1147 16.859C79.913 16.7142 79.8128 16.4691 79.8554 16.2266L80.4912 12.5874L77.7935 10.0106C77.6141 9.83921 77.5493 9.58185 77.6259 9.34648C77.7025 9.1124 77.9075 8.94104 78.155 8.90612L81.8871 8.37071L83.5554 5.0561C83.7767 4.61639 84.5068 4.61639 84.7281 5.0561L86.3965 8.37071L90.1286 8.90612C90.3761 8.94104 90.581 9.1124 90.6576 9.34648C90.7343 9.58185 90.6694 9.83921 90.49 10.0106L87.7924 12.5874L88.4282 16.2266C88.4707 16.4691 88.3699 16.7142 88.1689 16.859C88.055 16.9418 87.9194 16.9832 87.7832 16.9832Z" fill="white"/>
</mask>
<g mask="url(#mask4_504_913)">
<rect x="76.2844" y="3.40356" width="15.7143" height="15.5191" fill="#C0CCDA"/>
</g>
</svg>
